{"glyphs":{"0":{"ha":805,"x_min":58,"x_max":747,"o":"m 747 584 l 747 404 q 722 218 747 297 q 651 88 697 140 q 543 12 606 37 q 404 -14 479 -14 q 290 2 342 -14 q 194 51 237 18 q 121 134 152 84 q 75 251 91 183 q 58 404 58 318 l 58 584 q 83 769 58 691 q 154 899 108 848 q 263 976 200 951 q 402 1001 326 1001 q 516 985 463 1001 q 611 936 568 969 q 684 854 654 903 q 730 737 714 804 q 747 584 747 669 m 518 376 l 518 613 q 513 696 518 661 q 498 755 508 731 q 474 795 488 780 q 442 818 460 810 q 402 825 424 825 q 354 813 375 825 q 317 778 332 802 q 295 713 302 753 q 287 613 287 672 l 287 376 q 292 292 287 328 q 307 232 297 256 q 331 192 317 207 q 363 170 345 176 q 404 163 382 163 q 451 174 430 163 q 487 209 472 184 q 510 275 503 234 q 518 376 518 316 z "},"1":{"ha":805,"x_min":113,"x_max":567,"o":"m 567 987 l 567 0 l 338 0 l 338 730 l 113 664 l 113 838 l 546 987 l 567 987 z "},"2":{"ha":805,"x_min":41,"x_max":750,"o":"m 750 176 l 750 0 l 61 0 l 61 149 l 378 483 q 446 569 420 531 q 484 639 472 608 q 496 695 496 670 q 483 767 496 738 q 447 810 471 795 q 387 825 422 825 q 326 805 352 825 q 284 749 299 785 q 270 670 270 714 l 41 670 q 85 836 41 761 q 209 957 130 911 q 393 1002 288 1002 q 576 968 502 1002 q 687 870 650 934 q 725 715 725 806 q 709 616 725 664 q 662 523 692 569 q 588 427 631 476 q 488 323 544 378 l 361 176 l 750 176 z "},"3":{"ha":805,"x_min":33,"x_max":750,"o":"m 269 589 l 380 589 q 451 605 423 589 q 492 648 478 620 q 505 715 505 676 q 493 770 505 745 q 454 810 480 795 q 389 825 429 825 q 336 814 361 825 q 293 783 310 803 q 277 733 277 762 l 47 733 q 94 877 47 817 q 217 969 140 937 q 381 1002 293 1002 q 566 969 486 1002 q 689 874 645 937 q 734 720 734 812 q 710 624 734 669 q 644 545 686 579 q 544 492 601 511 q 418 473 486 473 l 269 473 l 269 589 m 269 419 l 269 533 l 418 533 q 553 516 492 533 q 659 467 614 500 q 726 387 703 435 q 750 277 750 339 q 722 154 750 208 q 644 62 694 100 q 527 6 594 25 q 381 -14 460 -14 q 258 3 319 -14 q 145 55 196 20 q 63 144 94 90 q 33 275 33 199 l 262 275 q 279 218 262 243 q 326 178 296 193 q 389 163 355 163 q 460 179 431 163 q 505 222 490 195 q 521 282 521 249 q 504 362 521 332 q 456 406 488 392 q 380 419 425 419 l 269 419 z "},"4":{"ha":805,"x_min":40,"x_max":764,"o":"m 764 386 l 764 210 l 54 210 l 40 349 l 437 987 l 617 987 l 421 667 l 258 386 l 764 386 m 665 987 l 665 0 l 436 0 l 436 987 l 665 987 z "},"5":{"ha":805,"x_min":54,"x_max":745,"o":"m 256 440 l 75 483 l 134 987 l 711 987 l 711 810 l 321 810 l 298 614 q 354 636 315 623 q 440 650 393 650 q 570 628 513 650 q 666 563 627 606 q 725 459 705 521 q 745 318 745 397 q 725 195 745 254 q 662 89 704 136 q 555 14 619 41 q 402 -14 490 -14 q 274 7 336 -14 q 162 65 212 27 q 83 158 112 104 q 55 281 54 213 l 285 281 q 302 218 287 245 q 342 177 317 192 q 401 163 368 163 q 457 176 435 163 q 492 214 479 190 q 511 268 505 237 q 516 334 516 299 q 508 399 516 370 q 484 449 500 429 q 440 481 467 470 q 376 492 413 492 q 298 475 326 492 q 256 440 269 458 z "},"6":{"ha":805,"x_min":57,"x_max":766,"o":"m 576 1002 l 612 1002 l 612 822 l 600 822 q 477 804 534 822 q 377 748 420 785 q 310 655 334 711 q 286 523 286 599 l 286 350 q 294 267 286 302 q 318 209 302 232 q 358 174 334 186 q 414 163 382 163 q 463 175 441 163 q 502 210 486 187 q 528 262 519 232 q 536 327 536 292 q 527 395 536 365 q 500 447 517 426 q 459 480 483 469 q 406 491 435 491 q 333 472 363 491 q 287 422 302 452 q 272 362 272 393 l 217 418 q 233 502 216 458 q 283 583 250 545 q 368 643 317 620 q 486 666 419 666 q 606 640 554 666 q 693 568 658 614 q 747 460 729 522 q 766 327 766 399 q 740 192 766 254 q 669 84 715 130 q 559 12 623 38 q 420 -14 496 -14 q 276 13 342 -14 q 161 91 210 40 q 84 216 112 142 q 57 384 57 290 l 57 467 q 99 693 57 594 q 213 861 140 792 q 378 966 285 930 q 576 1002 472 1002 z "},"7":{"ha":805,"x_min":35,"x_max":747,"o":"m 747 987 l 747 865 l 378 0 l 137 0 l 507 811 l 35 811 l 35 987 l 747 987 z "},"8":{"ha":805,"x_min":58,"x_max":747,"o":"m 747 272 q 702 114 747 178 q 580 18 658 50 q 404 -14 503 -14 q 227 18 305 -14 q 103 114 149 50 q 58 272 58 178 q 84 388 58 336 q 157 475 110 439 q 266 530 203 511 q 402 549 329 549 q 579 515 501 549 q 702 420 657 481 q 747 272 747 358 m 517 290 q 503 359 517 331 q 463 402 488 387 q 402 417 437 417 q 342 402 368 417 q 301 359 316 387 q 287 290 287 331 q 302 222 287 251 q 343 178 317 193 q 404 163 369 163 q 464 178 438 163 q 503 222 489 193 q 517 290 517 251 m 726 724 q 685 588 726 646 q 571 498 644 530 q 404 466 498 466 q 236 498 309 466 q 120 588 162 530 q 79 724 79 646 q 120 876 79 814 q 235 970 162 938 q 402 1002 309 1002 q 570 970 497 1002 q 685 876 644 938 q 726 724 726 814 m 498 711 q 487 772 498 747 q 455 811 476 798 q 402 825 434 825 q 351 812 372 825 q 319 773 330 798 q 308 711 308 747 q 319 650 308 676 q 351 608 330 623 q 404 593 372 593 q 456 608 435 593 q 487 650 477 623 q 498 711 498 676 z "},"9":{"ha":805,"x_min":54,"x_max":743,"o":"m 205 170 l 219 170 q 341 184 287 170 q 434 231 395 199 q 493 313 473 262 q 514 435 514 363 l 514 640 q 506 722 514 687 q 482 780 498 757 q 445 814 467 803 q 396 825 423 825 q 348 810 369 825 q 313 769 328 795 q 291 712 298 744 q 283 649 283 681 q 291 582 283 613 q 314 529 299 551 q 353 493 330 506 q 408 480 376 480 q 461 491 439 480 q 499 521 484 503 q 521 562 514 540 q 528 604 528 583 l 594 552 q 574 467 594 509 q 520 390 555 425 q 440 336 486 356 q 345 315 395 315 q 224 339 278 315 q 132 407 170 363 q 74 512 94 451 q 54 649 54 574 q 79 785 54 722 q 151 898 104 849 q 260 974 197 946 q 398 1002 323 1002 q 532 975 469 1002 q 642 897 594 948 q 716 770 689 845 q 743 597 743 694 l 743 519 q 718 329 743 414 q 644 180 692 244 q 532 73 597 116 q 389 8 467 30 q 223 -14 311 -14 l 205 -14 l 205 170 z "},"\u0000":{"ha":0,"x_min":0,"x_max":0,"o":""},"\u0002":{"ha":0,"x_min":0,"x_max":0,"o":""},"\r":{"ha":346,"x_min":0,"x_max":0,"o":""}," ":{"ha":346,"x_min":0,"x_max":0,"o":""},"!":{"ha":384,"x_min":71,"x_max":323,"o":"m 321 987 l 292 313 l 106 313 l 77 987 l 321 987 m 71 102 q 106 184 71 151 q 197 217 141 217 q 289 184 254 217 q 323 102 323 151 q 289 21 323 54 q 197 -12 254 -12 q 106 21 141 -12 q 71 102 71 54 z "},"\"":{"ha":441,"x_min":18,"x_max":412,"o":"m 174 1042 l 174 948 l 144 657 l 18 657 l 18 939 l 18 1042 l 174 1042 m 412 1042 l 412 948 l 382 657 l 256 657 l 256 945 l 256 1042 l 412 1042 z "},"#":{"ha":807,"x_min":20,"x_max":777,"o":"m 125 0 l 288 987 l 422 987 l 260 0 l 125 0 m 370 0 l 532 987 l 667 987 l 505 0 l 370 0 m 777 581 l 71 581 l 71 705 l 777 705 l 777 581 m 726 278 l 20 278 l 20 402 l 726 402 l 726 278 z "},"$":{"ha":805,"x_min":56,"x_max":749,"o":"m 484 1143 l 484 945 l 376 945 l 376 1143 l 484 1143 m 471 35 l 471 -148 l 363 -148 l 363 35 l 471 35 m 516 262 q 505 323 516 299 q 467 366 493 348 q 399 403 441 385 q 240 478 309 439 q 132 574 171 517 q 93 724 93 632 q 135 871 93 808 q 250 967 176 933 q 420 1002 323 1002 q 553 980 493 1002 q 658 917 614 958 q 726 817 702 876 q 749 682 749 758 l 521 682 q 513 749 521 721 q 491 794 505 777 q 458 820 477 812 q 416 829 439 829 q 361 814 382 829 q 331 776 340 800 q 321 723 321 752 q 332 670 321 692 q 368 628 342 647 q 439 588 394 608 q 596 511 527 551 q 705 413 665 471 q 745 263 745 355 q 703 113 745 175 q 588 18 662 51 q 417 -14 514 -14 q 288 3 352 -14 q 171 58 224 20 q 87 160 119 96 q 56 317 56 224 l 285 317 q 296 241 285 271 q 325 192 307 210 q 368 166 344 174 q 417 159 391 159 q 473 173 452 159 q 506 210 495 186 q 516 262 516 233 z "},"%":{"ha":1031,"x_min":62,"x_max":970,"o":"m 62 745 l 62 798 q 86 900 62 854 q 159 974 111 946 q 281 1002 208 1002 q 404 974 355 1002 q 477 900 453 946 q 501 798 501 854 l 501 745 q 477 644 501 690 q 405 570 453 598 q 282 543 356 543 q 160 570 209 543 q 86 644 111 598 q 62 745 62 690 m 208 798 l 208 745 q 216 707 208 725 q 241 677 224 688 q 282 666 258 666 q 323 677 307 666 q 346 707 338 688 q 354 745 354 725 l 354 798 q 346 838 354 819 q 322 867 338 856 q 281 878 306 878 q 241 867 257 878 q 216 838 224 856 q 208 798 208 819 m 530 190 l 530 242 q 555 344 530 298 q 629 418 580 390 q 751 446 678 446 q 874 418 825 446 q 946 344 922 390 q 970 242 970 298 l 970 190 q 946 88 970 134 q 874 14 922 42 q 752 -14 826 -14 q 629 14 679 -14 q 555 88 580 42 q 530 190 530 134 m 677 242 l 677 190 q 688 151 677 169 q 715 121 698 132 q 752 110 732 110 q 799 121 783 110 q 819 151 814 132 q 824 190 824 169 l 824 242 q 816 281 824 263 q 791 311 808 300 q 751 322 775 322 q 710 311 726 322 q 686 281 694 300 q 677 242 677 263 m 808 846 l 326 74 l 219 127 l 701 899 l 808 846 z "},"&":{"ha":937,"x_min":38,"x_max":913,"o":"m 209 519 l 418 650 q 470 701 460 677 q 480 748 480 725 q 460 801 480 776 q 404 825 440 825 q 360 813 378 825 q 333 782 342 802 q 323 738 323 762 q 340 676 323 707 q 386 610 357 645 q 448 534 414 576 l 913 0 l 658 0 l 279 430 q 198 540 233 490 q 145 637 164 590 q 126 735 126 685 q 160 873 126 813 q 257 967 195 933 q 405 1002 320 1002 q 542 969 484 1002 q 631 883 600 937 q 663 764 663 829 q 646 680 663 720 q 600 606 629 640 q 532 546 570 573 l 306 388 q 284 354 292 371 q 272 319 275 336 q 268 281 268 301 q 283 219 268 245 q 322 177 298 192 q 376 162 347 162 q 483 186 431 162 q 574 254 534 210 q 639 359 615 298 q 663 494 663 420 l 854 494 q 838 341 854 414 q 786 208 822 269 q 688 101 749 147 q 676 93 685 99 q 663 85 667 87 q 522 10 591 35 q 361 -14 453 -14 q 189 22 261 -14 q 77 121 117 58 q 38 265 38 184 q 60 366 38 323 q 120 446 81 409 q 209 519 159 482 z "},"'":{"ha":214,"x_min":30,"x_max":193,"o":"m 193 1042 l 193 932 l 170 652 l 30 652 l 30 923 l 30 1042 l 193 1042 z "},"(":{"ha":490,"x_min":82,"x_max":463,"o":"m 82 382 l 82 401 q 111 657 82 542 q 189 861 140 773 q 297 1006 237 948 q 420 1089 357 1064 l 463 977 q 390 901 425 949 q 326 783 354 853 q 280 619 297 713 q 264 403 264 525 l 264 381 q 280 165 264 259 q 326 1 297 71 q 390 -117 354 -69 q 463 -193 425 -165 l 420 -305 q 297 -222 357 -279 q 189 -77 237 -164 q 111 126 140 11 q 82 382 82 242 z "},")":{"ha":490,"x_min":27,"x_max":425,"o":"m 425 401 l 425 382 q 394 134 425 249 q 313 -70 364 20 q 200 -219 262 -159 q 71 -305 137 -279 l 27 -193 q 101 -117 65 -165 q 165 1 136 -69 q 210 165 193 71 q 227 381 227 259 l 227 403 q 210 619 227 525 q 165 783 193 713 q 101 901 136 853 q 27 977 65 949 l 71 1089 q 200 1004 137 1064 q 313 854 262 943 q 394 650 364 764 q 425 401 425 535 z "},"*":{"ha":646,"x_min":18,"x_max":643,"o":"m 85 464 l 239 648 l 18 709 l 62 838 l 278 749 l 262 987 l 406 987 l 389 744 l 600 831 l 643 701 l 419 640 l 568 460 l 451 380 l 326 580 l 201 387 l 85 464 z "},"+":{"ha":742,"x_min":31,"x_max":707,"o":"m 707 560 l 707 364 l 31 364 l 31 560 l 707 560 m 477 818 l 477 99 l 263 99 l 263 818 l 477 818 z "},",":{"ha":374,"x_min":29,"x_max":286,"o":"m 286 172 l 284 27 q 244 -135 284 -55 q 145 -266 203 -215 l 29 -212 q 60 -149 43 -180 q 90 -78 77 -117 q 102 14 102 -39 l 102 172 l 286 172 z "},"-":{"ha":625,"x_min":103,"x_max":511,"o":"m 511 514 l 511 337 l 103 337 l 103 514 l 511 514 z "},".":{"ha":420,"x_min":79,"x_max":332,"o":"m 79 107 q 115 189 79 156 q 205 222 150 222 q 297 189 262 222 q 332 107 332 156 q 297 25 332 58 q 205 -7 262 -7 q 115 25 150 -7 q 79 107 79 58 z "},"/":{"ha":488,"x_min":-20,"x_max":481,"o":"m 481 987 l 143 -85 l -20 -85 l 318 987 l 481 987 z "},":":{"ha":417,"x_min":80,"x_max":332,"o":"m 80 107 q 115 189 80 156 q 206 222 151 222 q 297 189 262 222 q 332 107 332 156 q 297 25 332 58 q 206 -7 262 -7 q 115 25 151 -7 q 80 107 80 58 m 80 648 q 115 730 80 697 q 206 763 151 763 q 297 730 262 763 q 332 648 332 697 q 297 567 332 600 q 206 534 262 534 q 115 567 151 534 q 80 648 80 600 z "},";":{"ha":400,"x_min":46,"x_max":325,"o":"m 73 648 q 108 730 73 697 q 199 763 143 763 q 290 730 255 763 q 325 648 325 697 q 290 567 325 600 q 199 534 255 534 q 108 567 143 534 q 73 648 73 600 m 302 172 l 301 27 q 261 -135 301 -55 q 162 -266 220 -215 l 46 -212 q 77 -149 60 -180 q 106 -78 94 -117 q 119 14 119 -39 l 119 172 l 302 172 z "},"<":{"ha":709,"x_min":31,"x_max":631,"o":"m 218 428 l 631 288 l 631 80 l 31 324 l 31 479 l 218 428 m 631 541 l 217 399 l 31 350 l 31 505 l 631 749 l 631 541 z "},"=":{"ha":814,"x_min":87,"x_max":715,"o":"m 715 666 l 715 490 l 87 490 l 87 666 l 715 666 m 715 368 l 715 192 l 87 192 l 87 368 l 715 368 z "},">":{"ha":713,"x_min":75,"x_max":672,"o":"m 488 401 l 75 541 l 75 748 l 672 504 l 672 349 l 488 401 m 75 287 l 488 430 l 672 478 l 672 323 l 75 79 l 75 287 z "},"?":{"ha":708,"x_min":21,"x_max":661,"o":"m 428 313 l 233 313 q 242 418 233 372 q 271 500 250 464 q 328 568 292 537 q 383 619 360 595 q 418 669 406 644 q 431 722 431 694 q 421 780 431 758 q 392 813 411 802 q 343 825 372 825 q 299 813 319 825 q 265 778 278 802 q 251 714 252 753 l 21 714 q 66 879 23 815 q 181 971 109 942 q 343 1001 254 1001 q 513 970 442 1001 q 623 880 585 940 q 661 732 661 820 q 638 631 661 674 q 579 551 616 588 q 497 472 543 514 q 444 402 458 437 q 428 313 429 366 m 205 106 q 241 188 205 155 q 332 221 276 221 q 424 188 389 221 q 459 106 459 155 q 424 25 459 58 q 332 -8 389 -8 q 241 25 276 -8 q 205 106 205 58 z "},"@":{"ha":1244,"x_min":41,"x_max":1194,"o":"m 1190 373 q 1169 232 1187 301 q 1114 107 1151 163 q 1020 19 1077 52 q 884 -14 964 -14 q 806 1 842 -14 q 745 43 770 16 q 706 111 720 71 q 696 199 693 150 l 730 597 l 883 597 l 849 199 q 850 152 846 170 q 864 123 854 134 q 887 109 874 113 q 914 104 901 104 q 968 124 943 104 q 1011 179 993 144 q 1041 263 1030 215 q 1053 366 1052 311 q 1044 524 1057 451 q 1001 655 1031 597 q 921 754 970 713 q 805 818 872 795 q 651 840 738 840 q 500 814 569 840 q 376 740 431 788 q 282 627 321 692 q 221 481 243 561 q 195 311 199 401 q 205 135 190 213 q 254 -2 220 56 q 339 -100 288 -61 q 457 -159 390 -139 q 607 -178 525 -178 q 727 -165 666 -178 q 831 -134 789 -153 l 857 -247 q 739 -292 810 -277 q 604 -307 667 -307 q 404 -282 494 -307 q 245 -207 314 -257 q 131 -82 176 -157 q 63 90 85 -8 q 46 311 41 189 q 81 520 51 422 q 163 698 111 618 q 289 836 216 778 q 454 925 362 894 q 654 956 546 956 q 848 929 761 956 q 1001 851 935 902 q 1111 728 1067 800 q 1174 566 1154 656 q 1190 373 1194 477 m 511 296 q 512 219 508 252 q 526 163 515 185 q 554 129 536 140 q 595 117 571 117 q 621 123 606 117 q 652 144 636 129 q 682 188 667 159 q 708 261 697 216 l 771 184 q 733 98 755 135 q 682 37 711 62 q 618 1 653 13 q 542 -12 583 -12 q 453 10 492 -12 q 386 72 413 32 q 347 169 359 113 q 342 296 335 226 q 370 422 350 364 q 420 527 390 481 q 488 605 450 572 q 573 654 527 637 q 669 671 618 671 q 796 649 750 671 q 883 597 842 626 l 808 491 q 757 525 789 509 q 682 542 726 542 q 612 526 642 542 q 563 478 583 510 q 530 401 543 447 q 511 296 517 355 z "},"A":{"ha":946,"x_min":-3,"x_max":949,"o":"m 494 780 l 253 0 l -3 0 l 360 987 l 522 987 l 494 780 m 693 0 l 452 780 l 420 987 l 585 987 l 949 0 l 693 0 m 684 368 l 684 184 l 177 184 l 177 368 l 684 368 z "},"B":{"ha":897,"x_min":75,"x_max":840,"o":"m 478 420 l 224 420 l 222 576 l 429 576 q 517 588 484 576 q 566 625 551 601 q 581 686 581 650 q 566 754 581 728 q 516 792 550 780 q 430 804 483 804 l 313 804 l 313 0 l 75 0 l 75 987 l 430 987 q 593 971 522 987 q 716 920 665 954 q 793 835 766 886 q 819 715 819 784 q 793 602 819 654 q 708 516 768 549 q 544 481 648 483 l 478 420 m 469 0 l 166 0 l 248 183 l 469 183 q 547 198 517 183 q 590 239 576 214 q 603 296 603 264 q 590 361 603 334 q 551 405 578 389 q 478 420 524 420 l 278 420 l 279 576 l 519 576 l 574 513 q 731 486 673 517 q 814 401 789 454 q 840 292 840 349 q 798 130 840 195 q 673 33 756 65 q 469 0 591 0 z "},"C":{"ha":911,"x_min":47,"x_max":876,"o":"m 637 334 l 874 334 q 819 153 869 231 q 678 30 768 74 q 466 -14 588 -14 q 289 20 367 -14 q 158 115 212 53 q 76 267 104 178 q 47 467 47 355 l 47 520 q 77 721 47 631 q 161 872 106 810 q 292 968 216 935 q 463 1002 369 1002 q 680 956 591 1002 q 818 829 769 909 q 876 646 867 749 l 638 646 q 619 740 637 702 q 564 796 602 777 q 463 815 526 815 q 386 799 418 815 q 332 747 353 783 q 299 656 310 712 q 289 522 289 600 l 289 467 q 298 332 289 388 q 329 241 308 277 q 384 190 350 206 q 466 173 417 173 q 557 190 520 173 q 615 243 595 208 q 637 334 635 279 z "},"D":{"ha":899,"x_min":75,"x_max":850,"o":"m 396 0 l 177 0 l 178 183 l 396 183 q 511 216 464 183 q 583 313 558 248 q 608 473 608 378 l 608 515 q 594 641 608 587 q 553 731 580 694 q 485 785 526 767 q 393 804 445 804 l 173 804 l 173 987 l 393 987 q 577 953 493 987 q 722 856 661 919 q 817 706 783 792 q 850 514 850 619 l 850 473 q 817 281 850 368 q 722 132 783 195 q 578 34 661 68 q 396 0 495 0 m 313 987 l 313 0 l 75 0 l 75 987 l 313 987 z "},"E":{"ha":777,"x_min":75,"x_max":757,"o":"m 755 183 l 755 0 l 229 0 l 229 183 l 755 183 m 313 987 l 313 0 l 75 0 l 75 987 l 313 987 m 687 595 l 687 418 l 229 418 l 229 595 l 687 595 m 757 987 l 757 804 l 229 804 l 229 987 l 757 987 z "},"F":{"ha":760,"x_min":75,"x_max":736,"o":"m 313 987 l 313 0 l 75 0 l 75 987 l 313 987 m 697 576 l 697 393 l 245 393 l 245 576 l 697 576 m 736 987 l 736 804 l 245 804 l 245 987 l 736 987 z "},"G":{"ha":947,"x_min":56,"x_max":883,"o":"m 883 528 l 883 122 q 806 63 858 94 q 675 9 754 31 q 490 -14 597 -14 q 312 18 392 -14 q 175 111 232 50 q 86 261 117 172 q 56 466 56 351 l 56 521 q 87 726 56 636 q 175 877 118 815 q 308 970 231 938 q 477 1002 385 1002 q 699 959 614 1002 q 829 840 785 916 q 882 665 873 764 l 654 665 q 628 748 647 714 q 575 801 610 783 q 486 819 541 819 q 408 800 443 819 q 349 745 373 782 q 311 652 324 708 q 298 522 298 597 l 298 466 q 310 336 298 392 q 348 244 323 281 q 413 188 374 207 q 507 170 453 170 q 572 176 545 170 q 617 192 600 182 q 645 211 635 202 l 645 364 l 479 364 l 479 528 l 883 528 z "},"H":{"ha":976,"x_min":75,"x_max":901,"o":"m 741 595 l 741 412 l 234 412 l 234 595 l 741 595 m 313 987 l 313 0 l 75 0 l 75 987 l 313 987 m 901 987 l 901 0 l 663 0 l 663 987 l 901 987 z "},"I":{"ha":420,"x_min":91,"x_max":328,"o":"m 328 987 l 328 0 l 91 0 l 91 987 l 328 987 z "},"J":{"ha":781,"x_min":25,"x_max":705,"o":"m 468 310 l 468 987 l 705 987 l 705 310 q 660 138 705 211 q 538 26 615 66 q 366 -14 461 -14 q 190 20 267 -14 q 69 122 113 53 q 25 298 25 191 l 264 298 q 275 220 264 248 q 310 181 287 192 q 366 170 332 170 q 421 186 398 170 q 456 234 444 203 q 468 310 468 266 z "},"K":{"ha":888,"x_min":75,"x_max":903,"o":"m 313 987 l 313 0 l 75 0 l 75 987 l 313 987 m 903 987 l 520 487 l 296 242 l 253 460 l 396 677 l 609 987 l 903 987 m 621 0 l 366 445 l 551 581 l 903 0 l 621 0 z "},"L":{"ha":753,"x_min":75,"x_max":728,"o":"m 728 183 l 728 0 l 229 0 l 229 183 l 728 183 m 313 987 l 313 0 l 75 0 l 75 987 l 313 987 z "},"M":{"ha":1217,"x_min":75,"x_max":1141,"o":"m 193 987 l 387 987 l 608 300 l 828 987 l 1022 987 l 686 0 l 529 0 l 193 987 m 75 987 l 276 987 l 313 231 l 313 0 l 75 0 l 75 987 m 939 987 l 1141 987 l 1141 0 l 902 0 l 902 231 l 939 987 z "},"N":{"ha":975,"x_min":75,"x_max":900,"o":"m 900 987 l 900 0 l 663 0 l 313 614 l 313 0 l 75 0 l 75 987 l 313 987 l 663 373 l 663 987 l 900 987 z "},"O":{"ha":959,"x_min":47,"x_max":911,"o":"m 911 513 l 911 473 q 879 270 911 360 q 790 117 848 180 q 654 20 732 54 q 480 -14 575 -14 q 306 20 385 -14 q 169 117 227 54 q 79 270 111 180 q 47 473 47 360 l 47 513 q 79 717 47 627 q 168 870 111 807 q 304 967 225 934 q 479 1001 383 1001 q 653 967 574 1001 q 789 870 732 934 q 879 717 847 807 q 911 513 911 627 m 669 473 l 669 515 q 657 644 669 588 q 620 738 644 700 q 560 795 595 776 q 479 814 524 814 q 396 795 431 814 q 337 738 361 776 q 301 644 313 700 q 290 515 290 588 l 290 473 q 301 345 290 401 q 337 250 313 289 q 397 192 361 212 q 480 172 433 172 q 561 192 526 172 q 620 250 596 212 q 657 345 644 289 q 669 473 669 401 z "},"P":{"ha":905,"x_min":75,"x_max":852,"o":"m 469 335 l 224 335 l 224 519 l 469 519 q 551 536 519 519 q 596 583 582 553 q 611 651 611 613 q 596 726 611 692 q 551 782 582 761 q 469 804 519 804 l 313 804 l 313 0 l 75 0 l 75 987 l 469 987 q 674 944 588 987 q 806 825 760 901 q 852 652 852 749 q 806 486 852 557 q 674 375 760 414 q 469 335 588 335 z "},"Q":{"ha":959,"x_min":49,"x_max":913,"o":"m 626 163 l 901 -56 l 753 -180 l 483 38 l 626 163 m 913 513 l 913 473 q 881 270 913 360 q 792 117 850 180 q 655 20 734 54 q 481 -14 576 -14 q 307 20 386 -14 q 170 117 228 54 q 80 270 112 180 q 49 473 49 360 l 49 513 q 80 717 49 627 q 169 870 112 807 q 306 967 227 934 q 480 1001 385 1001 q 654 967 575 1001 q 791 870 733 934 q 881 717 849 807 q 913 513 913 627 m 671 473 l 671 515 q 658 644 671 588 q 621 738 646 700 q 561 795 597 776 q 480 814 526 814 q 397 795 433 814 q 338 738 362 776 q 303 644 315 700 q 291 515 291 588 l 291 473 q 303 345 291 401 q 339 250 315 289 q 398 192 363 212 q 481 172 434 172 q 562 192 527 172 q 622 250 597 212 q 658 345 646 289 q 671 473 671 401 z "},"R":{"ha":906,"x_min":75,"x_max":871,"o":"m 75 987 l 464 987 q 662 954 578 987 q 792 853 746 920 q 838 689 838 787 q 811 547 838 604 q 738 453 785 490 q 628 393 690 416 l 550 349 l 224 349 l 222 532 l 464 532 q 539 549 509 532 q 584 595 569 565 q 600 667 600 625 q 584 741 600 710 q 538 787 568 771 q 464 804 508 804 l 313 804 l 313 0 l 75 0 l 75 987 m 616 0 l 397 437 l 650 438 l 871 10 l 871 0 l 616 0 z "},"S":{"ha":869,"x_min":43,"x_max":822,"o":"m 584 262 q 577 304 584 286 q 552 339 570 323 q 499 372 534 355 q 410 407 465 389 q 284 456 345 429 q 176 520 224 484 q 101 607 129 557 q 73 724 73 657 q 102 839 73 787 q 181 926 130 890 q 302 982 233 962 q 453 1001 371 1001 q 645 963 562 1001 q 775 857 728 926 q 822 694 822 788 l 585 694 q 570 760 585 732 q 524 805 555 789 q 448 821 494 821 q 372 808 403 821 q 326 771 342 794 q 311 722 311 749 q 323 681 311 699 q 359 648 336 663 q 416 618 382 632 q 492 590 450 604 q 632 534 570 565 q 735 464 693 503 q 800 376 778 425 q 822 264 822 326 q 796 146 822 197 q 722 59 770 94 q 607 5 674 23 q 457 -14 540 -14 q 308 6 381 -14 q 174 65 234 25 q 79 169 115 106 q 43 320 43 233 l 282 320 q 294 247 282 277 q 328 199 305 217 q 382 173 350 181 q 457 165 415 165 q 530 179 503 165 q 571 214 558 192 q 584 262 584 236 z "},"T":{"ha":876,"x_min":25,"x_max":850,"o":"m 553 987 l 553 0 l 315 0 l 315 987 l 553 987 m 850 987 l 850 804 l 25 804 l 25 987 l 850 987 z "},"U":{"ha":923,"x_min":72,"x_max":849,"o":"m 611 987 l 849 987 l 849 342 q 801 148 849 227 q 666 27 753 68 q 462 -14 579 -14 q 258 27 346 -14 q 121 148 170 68 q 72 342 72 227 l 72 987 l 311 987 l 311 342 q 328 243 311 281 q 380 187 346 205 q 462 170 414 170 q 544 187 511 170 q 594 243 577 205 q 611 342 611 281 l 611 987 z "},"V":{"ha":918,"x_min":-3,"x_max":921,"o":"m 449 233 l 654 987 l 921 987 l 588 0 l 416 0 l 449 233 m 262 987 l 468 233 l 503 0 l 328 0 l -3 987 l 262 987 z "},"W":{"ha":1207,"x_min":15,"x_max":1189,"o":"m 303 90 l 500 987 l 617 987 l 681 911 l 471 0 l 342 0 l 303 90 m 251 987 l 417 83 l 374 0 l 224 0 l 15 987 l 251 987 m 789 87 l 954 987 l 1189 987 l 979 0 l 830 0 l 789 87 m 702 987 l 903 84 l 863 0 l 733 0 l 519 912 l 585 987 l 702 987 z "},"X":{"ha":887,"x_min":3,"x_max":884,"o":"m 282 987 l 444 659 l 605 987 l 876 987 l 601 498 l 884 0 l 610 0 l 444 334 l 277 0 l 3 0 l 286 498 l 10 987 l 282 987 z "},"Y":{"ha":872,"x_min":-3,"x_max":875,"o":"m 254 987 l 436 559 l 618 987 l 875 987 l 557 355 l 557 0 l 315 0 l 315 355 l -3 987 l 254 987 z "},"Z":{"ha":848,"x_min":42,"x_max":814,"o":"m 814 183 l 814 0 l 100 0 l 100 183 l 814 183 m 810 865 l 218 0 l 45 0 l 45 125 l 644 987 l 810 987 l 810 865 m 733 987 l 733 804 l 42 804 l 42 987 l 733 987 z "},"[":{"ha":392,"x_min":73,"x_max":383,"o":"m 383 1157 l 383 990 l 303 990 l 303 -71 l 383 -71 l 383 -237 l 73 -237 l 73 1157 l 383 1157 z "},"\\":{"ha":593,"x_min":-14,"x_max":637,"o":"m 397 -85 l -14 987 l 225 987 l 637 -85 l 397 -85 z "},"]":{"ha":392,"x_min":9,"x_max":319,"o":"m 9 990 l 9 1157 l 319 1157 l 319 -237 l 9 -237 l 9 -71 l 91 -71 l 91 990 l 9 990 z "},"^":{"ha":622,"x_min":24,"x_max":600,"o":"m 317 814 l 197 494 l 24 494 l 227 987 l 355 987 l 317 814 m 427 494 l 307 814 l 269 987 l 397 987 l 600 494 l 427 494 z "},"_":{"ha":614,"x_min":-1,"x_max":612,"o":"m 612 0 l 612 -170 l -1 -170 l -1 0 l 612 0 z "},"`":{"ha":472,"x_min":37,"x_max":414,"o":"m 279 1042 l 414 829 l 229 829 l 37 1042 l 279 1042 z "},"a":{"ha":738,"x_min":31,"x_max":707,"o":"m 446 184 l 446 487 q 437 541 446 518 q 409 575 428 563 q 358 588 390 588 q 314 579 332 588 q 286 553 296 570 q 277 508 277 535 l 48 508 q 71 603 48 559 q 136 679 94 646 q 238 729 178 711 q 370 747 297 747 q 527 718 458 747 q 635 631 595 689 q 675 486 675 573 l 675 185 q 684 76 675 113 q 707 12 692 39 l 707 0 l 477 0 q 453 83 461 34 q 446 184 446 132 m 473 448 l 475 326 l 374 326 q 320 317 342 326 q 284 293 298 309 q 266 259 271 278 q 260 219 260 240 q 270 183 260 199 q 296 158 279 167 q 334 149 313 149 q 399 164 372 149 q 440 199 426 178 q 454 239 454 220 l 505 145 q 474 90 491 118 q 431 39 456 62 q 369 1 406 16 q 280 -14 332 -14 q 156 14 212 -14 q 65 92 99 42 q 31 207 31 142 q 52 309 31 264 q 115 385 73 353 q 222 432 157 416 q 375 448 287 448 l 473 448 z "},"b":{"ha":782,"x_min":66,"x_max":745,"o":"m 66 1042 l 295 1042 l 295 180 l 271 0 l 66 0 l 66 1042 m 745 375 l 745 361 q 728 209 745 277 q 676 91 711 140 q 587 14 641 41 q 460 -14 534 -14 q 347 15 394 -14 q 267 95 299 44 q 216 214 235 146 q 184 359 196 281 l 184 376 q 216 520 196 452 q 267 638 235 587 q 346 719 299 690 q 459 747 393 747 q 587 720 533 747 q 676 642 641 692 q 728 524 711 591 q 745 375 745 456 m 517 361 l 517 375 q 512 450 517 415 q 495 513 507 486 q 460 555 483 540 q 402 571 438 571 q 341 559 366 571 q 301 524 316 547 q 281 468 287 501 q 275 394 275 435 l 275 340 q 286 244 274 284 q 326 183 297 204 q 404 162 354 162 q 463 176 440 162 q 497 217 486 191 q 513 280 509 243 q 517 361 517 317 z "},"c":{"ha":722,"x_min":36,"x_max":690,"o":"m 374 163 q 429 175 406 163 q 464 209 452 186 q 475 262 475 231 l 690 262 q 649 117 690 179 q 538 21 608 55 q 380 -14 468 -14 q 229 15 294 -14 q 122 93 165 43 q 57 212 79 144 q 36 359 36 279 l 36 374 q 57 522 36 454 q 122 641 79 590 q 229 719 165 691 q 378 747 293 747 q 540 713 470 747 q 650 612 610 678 q 690 453 690 547 l 475 453 q 465 513 475 486 q 431 555 454 539 q 373 571 408 571 q 316 555 338 571 q 283 512 294 540 q 268 450 272 485 q 264 374 264 414 l 264 359 q 268 282 264 318 q 283 220 272 247 q 317 178 295 193 q 374 163 338 163 z "},"d":{"ha":781,"x_min":36,"x_max":716,"o":"m 486 168 l 486 1042 l 716 1042 l 716 0 l 510 0 l 486 168 m 36 358 l 36 372 q 54 525 36 456 q 109 643 73 593 q 198 720 144 693 q 321 747 252 747 q 431 719 384 747 q 511 638 477 690 q 565 518 544 587 q 597 370 586 449 l 597 353 q 565 212 586 278 q 511 95 544 146 q 430 15 477 44 q 320 -14 383 -14 q 197 14 250 -14 q 108 92 144 42 q 54 210 73 142 q 36 358 36 278 m 264 372 l 264 358 q 270 281 264 317 q 289 219 275 246 q 324 178 302 193 q 378 163 346 163 q 451 184 422 163 q 494 243 480 205 q 506 334 508 282 l 506 388 q 500 467 507 433 q 476 524 492 501 q 436 559 460 547 q 380 571 412 571 q 326 556 348 571 q 290 514 304 541 q 271 451 277 488 q 264 372 264 415 z "},"e":{"ha":757,"x_min":41,"x_max":728,"o":"m 420 -14 q 260 15 330 -14 q 141 92 189 43 q 67 206 92 142 q 41 342 41 271 l 41 368 q 64 518 41 449 q 130 638 86 587 q 241 719 174 690 q 395 747 307 747 q 535 722 473 747 q 640 650 597 697 q 706 537 683 604 q 728 388 728 471 l 728 295 l 129 295 l 129 438 l 505 438 l 505 456 q 493 518 506 492 q 454 557 479 544 q 393 571 429 571 q 332 555 356 571 q 295 510 308 538 q 276 446 281 482 q 271 368 271 409 l 271 342 q 282 269 271 302 q 314 212 293 235 q 366 176 336 189 q 435 163 396 163 q 527 180 481 163 q 605 239 572 198 l 709 115 q 645 54 686 83 q 547 5 604 24 q 420 -14 490 -14 z "},"f":{"ha":504,"x_min":9,"x_max":505,"o":"m 345 0 l 115 0 l 115 793 q 149 937 115 879 q 247 1026 184 996 q 396 1056 310 1056 q 452 1052 426 1056 q 504 1042 479 1048 l 505 873 q 479 878 492 877 q 448 880 467 880 q 391 870 414 880 q 356 841 368 860 q 345 793 345 821 l 345 0 m 487 734 l 487 575 l 9 575 l 9 734 l 487 734 z "},"g":{"ha":800,"x_min":38,"x_max":733,"o":"m 526 734 l 733 734 l 733 28 q 686 -144 733 -73 q 556 -252 640 -215 q 360 -289 472 -289 q 259 -276 311 -289 q 163 -239 208 -264 q 87 -179 118 -215 l 183 -45 q 253 -98 211 -76 q 352 -120 295 -120 q 435 -102 401 -120 q 486 -51 469 -85 q 504 30 504 -18 l 504 560 l 526 734 m 38 358 l 38 372 q 59 525 38 456 q 118 643 79 593 q 213 720 157 693 q 338 747 269 747 q 462 719 414 747 q 540 638 511 690 q 586 518 570 587 q 614 370 603 449 l 614 353 q 583 212 603 278 q 531 95 563 146 q 451 15 499 44 q 337 -14 404 -14 q 213 14 268 -14 q 118 92 157 42 q 59 210 79 142 q 38 358 38 278 m 267 372 l 267 358 q 274 281 267 317 q 298 219 282 246 q 339 178 315 193 q 395 163 363 163 q 475 184 445 163 q 519 243 506 205 q 531 334 533 282 l 531 388 q 525 467 532 433 q 502 524 517 501 q 459 559 486 547 q 397 571 433 571 q 340 556 365 571 q 300 514 316 541 q 275 451 283 488 q 267 372 267 415 z "},"h":{"ha":784,"x_min":60,"x_max":722,"o":"m 288 1042 l 288 0 l 60 0 l 60 1042 l 288 1042 m 261 392 l 208 391 q 227 533 208 468 q 281 646 245 598 q 366 721 316 694 q 475 747 415 747 q 575 732 530 747 q 653 682 620 716 q 704 591 686 647 q 722 456 722 536 l 722 0 l 492 0 l 492 457 q 479 527 492 502 q 444 561 467 551 q 387 571 420 571 q 322 557 347 571 q 284 520 297 544 q 266 463 271 496 q 261 392 261 431 z "},"i":{"ha":382,"x_min":63,"x_max":317,"o":"m 306 734 l 306 0 l 77 0 l 77 734 l 306 734 m 63 923 q 98 1003 63 972 q 190 1034 134 1034 q 281 1003 246 1034 q 317 923 317 972 q 281 843 317 874 q 190 812 246 812 q 98 843 134 812 q 63 923 63 874 z "},"j":{"ha":376,"x_min":-79,"x_max":318,"o":"m 81 734 l 311 734 l 311 -24 q 277 -173 311 -112 q 180 -265 243 -233 q 29 -296 117 -296 q -25 -294 0 -296 q -79 -285 -50 -292 l -79 -112 q -47 -116 -62 -115 q -14 -118 -32 -118 q 38 -108 17 -118 q 70 -77 59 -98 q 81 -24 81 -56 l 81 734 m 64 923 q 100 1003 64 972 q 191 1034 135 1034 q 283 1003 248 1034 q 318 923 318 972 q 283 843 318 874 q 191 812 248 812 q 100 843 135 812 q 64 923 64 874 z "},"k":{"ha":760,"x_min":66,"x_max":781,"o":"m 295 1042 l 295 0 l 66 0 l 66 1042 l 295 1042 m 764 734 l 446 360 l 279 193 l 179 338 l 318 519 l 490 734 l 764 734 m 519 0 l 323 334 l 492 454 l 781 0 l 519 0 z "},"l":{"ha":382,"x_min":77,"x_max":306,"o":"m 306 1042 l 306 0 l 77 0 l 77 1042 l 306 1042 z "},"m":{"ha":1196,"x_min":66,"x_max":1130,"o":"m 295 578 l 295 0 l 66 0 l 66 734 l 281 734 l 295 578 m 267 392 l 215 391 q 233 533 215 468 q 288 646 252 598 q 376 721 323 694 q 498 747 429 747 q 585 733 546 747 q 653 687 625 718 q 697 607 682 656 q 712 490 712 558 l 712 0 l 484 0 l 484 460 q 473 531 484 507 q 443 563 463 555 q 395 571 423 571 q 341 557 365 571 q 301 520 317 544 q 276 463 284 496 q 267 392 267 431 m 686 392 l 623 391 q 640 533 623 468 q 692 646 657 598 q 779 721 727 694 q 901 747 831 747 q 993 732 951 747 q 1065 684 1035 718 q 1113 596 1096 651 q 1130 462 1130 542 l 1130 0 l 901 0 l 901 462 q 890 531 901 507 q 860 563 880 554 q 813 571 840 571 q 757 557 781 571 q 717 520 733 544 q 694 463 701 496 q 686 392 686 431 z "},"n":{"ha":784,"x_min":60,"x_max":722,"o":"m 289 577 l 289 0 l 60 0 l 60 734 l 275 734 l 289 577 m 262 392 l 208 391 q 229 541 208 475 q 286 653 249 607 q 375 723 323 699 q 491 747 427 747 q 584 732 542 747 q 657 684 627 718 q 705 596 688 651 q 722 462 722 542 l 722 0 l 492 0 l 492 463 q 479 530 492 507 q 444 562 467 553 q 388 571 421 571 q 328 557 353 571 q 289 520 304 544 q 268 463 275 496 q 262 392 262 431 z "},"o":{"ha":781,"x_min":36,"x_max":744,"o":"m 36 359 l 36 374 q 59 523 36 454 q 127 641 82 591 q 237 719 172 691 q 389 747 303 747 q 542 719 476 747 q 653 641 608 691 q 721 523 698 591 q 744 374 744 454 l 744 359 q 721 211 744 279 q 653 93 698 143 q 543 14 608 42 q 391 -14 477 -14 q 238 14 304 -14 q 127 93 172 42 q 59 211 82 143 q 36 359 36 279 m 264 374 l 264 359 q 271 282 264 318 q 291 219 277 246 q 330 178 305 193 q 391 163 354 163 q 451 178 427 163 q 489 219 475 193 q 509 282 503 246 q 515 359 515 318 l 515 374 q 509 449 515 414 q 489 512 503 485 q 450 555 475 540 q 389 571 426 571 q 329 555 353 571 q 291 512 305 540 q 271 449 277 485 q 264 374 264 414 z "},"p":{"ha":782,"x_min":66,"x_max":745,"o":"m 295 593 l 295 -282 l 66 -282 l 66 734 l 279 734 l 295 593 m 745 376 l 745 361 q 727 213 745 281 q 673 94 709 144 q 584 15 637 43 q 460 -14 530 -14 q 347 16 395 -14 q 268 96 300 45 q 216 214 236 148 q 185 355 197 281 l 185 373 q 216 520 197 452 q 268 640 236 589 q 347 719 300 690 q 460 747 394 747 q 583 721 530 747 q 672 645 636 694 q 727 528 709 596 q 745 376 745 459 m 517 361 l 517 376 q 511 454 517 418 q 491 516 505 490 q 456 557 478 543 q 403 571 435 571 q 341 560 366 571 q 302 526 317 549 q 282 470 288 503 q 277 391 276 436 l 277 336 q 287 245 275 284 q 327 184 298 206 q 404 163 355 163 q 458 178 437 163 q 493 221 480 193 q 511 284 506 248 q 517 361 517 320 z "},"q":{"ha":781,"x_min":36,"x_max":716,"o":"m 486 -282 l 486 580 l 518 734 l 716 734 l 716 -282 l 486 -282 m 36 360 l 36 374 q 54 527 36 458 q 109 645 73 595 q 198 721 144 694 q 321 747 251 747 q 434 719 387 747 q 513 639 481 690 q 565 519 545 588 q 596 372 585 451 l 596 355 q 565 214 585 280 q 513 96 545 147 q 433 16 481 45 q 319 -14 386 -14 q 197 15 250 -14 q 109 93 144 43 q 54 212 73 144 q 36 360 36 280 m 264 374 l 264 360 q 270 283 264 319 q 289 220 275 248 q 323 178 302 193 q 378 163 345 163 q 456 184 427 163 q 496 245 484 206 q 505 336 507 284 l 505 390 q 500 469 506 435 q 479 525 494 503 q 440 559 465 548 q 379 571 416 571 q 325 556 347 571 q 290 515 303 542 q 271 453 277 489 q 264 374 264 417 z "},"r":{"ha":526,"x_min":66,"x_max":512,"o":"m 295 552 l 295 0 l 66 0 l 66 734 l 280 734 l 295 552 m 512 739 l 508 527 q 471 530 494 528 q 433 532 448 532 q 364 523 393 532 q 316 496 335 514 q 289 451 298 478 q 281 388 281 424 l 240 415 q 255 550 240 489 q 296 655 269 610 q 362 723 323 699 q 449 747 401 747 q 483 745 466 747 q 512 739 499 743 z "},"s":{"ha":712,"x_min":24,"x_max":670,"o":"m 449 206 q 436 239 449 225 q 393 265 424 253 q 305 289 361 277 q 204 319 252 300 q 122 366 157 338 q 67 430 87 393 q 47 515 47 467 q 67 604 47 562 q 126 678 87 646 q 221 729 165 710 q 349 747 277 747 q 520 717 448 747 q 631 633 592 687 q 670 509 670 579 l 441 509 q 432 556 441 536 q 403 586 423 576 q 349 597 382 597 q 306 588 325 597 q 275 564 286 579 q 263 527 263 548 q 270 500 263 512 q 292 478 277 488 q 330 461 307 469 q 386 447 353 453 q 524 408 460 433 q 629 337 589 383 q 669 213 669 291 q 647 123 669 164 q 583 51 625 82 q 481 3 541 20 q 349 -14 422 -14 q 171 24 243 -14 q 61 119 98 62 q 24 235 24 176 l 237 235 q 254 180 239 201 q 295 148 269 158 q 355 138 321 138 q 407 146 386 138 q 438 171 427 155 q 449 206 449 186 z "},"t":{"ha":477,"x_min":9,"x_max":462,"o":"m 451 734 l 451 575 l 9 575 l 9 734 l 451 734 m 102 916 l 330 916 l 330 239 q 337 194 330 210 q 360 172 344 178 q 405 165 377 165 q 437 166 425 165 q 462 170 450 168 l 462 6 q 401 -8 433 -3 q 333 -14 369 -14 q 208 9 260 -14 q 129 82 156 33 q 102 211 102 132 l 102 916 z "},"u":{"ha":784,"x_min":60,"x_max":722,"o":"m 493 178 l 493 734 l 722 734 l 722 0 l 508 0 l 493 178 m 515 328 l 574 329 q 557 192 574 255 q 505 83 539 130 q 421 12 471 37 q 306 -14 371 -14 q 207 2 252 -14 q 129 50 161 17 q 78 135 96 83 q 60 259 60 186 l 60 734 l 289 734 l 289 258 q 295 216 289 233 q 313 186 301 198 q 341 169 324 174 q 381 163 359 163 q 462 184 433 163 q 503 243 491 206 q 515 328 515 281 z "},"v":{"ha":718,"x_min":2,"x_max":714,"o":"m 329 157 l 473 734 l 714 734 l 474 0 l 332 0 l 329 157 m 243 734 l 386 157 l 385 0 l 241 0 l 2 734 l 243 734 z "},"w":{"ha":1008,"x_min":15,"x_max":991,"o":"m 288 218 l 423 734 l 566 734 l 515 475 l 381 0 l 267 0 l 288 218 m 234 734 l 318 222 l 328 0 l 189 0 l 15 734 l 234 734 m 687 233 l 772 734 l 991 734 l 819 0 l 680 0 l 687 233 m 583 734 l 720 220 l 741 0 l 625 0 l 493 474 l 444 734 l 583 734 z "},"x":{"ha":715,"x_min":8,"x_max":715,"o":"m 258 734 l 361 532 l 468 734 l 705 734 l 513 376 l 715 0 l 476 0 l 361 217 l 248 0 l 8 0 l 211 376 l 19 734 l 258 734 z "},"y":{"ha":720,"x_min":-3,"x_max":725,"o":"m 290 86 l 479 734 l 725 734 l 430 -109 q 405 -169 420 -137 q 362 -231 389 -201 q 293 -278 335 -260 q 188 -296 250 -296 q 139 -293 155 -296 q 93 -283 124 -290 l 93 -119 q 108 -119 102 -119 q 123 -119 115 -119 q 181 -112 159 -119 q 215 -90 203 -104 q 234 -56 227 -76 l 290 86 m 241 734 l 386 220 l 411 -22 l 258 -22 l -3 734 l 241 734 z "},"z":{"ha":715,"x_min":45,"x_max":668,"o":"m 668 176 l 668 0 l 100 0 l 100 176 l 668 176 m 661 610 l 202 0 l 45 0 l 45 127 l 504 734 l 661 734 l 661 610 m 586 734 l 586 557 l 59 557 l 59 734 l 586 734 z "},"{":{"ha":452,"x_min":28,"x_max":425,"o":"m 381 1083 l 425 964 q 354 890 372 943 q 336 768 336 837 l 336 630 q 304 506 336 562 q 205 417 273 450 q 28 384 137 384 l 28 496 q 112 533 86 496 q 137 630 137 569 l 137 768 q 159 901 137 839 q 235 1010 181 963 q 381 1083 288 1057 m 425 -124 l 381 -244 q 235 -171 288 -218 q 159 -61 181 -123 q 137 72 137 1 l 137 210 q 126 280 137 250 q 91 326 115 310 q 28 342 66 342 l 28 456 q 205 423 137 456 q 304 334 273 390 q 336 210 336 279 l 336 72 q 343 -14 336 26 q 371 -81 351 -53 q 425 -124 390 -110 z "},"|":{"ha":355,"x_min":117,"x_max":241,"o":"m 241 987 l 241 -183 l 117 -183 l 117 987 l 241 987 z "},"}":{"ha":452,"x_min":28,"x_max":425,"o":"m 28 964 l 71 1083 q 218 1010 165 1057 q 293 901 271 963 q 315 768 315 839 l 315 630 q 327 559 315 589 q 362 513 338 530 q 425 496 387 496 l 425 385 q 248 417 316 385 q 148 506 180 450 q 117 630 117 562 l 117 768 q 109 853 117 814 q 82 921 102 892 q 28 964 63 950 m 71 -244 l 28 -124 q 82 -81 63 -110 q 109 -14 102 -53 q 117 72 117 26 l 117 210 q 148 334 117 279 q 248 422 180 390 q 425 455 316 455 l 425 342 q 341 306 367 342 q 315 210 315 270 l 315 72 q 293 -61 315 1 q 218 -171 271 -123 q 71 -244 165 -218 z "},"~":{"ha":878,"x_min":64,"x_max":812,"o":"m 649 543 l 812 542 q 796 419 812 473 q 749 327 779 365 q 677 269 719 289 q 585 249 635 249 q 491 270 532 249 q 403 337 450 291 q 354 377 377 363 q 304 391 330 391 q 264 375 281 391 q 236 333 246 359 q 226 275 226 307 l 64 277 q 80 400 64 347 q 126 491 96 454 q 198 548 157 528 q 290 567 239 567 q 386 545 342 567 q 474 479 431 524 q 523 439 500 453 q 570 426 546 426 q 611 441 593 426 q 639 484 629 457 q 649 543 649 510 z "},"¡":{"ha":418,"x_min":83,"x_max":337,"o":"m 87 -252 l 116 422 l 302 422 l 331 -252 l 87 -252 m 337 633 q 302 551 337 584 q 210 518 267 518 q 119 551 154 518 q 83 633 83 584 q 119 714 83 682 q 210 747 154 747 q 302 714 267 747 q 337 633 337 682 z "},"¢":{"ha":821,"x_min":67,"x_max":722,"o":"m 482 894 l 482 696 l 347 696 l 347 894 l 482 894 m 482 31 l 482 -166 l 347 -166 l 347 31 l 482 31 m 406 163 q 460 175 437 163 q 495 209 483 186 q 506 262 507 231 l 721 262 q 681 117 722 179 q 569 21 640 55 q 411 -14 499 -14 q 260 15 325 -14 q 153 93 196 43 q 89 212 110 144 q 67 359 67 279 l 67 374 q 89 522 67 454 q 153 641 110 590 q 260 719 196 691 q 410 747 324 747 q 571 713 501 747 q 682 612 642 678 q 721 453 722 547 l 506 453 q 496 513 507 486 q 462 555 485 539 q 404 571 439 571 q 347 555 369 571 q 314 512 326 540 q 299 450 303 485 q 296 374 296 414 l 296 359 q 299 282 296 318 q 315 220 303 247 q 348 178 326 193 q 406 163 370 163 z "},"£":{"ha":834,"x_min":70,"x_max":800,"o":"m 798 0 l 72 0 l 72 183 l 797 183 l 798 0 m 623 380 l 70 380 l 70 557 l 623 557 l 623 380 m 408 705 l 425 304 q 393 192 425 236 q 276 116 360 148 l 142 183 q 171 204 163 189 q 181 241 180 219 q 183 289 183 264 l 171 705 q 209 864 171 798 q 316 965 247 930 q 479 1000 385 1000 q 655 964 583 1000 q 763 863 726 928 q 800 711 800 798 l 577 711 q 565 774 577 751 q 531 807 552 798 q 485 817 511 817 q 444 805 462 817 q 417 768 427 793 q 408 705 408 743 z "},"¤":{"ha":948,"x_min":47,"x_max":905,"o":"m 197 412 q 218 296 197 350 q 278 202 239 242 q 367 140 316 162 q 475 117 417 117 q 583 140 532 117 q 671 202 633 162 q 730 296 709 242 q 752 412 752 350 q 730 528 752 475 q 671 622 709 582 q 583 684 633 662 q 475 707 532 707 q 367 684 417 707 q 278 622 316 662 q 218 528 239 582 q 197 412 197 475 m 71 412 q 102 580 71 503 q 189 715 134 657 q 318 805 245 772 q 475 837 391 837 q 631 805 558 837 q 760 715 704 772 q 846 580 815 657 q 878 412 878 503 q 846 245 878 322 q 760 110 815 168 q 631 19 704 52 q 475 -14 558 -14 q 318 19 391 -14 q 189 110 245 52 q 102 245 134 168 q 71 412 71 322 m 905 760 l 768 620 l 673 718 l 809 858 l 905 760 m 279 122 l 142 -18 l 47 80 l 184 219 l 279 122 m 809 -18 l 673 121 l 768 219 l 905 80 l 809 -18 m 184 620 l 47 760 l 142 857 l 279 718 l 184 620 z "},"¥":{"ha":751,"x_min":7,"x_max":745,"o":"m 677 503 l 677 374 l 50 374 l 50 503 l 677 503 m 677 307 l 677 178 l 50 178 l 50 307 l 677 307 m 326 494 l 503 987 l 745 987 l 479 366 l 353 366 l 326 494 m 249 987 l 429 488 l 400 366 l 273 366 l 7 987 l 249 987 m 492 510 l 492 0 l 255 0 l 255 510 l 492 510 z "},"¦":{"ha":356,"x_min":81,"x_max":279,"o":"m 279 -183 l 81 -183 l 81 356 l 279 356 l 279 -183 m 279 987 l 279 473 l 81 473 l 81 987 l 279 987 z "},"§":{"ha":883,"x_min":64,"x_max":811,"o":"m 452 102 l 452 204 q 525 218 495 204 q 570 257 555 232 q 586 313 586 281 q 577 351 586 334 q 548 383 568 368 q 493 412 528 397 q 405 442 458 426 q 267 489 328 464 q 163 547 206 513 q 98 627 121 581 q 75 739 75 673 q 101 847 75 799 q 174 930 126 895 q 288 983 222 964 q 437 1001 355 1001 q 630 968 549 1001 q 754 870 711 935 q 798 713 798 806 l 569 713 q 554 770 569 745 q 511 810 540 795 q 437 825 481 825 q 361 813 390 825 q 318 783 332 802 q 304 741 304 764 q 312 704 304 720 q 338 675 319 688 q 392 650 357 663 q 481 624 427 638 q 621 580 559 604 q 725 523 682 555 q 789 445 767 490 q 811 339 811 399 q 786 236 811 280 q 713 162 760 191 q 600 117 666 132 q 452 102 534 102 m 412 595 l 412 492 q 343 478 370 492 q 304 440 317 464 q 292 385 292 416 q 300 344 292 361 q 326 313 307 327 q 380 286 345 299 q 469 255 414 272 q 610 210 548 234 q 714 152 671 185 q 778 72 756 119 q 800 -41 800 24 q 774 -151 800 -103 q 701 -231 749 -199 q 588 -280 654 -263 q 440 -296 522 -296 q 302 -283 370 -296 q 182 -238 235 -269 q 96 -152 128 -206 q 64 -17 64 -98 l 293 -17 q 306 -70 293 -50 q 339 -101 318 -90 q 387 -115 360 -111 q 440 -119 413 -119 q 512 -110 484 -119 q 556 -84 541 -101 q 571 -42 571 -66 q 563 -8 571 -23 q 534 20 554 7 q 479 46 514 33 q 393 74 445 59 q 255 119 316 94 q 151 176 194 143 q 86 253 109 208 q 64 358 64 298 q 89 460 64 416 q 159 534 113 504 q 269 580 205 564 q 412 595 333 595 z "},"¨":{"ha":687,"x_min":64,"x_max":621,"o":"m 64 926 q 95 990 64 964 q 167 1016 125 1016 q 239 990 209 1016 q 269 926 269 964 q 239 862 269 888 q 167 836 209 836 q 95 862 125 836 q 64 926 64 888 m 416 926 q 447 990 416 964 q 519 1016 477 1016 q 591 990 561 1016 q 621 926 621 964 q 591 862 621 888 q 519 836 561 836 q 447 862 477 836 q 416 926 416 888 z "},"©":{"ha":1091,"x_min":58,"x_max":1021,"o":"m 652 404 l 758 404 q 696 244 758 298 q 530 191 635 191 q 405 224 458 191 q 322 317 351 258 q 294 454 294 376 l 294 534 q 322 671 294 612 q 405 764 351 730 q 530 797 458 797 q 697 744 635 797 q 758 584 758 690 l 652 584 q 622 677 652 649 q 530 705 591 705 q 458 684 487 705 q 414 624 429 662 q 399 535 399 585 l 399 454 q 414 365 399 404 q 458 304 429 326 q 530 283 487 283 q 621 311 591 283 q 652 404 652 338 m 141 494 q 172 328 141 405 q 258 193 203 251 q 385 103 313 136 q 540 71 457 71 q 694 103 623 71 q 821 193 766 136 q 907 328 876 251 q 938 494 938 405 q 907 661 938 584 q 821 795 876 738 q 694 884 766 852 q 540 916 623 916 q 385 884 457 916 q 258 795 313 852 q 172 661 203 738 q 141 494 141 584 m 58 494 q 96 694 58 602 q 199 856 133 787 q 353 963 266 924 q 540 1001 440 1001 q 727 963 640 1001 q 880 856 814 924 q 984 694 946 787 q 1021 494 1021 602 q 984 294 1021 387 q 880 133 946 202 q 727 25 814 64 q 540 -14 640 -14 q 353 25 440 -14 q 199 133 266 64 q 96 294 133 202 q 58 494 58 387 z "},"ª":{"ha":614,"x_min":91,"x_max":528,"o":"m 391 584 l 391 814 q 383 862 391 842 q 357 891 374 881 q 313 901 339 901 q 244 883 269 901 q 219 833 219 866 l 102 843 q 128 925 102 889 q 201 981 154 960 q 313 1001 249 1001 q 416 980 372 1001 q 485 918 460 959 q 510 814 510 876 l 510 601 q 514 538 510 568 q 528 478 518 508 l 408 478 q 391 584 391 526 m 420 780 l 421 701 l 323 701 q 258 690 283 701 q 221 663 233 680 q 210 626 210 646 q 229 582 210 598 q 289 566 248 566 q 345 579 317 566 q 392 610 373 591 q 412 644 412 628 l 424 565 q 393 521 414 543 q 339 484 372 498 q 260 469 306 469 q 135 511 178 469 q 91 623 91 553 q 116 708 91 673 q 193 762 142 743 q 322 780 244 780 l 420 780 z "},"«":{"ha":715,"x_min":43,"x_max":649,"o":"m 368 621 l 209 347 l 43 347 l 43 356 l 229 621 l 368 621 m 209 353 l 368 79 l 229 79 l 43 343 l 43 352 l 209 353 m 649 621 l 490 347 l 324 347 l 324 356 l 509 621 l 649 621 m 490 353 l 649 79 l 509 79 l 324 343 l 324 352 l 490 353 z "},"¬":{"ha":763,"x_min":85,"x_max":652,"o":"m 652 546 l 652 430 l 85 430 l 85 546 l 652 546 m 652 494 l 652 254 l 516 254 l 516 494 l 652 494 z "},"®":{"ha":1091,"x_min":58,"x_max":1021,"o":"m 556 443 l 411 443 l 410 534 l 528 534 q 588 543 561 534 q 632 569 616 551 q 649 612 649 587 q 638 665 649 646 q 601 692 627 684 q 530 701 574 701 l 442 701 l 442 214 l 340 214 l 340 791 l 530 791 q 647 770 597 791 q 724 710 696 750 q 751 612 751 670 q 733 547 751 575 q 683 499 716 519 q 602 467 650 479 q 598 462 600 467 q 593 457 595 457 q 579 447 582 450 q 573 444 576 444 q 556 443 570 443 m 549 443 l 564 521 q 709 472 670 521 q 749 349 749 424 l 749 311 q 751 263 749 286 q 760 225 753 241 l 760 214 l 655 214 q 647 264 648 232 q 646 312 646 297 l 646 349 q 624 420 646 397 q 549 443 602 443 m 141 494 q 172 328 141 405 q 258 193 203 251 q 385 103 313 136 q 540 71 457 71 q 694 103 623 71 q 821 193 766 136 q 907 328 876 251 q 938 494 938 405 q 907 661 938 584 q 821 795 876 738 q 694 884 766 852 q 540 916 623 916 q 385 884 457 916 q 258 795 313 852 q 172 661 203 738 q 141 494 141 584 m 58 494 q 96 694 58 602 q 199 856 133 787 q 353 963 266 924 q 540 1001 440 1001 q 727 963 640 1001 q 880 856 814 924 q 984 694 946 787 q 1021 494 1021 602 q 984 294 1021 387 q 880 133 946 202 q 727 25 814 64 q 540 -14 640 -14 q 353 25 440 -14 q 199 133 266 64 q 96 294 133 202 q 58 494 58 387 z "},"¯":{"ha":723,"x_min":123,"x_max":593,"o":"m 593 989 l 593 871 l 123 871 l 123 989 l 593 989 z "},"°":{"ha":552,"x_min":85,"x_max":463,"o":"m 85 810 q 111 906 85 863 q 180 975 137 949 q 275 1001 224 1001 q 369 975 327 1001 q 437 906 412 949 q 463 810 463 863 q 437 715 463 758 q 369 648 412 673 q 275 623 327 623 q 180 648 224 623 q 111 715 137 673 q 85 810 85 758 m 190 810 q 215 750 190 774 q 275 726 241 726 q 334 750 310 726 q 357 810 357 774 q 334 872 357 848 q 275 897 310 897 q 215 872 241 897 q 190 810 190 848 z "},"±":{"ha":748,"x_min":57,"x_max":678,"o":"m 678 661 l 678 477 l 57 477 l 57 661 l 678 661 m 467 877 l 467 241 l 268 241 l 268 877 l 467 877 m 665 180 l 665 1 l 68 1 l 68 180 l 665 180 z "},"²":{"ha":521,"x_min":35,"x_max":473,"o":"m 473 571 l 473 452 l 47 452 l 47 552 l 241 724 q 278 764 264 744 q 300 800 293 783 q 308 825 308 816 q 294 862 308 848 q 251 876 280 876 q 204 855 220 876 q 188 806 188 833 l 35 806 q 61 901 35 858 q 133 970 86 944 q 243 996 180 996 q 361 976 313 996 q 434 918 409 956 q 460 825 460 880 q 444 752 460 784 q 393 688 427 720 q 304 617 359 657 l 250 571 l 473 571 z "},"³":{"ha":521,"x_min":28,"x_max":479,"o":"m 188 774 l 250 774 q 287 781 273 774 q 309 800 302 787 q 317 829 317 812 q 303 861 317 845 q 252 876 289 876 q 210 867 228 876 q 191 842 191 859 l 39 842 q 69 927 39 893 q 146 979 98 962 q 246 996 193 996 q 362 978 312 996 q 440 926 412 960 q 469 842 469 892 q 441 769 469 798 q 370 725 414 740 q 274 711 326 711 l 188 711 l 188 774 m 188 677 l 188 738 l 274 738 q 376 727 330 738 q 451 686 422 715 q 479 603 479 657 q 448 517 479 553 q 365 464 417 482 q 246 445 312 445 q 146 461 197 445 q 62 515 96 477 q 28 616 28 553 l 182 616 q 202 581 182 597 q 258 564 222 564 q 311 581 296 564 q 326 619 326 598 q 317 653 326 641 q 291 672 308 666 q 250 677 273 677 l 188 677 z "},"´":{"ha":469,"x_min":61,"x_max":437,"o":"m 61 829 l 195 1042 l 437 1042 l 248 829 l 61 829 z "},"µ":{"ha":891,"x_min":90,"x_max":781,"o":"m 552 734 l 781 734 l 781 0 l 566 0 l 552 170 l 552 734 m 577 341 l 672 342 q 656 200 672 265 q 608 87 640 135 q 529 12 576 39 q 420 -14 482 -14 q 333 3 372 -14 q 264 55 294 20 q 216 146 234 91 l 201 313 l 319 313 q 326 239 319 268 q 348 194 334 210 q 383 171 363 178 q 430 165 404 165 q 499 178 471 165 q 545 215 528 191 q 569 271 562 239 q 577 341 577 303 m 90 734 l 319 734 l 319 -282 l 90 -282 l 90 734 z "},"¶":{"ha":679,"x_min":56,"x_max":601,"o":"m 601 0 l 446 0 l 446 353 l 389 353 q 207 394 281 353 q 94 507 133 435 q 56 670 56 578 q 94 833 56 761 q 207 946 133 905 q 389 987 281 987 l 601 987 l 601 0 z "},"·":{"ha":446,"x_min":94,"x_max":347,"o":"m 94 465 q 129 546 94 513 q 220 579 164 579 q 312 546 277 579 q 347 465 347 513 q 312 383 347 416 q 220 350 277 350 q 129 383 164 350 q 94 465 94 416 z "},"¸":{"ha":387,"x_min":58,"x_max":348,"o":"m 79 7 l 254 7 l 246 -35 q 316 -67 284 -41 q 348 -152 348 -94 q 332 -221 348 -190 q 283 -274 315 -252 q 204 -308 252 -296 q 94 -320 157 -320 l 90 -194 q 121 -189 107 -194 q 142 -172 134 -183 q 150 -142 150 -160 q 141 -114 150 -124 q 111 -99 132 -104 q 58 -92 91 -94 l 79 7 z "},"¹":{"ha":521,"x_min":97,"x_max":368,"o":"m 368 985 l 368 452 l 216 452 l 216 814 l 97 789 l 97 903 l 355 985 l 368 985 z "},"º":{"ha":637,"x_min":80,"x_max":550,"o":"m 80 708 l 80 760 q 109 885 80 831 q 190 970 138 939 q 315 1001 243 1001 q 440 970 388 1001 q 522 885 493 939 q 550 760 550 831 l 550 708 q 522 584 550 638 q 441 499 493 530 q 316 468 389 468 q 191 499 243 468 q 109 584 138 530 q 80 708 80 638 m 199 760 l 199 708 q 212 636 199 668 q 251 585 224 604 q 316 567 277 567 q 380 585 355 567 q 419 636 406 604 q 431 708 431 668 l 431 760 q 418 832 431 800 q 380 882 406 863 q 315 901 354 901 q 250 882 276 901 q 212 832 224 863 q 199 760 199 800 z "},"»":{"ha":715,"x_min":53,"x_max":658,"o":"m 53 78 l 212 352 l 378 351 l 378 342 l 193 78 l 53 78 m 53 620 l 193 620 l 378 355 l 378 347 l 212 346 l 53 620 m 333 78 l 492 352 l 658 351 l 658 342 l 473 78 l 333 78 m 333 620 l 473 620 l 658 355 l 658 347 l 492 346 l 333 620 z "},"¼":{"ha":985,"x_min":76,"x_max":928,"o":"m 347 983 l 347 450 l 195 450 l 195 812 l 76 787 l 76 901 l 334 983 l 347 983 m 795 851 l 313 79 l 207 133 l 689 905 l 795 851 m 928 227 l 928 106 l 495 106 l 485 205 l 721 535 l 841 535 l 711 341 l 628 227 l 928 227 m 873 535 l 873 0 l 721 0 l 721 535 l 873 535 z "},"½":{"ha":1042,"x_min":60,"x_max":997,"o":"m 768 851 l 286 79 l 180 133 l 662 905 l 768 851 m 331 989 l 331 456 l 179 456 l 179 817 l 60 793 l 60 906 l 318 989 l 331 989 m 997 119 l 997 0 l 572 0 l 572 100 l 765 271 q 803 311 788 292 q 825 347 817 331 q 832 372 832 363 q 818 410 832 396 q 775 424 804 424 q 728 402 744 424 q 712 354 712 381 l 559 354 q 585 449 559 406 q 657 517 610 492 q 767 543 704 543 q 885 523 837 543 q 959 465 933 503 q 984 372 984 427 q 968 299 984 332 q 917 236 951 267 q 828 165 883 205 l 774 119 l 997 119 z "},"¾":{"ha":1145,"x_min":58,"x_max":1062,"o":"m 919 851 l 437 79 l 330 133 l 812 905 l 919 851 m 1062 227 l 1062 106 l 629 106 l 619 205 l 855 535 l 975 535 l 845 341 l 762 227 l 1062 227 m 1008 535 l 1008 0 l 855 0 l 855 535 l 1008 535 m 218 774 l 279 774 q 317 781 302 774 q 339 800 332 787 q 347 829 347 812 q 333 861 347 845 q 281 876 319 876 q 239 867 258 876 q 221 842 221 859 l 69 842 q 99 927 69 893 q 176 979 128 962 q 276 996 223 996 q 392 978 342 996 q 470 926 442 960 q 498 842 498 892 q 471 769 498 798 q 400 725 444 740 q 304 711 356 711 l 218 711 l 218 774 m 218 677 l 218 738 l 304 738 q 406 727 359 738 q 480 686 452 715 q 509 603 509 657 q 478 517 509 553 q 394 464 447 482 q 276 445 342 445 q 176 461 227 445 q 92 515 126 477 q 58 616 58 553 l 212 616 q 232 581 212 597 q 288 564 252 564 q 341 581 326 564 q 356 619 356 598 q 347 653 356 641 q 320 672 338 666 q 279 677 303 677 l 218 677 z "},"¿":{"ha":708,"x_min":50,"x_max":688,"o":"m 283 427 l 477 427 q 470 323 477 368 q 443 242 463 277 q 387 175 424 206 q 330 121 355 146 q 292 69 306 96 q 279 7 279 42 q 289 -45 279 -24 q 318 -75 300 -66 q 361 -85 337 -85 q 410 -73 389 -85 q 444 -37 431 -62 q 458 26 457 -13 l 688 26 q 643 -139 686 -75 q 528 -232 600 -202 q 366 -261 456 -261 q 197 -230 268 -261 q 87 -140 125 -199 q 50 7 50 -80 q 73 111 50 66 q 136 194 97 155 q 221 275 176 233 q 260 319 248 298 q 278 366 273 340 q 283 427 282 392 m 513 633 q 477 552 513 585 q 386 519 442 519 q 294 552 330 519 q 259 633 259 585 q 294 715 259 682 q 386 748 330 748 q 477 715 442 748 q 513 633 513 682 z "},"Æ":{"ha":1306,"x_min":11,"x_max":1256,"o":"m 683 880 l 275 0 l 11 0 l 509 987 l 654 987 l 683 880 m 737 406 l 737 223 l 227 223 l 227 406 l 737 406 m 1256 179 l 1256 0 l 760 0 l 760 179 l 1256 179 m 835 987 l 876 0 l 648 0 l 606 987 l 835 987 m 1160 594 l 1160 415 l 732 415 l 732 594 l 1160 594 m 1215 987 l 1215 808 l 718 808 l 718 987 l 1215 987 z "},"×":{"ha":735,"x_min":36,"x_max":695,"o":"m 167 134 l 36 258 l 564 797 l 695 673 l 167 134 m 564 134 l 36 673 l 167 797 l 695 258 l 564 134 z "},"Ø":{"ha":956,"x_min":55,"x_max":919,"o":"m 863 1029 l 235 -64 l 94 -64 l 723 1029 l 863 1029 m 919 513 l 919 473 q 887 270 919 360 q 798 117 856 180 q 661 20 740 54 q 488 -14 583 -14 q 345 8 412 -14 q 225 71 279 30 q 134 172 172 112 q 75 307 96 231 q 55 473 55 383 l 55 513 q 86 717 55 627 q 175 870 118 807 q 312 967 233 934 q 486 1001 391 1001 q 628 979 562 1001 q 747 916 694 958 q 839 815 801 875 q 898 680 878 756 q 919 513 919 604 m 677 473 l 677 515 q 669 621 677 573 q 645 705 661 669 q 606 765 629 741 q 553 802 583 789 q 486 814 523 814 q 404 795 439 814 q 345 738 368 776 q 309 644 321 700 q 297 515 297 588 l 297 473 q 305 368 297 416 q 328 284 313 320 q 366 223 343 248 q 419 185 389 198 q 488 172 450 172 q 568 192 533 172 q 628 250 604 212 q 664 345 652 289 q 677 473 677 401 z "},"Þ":{"ha":859,"x_min":79,"x_max":823,"o":"m 79 987 l 309 987 l 309 0 l 79 0 l 79 987 m 149 812 l 444 812 q 651 772 567 812 q 780 662 736 732 q 823 500 823 592 q 780 339 823 410 q 651 229 736 269 q 444 189 567 189 l 281 189 l 281 365 l 444 365 q 531 384 498 365 q 579 433 564 403 q 594 499 594 464 q 579 566 594 535 q 531 617 564 597 q 444 636 498 636 l 309 636 l 149 812 z "},"ß":{"ha":902,"x_min":92,"x_max":863,"o":"m 320 741 l 320 0 l 92 0 l 92 745 q 115 881 92 823 q 184 979 139 940 q 294 1039 229 1019 q 439 1059 358 1059 q 589 1029 521 1059 q 699 943 657 1000 q 740 801 740 886 q 730 725 740 752 q 708 677 720 697 q 685 633 695 657 q 675 566 675 608 q 694 519 675 543 q 741 469 713 495 q 797 411 769 443 q 844 340 825 380 q 863 250 863 300 q 826 109 863 168 q 718 18 790 50 q 539 -14 646 -14 q 470 -9 505 -14 q 406 2 435 -5 q 357 21 376 10 l 397 193 q 454 172 418 182 q 540 163 490 163 q 588 173 567 163 q 622 201 610 182 q 635 248 635 220 q 616 304 635 279 q 569 352 597 328 q 512 402 541 375 q 465 466 484 429 q 446 554 446 503 q 456 630 446 602 q 478 680 465 659 q 500 727 491 702 q 510 791 510 752 q 498 839 510 818 q 464 871 486 859 q 414 883 442 883 q 365 870 387 883 q 332 827 344 858 q 320 741 320 796 z "},"æ":{"ha":1173,"x_min":41,"x_max":1143,"o":"m 486 124 l 486 475 q 476 527 486 505 q 445 559 465 548 q 396 571 425 571 q 341 562 363 571 q 308 537 319 553 q 296 502 296 522 l 67 515 q 91 608 67 566 q 157 682 114 650 q 262 730 201 713 q 399 747 323 747 q 563 717 494 747 q 670 626 632 686 q 708 474 708 565 l 708 148 l 486 124 m 516 444 l 518 306 l 395 306 q 327 293 355 306 q 285 260 299 281 q 271 217 271 240 q 281 178 271 195 q 315 153 292 161 q 372 144 337 144 q 423 153 397 144 q 471 175 449 161 q 506 205 492 189 q 519 237 519 222 l 623 131 q 568 65 606 98 q 471 9 530 31 q 329 -14 411 -14 q 172 15 236 -14 q 75 97 108 44 q 41 220 41 149 q 64 315 41 273 q 131 386 87 357 q 241 429 176 414 q 394 444 307 444 l 516 444 m 840 -14 q 688 12 754 -14 q 577 83 623 37 q 509 192 532 129 q 486 329 486 254 l 486 382 q 507 530 486 463 q 571 646 528 597 q 680 721 614 694 q 832 747 745 748 q 961 724 904 747 q 1059 658 1019 701 q 1122 553 1100 614 q 1143 415 1143 492 l 1143 295 l 573 295 l 573 438 l 920 438 l 920 456 q 909 518 920 492 q 880 557 899 544 q 832 571 861 571 q 771 557 795 571 q 733 518 747 543 q 714 458 720 492 q 708 382 708 423 l 708 329 q 717 263 708 293 q 746 210 726 233 q 796 175 765 188 q 871 163 827 163 q 980 176 937 163 q 1064 208 1022 189 l 1120 68 q 1048 28 1092 47 q 951 -2 1004 9 q 840 -14 897 -14 z "},"ð":{"ha":791,"x_min":44,"x_max":762,"o":"m 154 905 l 227 1071 q 443 993 345 1047 q 612 859 541 939 q 723 674 684 778 q 762 445 762 570 l 762 402 q 735 234 762 310 q 657 102 707 157 q 541 16 608 46 q 394 -14 473 -14 q 251 12 315 -14 q 140 83 186 37 q 69 188 94 128 q 44 317 44 248 q 64 454 44 393 q 122 560 83 515 q 218 628 161 604 q 351 652 275 652 q 490 619 428 652 q 590 528 551 587 q 637 392 629 469 l 556 393 q 547 426 556 409 q 518 456 537 442 q 470 479 499 471 q 401 488 441 488 q 344 476 368 488 q 304 443 319 465 q 280 389 288 420 q 273 317 273 357 q 281 256 273 284 q 306 207 290 227 q 345 174 321 186 q 397 163 368 163 q 457 179 431 163 q 499 223 483 195 q 524 291 516 252 q 532 375 532 330 l 532 446 q 500 626 532 549 q 415 759 469 704 q 293 850 361 814 q 154 905 226 886 m 671 940 l 280 699 l 227 779 l 618 1020 l 671 940 z "},"÷":{"ha":791,"x_min":41,"x_max":749,"o":"m 749 547 l 749 382 l 41 382 l 41 547 l 749 547 m 267 736 q 302 817 267 785 q 394 848 338 848 q 485 817 450 848 q 520 736 520 785 q 485 656 520 688 q 394 625 450 625 q 302 656 338 625 q 267 736 267 688 m 267 188 q 302 268 267 237 q 394 299 338 299 q 485 268 450 299 q 520 188 520 237 q 485 108 520 139 q 394 77 450 77 q 302 108 338 77 q 267 188 267 139 z "},"ø":{"ha":781,"x_min":36,"x_max":744,"o":"m 676 827 l 227 -98 l 106 -98 l 556 827 l 676 827 m 36 359 l 36 374 q 59 523 36 454 q 127 641 82 591 q 237 719 172 691 q 389 747 303 747 q 542 719 476 747 q 653 641 608 691 q 721 523 698 591 q 744 374 744 454 l 744 359 q 721 211 744 279 q 653 93 698 143 q 543 14 608 42 q 391 -14 477 -14 q 238 14 304 -14 q 127 93 172 42 q 59 211 82 143 q 36 359 36 279 m 264 374 l 264 359 q 271 282 264 318 q 291 219 277 246 q 330 178 305 193 q 391 163 354 163 q 451 178 427 163 q 489 219 475 193 q 509 282 503 246 q 515 359 515 318 l 515 374 q 509 449 515 414 q 489 512 503 485 q 450 555 475 540 q 389 571 426 571 q 329 555 353 571 q 291 512 305 540 q 271 449 277 485 q 264 374 264 414 z "},"þ":{"ha":779,"x_min":64,"x_max":744,"o":"m 294 1042 l 294 -282 l 64 -282 l 64 1042 l 294 1042 m 744 376 l 744 361 q 726 213 744 281 q 671 94 707 144 q 582 15 635 43 q 459 -14 529 -14 q 346 16 393 -14 q 267 96 298 45 q 215 214 235 148 q 184 355 195 281 l 184 373 q 215 520 195 452 q 266 640 235 589 q 345 719 298 690 q 458 747 392 747 q 581 721 528 747 q 671 645 635 694 q 726 528 707 596 q 744 376 744 459 m 515 361 l 515 376 q 509 454 515 418 q 490 516 503 490 q 455 557 477 543 q 401 571 433 571 q 340 560 365 571 q 301 526 315 549 q 280 470 286 503 q 275 391 274 436 l 275 336 q 279 265 273 297 q 300 211 286 233 q 340 175 315 188 q 403 163 366 163 q 457 178 435 163 q 492 221 479 193 q 510 284 505 248 q 515 361 515 320 z "},"đ":{"ha":897,"x_min":36,"x_max":811,"o":"m 486 168 l 486 1042 l 716 1042 l 716 0 l 510 0 l 486 168 m 36 358 l 36 372 q 54 525 36 456 q 109 643 73 593 q 198 720 144 693 q 321 747 252 747 q 431 719 384 747 q 511 638 477 690 q 565 518 544 587 q 597 370 586 449 l 597 353 q 565 212 586 278 q 511 95 544 146 q 430 15 477 44 q 320 -14 383 -14 q 197 14 250 -14 q 108 92 144 42 q 54 210 73 142 q 36 358 36 278 m 264 372 l 264 358 q 270 281 264 317 q 289 219 275 246 q 324 178 302 193 q 378 163 346 163 q 451 184 422 163 q 494 243 480 205 q 506 334 508 282 l 506 388 q 500 467 507 433 q 476 524 492 501 q 436 559 460 547 q 380 571 412 571 q 326 556 348 571 q 290 514 304 541 q 271 451 277 488 q 264 372 264 415 m 811 954 l 811 824 l 315 824 l 315 954 l 811 954 z "},"Ħ":{"ha":1013,"x_min":22,"x_max":996,"o":"m 996 843 l 996 719 l 22 719 l 22 843 l 996 843 m 758 595 l 758 412 l 251 412 l 251 595 l 758 595 m 330 987 l 330 0 l 92 0 l 92 987 l 330 987 m 918 987 l 918 0 l 680 0 l 680 987 l 918 987 z "},"ı":{"ha":396,"x_min":84,"x_max":313,"o":"m 313 734 l 313 0 l 84 0 l 84 734 l 313 734 z "},"ĸ":{"ha":843,"x_min":80,"x_max":821,"o":"m 309 734 l 309 0 l 80 0 l 80 734 l 309 734 m 816 734 l 492 256 l 278 256 l 252 470 l 370 470 l 522 734 l 816 734 m 527 0 l 368 299 l 581 395 l 821 0 l 527 0 z "},"Ł":{"ha":787,"x_min":18,"x_max":762,"o":"m 479 656 l 479 535 l 18 408 l 18 529 l 479 656 m 762 183 l 762 0 l 263 0 l 263 183 l 762 183 m 347 987 l 347 0 l 110 0 l 110 987 l 347 987 z "},"ł":{"ha":450,"x_min":18,"x_max":427,"o":"m 427 656 l 427 534 l 18 407 l 18 529 l 427 656 m 336 1042 l 336 0 l 106 0 l 106 1042 l 336 1042 z "},"Ŋ":{"ha":985,"x_min":77,"x_max":907,"o":"m 77 987 l 315 987 l 315 0 l 77 0 l 77 987 m 147 905 l 315 987 l 838 82 l 669 0 l 147 905 m 669 987 l 907 987 l 907 -5 q 873 -164 907 -99 q 775 -263 839 -229 q 624 -296 712 -296 q 569 -294 595 -296 q 513 -285 543 -292 l 522 -105 q 552 -111 540 -109 q 590 -113 565 -113 q 633 -101 616 -113 q 660 -65 651 -89 q 669 -5 669 -41 l 669 987 z "},"ŋ":{"ha":781,"x_min":61,"x_max":722,"o":"m 290 577 l 290 0 l 61 0 l 61 734 l 277 734 l 290 577 m 249 392 l 222 391 q 242 533 222 468 q 297 646 261 598 q 382 721 333 694 q 493 747 432 747 q 586 731 544 747 q 658 678 627 714 q 706 584 689 642 q 722 441 722 525 l 722 -10 q 689 -166 722 -102 q 593 -263 655 -231 q 444 -296 531 -296 q 390 -294 416 -296 q 336 -285 365 -292 l 345 -112 q 376 -118 363 -116 q 413 -120 390 -120 q 456 -108 439 -120 q 483 -71 474 -96 q 492 -10 492 -46 l 492 442 q 487 504 492 479 q 469 544 481 529 q 441 565 458 558 q 405 571 425 571 q 338 557 367 571 q 289 520 309 544 q 259 463 269 496 q 249 392 249 431 z "},"Œ":{"ha":1353,"x_min":63,"x_max":1303,"o":"m 488 1001 q 590 997 540 1001 q 685 987 640 993 l 685 806 q 591 819 641 814 q 488 825 541 825 q 407 811 443 825 q 345 768 370 797 q 305 697 319 740 q 292 598 292 655 l 292 391 q 306 291 292 334 q 345 220 319 248 q 408 177 371 191 q 490 163 444 163 q 592 168 542 163 q 685 181 642 173 l 685 0 q 590 -9 640 -5 q 490 -14 541 -14 q 316 16 395 -14 q 181 99 238 45 q 94 227 125 153 q 63 391 63 301 l 63 597 q 94 761 63 686 q 181 889 124 835 q 315 972 237 943 q 488 1001 393 1001 m 1301 183 l 1301 0 l 774 0 l 774 183 l 1301 183 m 859 987 l 859 0 l 621 0 l 621 987 l 859 987 m 1233 595 l 1233 418 l 774 418 l 774 595 l 1233 595 m 1303 987 l 1303 804 l 774 804 l 774 987 l 1303 987 z "},"œ":{"ha":1251,"x_min":52,"x_max":1197,"o":"m 895 -14 q 746 14 812 -14 q 634 90 680 41 q 564 203 588 138 q 539 342 539 268 l 539 368 q 561 518 539 449 q 624 638 582 587 q 730 719 667 690 q 878 747 794 748 q 1013 724 954 747 q 1113 658 1072 701 q 1175 553 1154 614 q 1197 415 1197 492 l 1197 295 l 626 295 l 626 438 l 973 438 l 973 456 q 963 518 973 492 q 933 557 954 544 q 878 571 912 571 q 823 555 845 571 q 789 510 802 538 q 772 446 777 482 q 768 368 768 409 l 768 342 q 777 275 768 307 q 806 217 787 242 q 856 177 826 192 q 926 163 885 163 q 1040 176 998 163 q 1128 208 1082 189 l 1183 68 q 1064 12 1139 37 q 895 -14 988 -14 m 52 359 l 52 374 q 75 523 52 454 q 143 641 98 591 q 254 719 188 691 q 406 747 319 747 q 558 719 492 747 q 670 641 625 691 q 738 523 715 591 q 761 374 761 454 l 761 359 q 738 211 761 279 q 670 93 715 143 q 559 14 625 42 q 407 -14 493 -14 q 254 14 321 -14 q 143 93 188 42 q 75 211 98 143 q 52 359 52 279 m 280 374 l 280 359 q 286 282 280 318 q 307 219 292 246 q 346 178 321 193 q 407 163 370 163 q 467 178 443 163 q 506 219 492 193 q 526 282 520 246 q 532 359 532 318 l 532 374 q 526 449 532 414 q 506 512 520 485 q 467 555 492 540 q 406 571 442 571 q 345 555 370 571 q 307 512 321 540 q 286 449 292 485 q 280 374 280 414 z "},"ſ":{"ha":366,"x_min":64,"x_max":468,"o":"m 293 0 l 64 0 l 64 793 q 99 937 64 879 q 198 1026 133 996 q 354 1056 263 1056 q 411 1052 383 1056 q 468 1042 439 1048 l 452 873 q 420 878 435 876 q 382 880 406 880 q 334 870 354 880 q 303 841 314 860 q 293 793 293 821 l 293 0 z "},"Ə":{"ha":970,"x_min":47,"x_max":911,"o":"m 480 -14 q 293 19 374 -14 q 158 113 212 52 q 75 261 103 174 q 47 454 47 347 l 47 574 l 729 574 l 729 387 l 284 387 l 284 366 q 295 296 284 329 q 329 239 306 264 q 390 201 352 215 q 480 187 427 187 q 566 207 529 187 q 626 260 602 226 q 662 338 650 294 q 674 434 674 383 l 674 550 q 661 647 674 602 q 619 726 648 692 q 540 780 589 760 q 416 800 490 800 q 254 786 324 800 q 143 761 183 773 l 110 952 q 175 971 125 959 q 294 992 225 983 q 433 1002 362 1002 q 640 968 551 1002 q 790 875 730 935 q 880 732 850 814 q 911 550 911 649 l 911 434 q 878 253 911 335 q 787 111 846 171 q 650 18 729 51 q 480 -14 572 -14 z "},"ƒ":{"ha":514,"x_min":-28,"x_max":518,"o":"m 488 734 l 488 575 l 343 575 l 342 -24 q 311 -173 342 -112 q 221 -265 279 -233 q 80 -296 162 -296 q 26 -294 51 -296 q -28 -285 1 -292 l -18 -112 q 10 -117 -8 -115 q 41 -120 28 -120 q 87 -109 71 -120 q 108 -77 102 -98 q 114 -24 114 -56 l 114 575 l 7 575 l 7 734 l 114 734 l 114 793 q 149 937 114 879 q 248 1026 183 996 q 404 1056 313 1056 q 461 1052 433 1056 q 518 1042 489 1048 l 500 873 q 471 878 486 876 q 433 880 456 880 q 385 870 405 880 q 354 841 364 860 q 343 793 343 821 l 343 734 l 488 734 z "},"Ơ":{"ha":987,"x_min":50,"x_max":1007,"o":"m 869 1055 l 1007 1055 q 981 888 1007 958 q 901 783 956 819 q 758 747 846 747 l 758 858 q 827 882 804 858 q 860 949 851 905 q 869 1055 869 994 m 913 513 l 913 473 q 881 270 913 360 q 792 117 850 180 q 655 20 734 54 q 482 -14 576 -14 q 340 8 406 -14 q 220 71 273 30 q 129 172 167 112 q 70 307 90 231 q 50 473 50 383 l 50 513 q 81 717 50 627 q 170 870 113 807 q 306 967 227 934 q 481 1001 385 1001 q 622 979 556 1001 q 742 916 688 958 q 833 815 795 875 q 892 680 871 756 q 913 513 913 604 m 671 473 l 671 515 q 663 621 671 573 q 639 705 654 669 q 600 765 623 741 q 547 802 577 789 q 481 814 517 814 q 398 795 433 814 q 338 738 362 776 q 303 644 315 700 q 291 515 291 588 l 291 473 q 299 368 291 416 q 322 284 307 320 q 360 223 337 248 q 414 185 383 198 q 482 172 444 172 q 563 192 528 172 q 622 250 598 212 q 659 345 646 289 q 671 473 671 401 z "},"ơ":{"ha":813,"x_min":34,"x_max":816,"o":"m 691 798 l 816 798 q 789 654 816 714 q 706 563 762 594 q 562 531 650 531 l 562 616 q 642 638 614 616 q 680 701 669 660 q 691 798 691 741 m 34 359 l 34 374 q 57 523 34 454 q 125 641 80 591 q 236 719 170 691 q 388 747 302 747 q 541 719 475 747 q 652 641 607 691 q 720 523 696 591 q 743 374 743 454 l 743 359 q 720 211 743 279 q 652 93 696 143 q 541 14 607 42 q 389 -14 475 -14 q 237 14 303 -14 q 125 93 170 42 q 57 211 80 143 q 34 359 34 279 m 263 374 l 263 359 q 269 282 263 318 q 290 219 275 246 q 328 178 304 193 q 389 163 353 163 q 449 178 425 163 q 487 219 473 193 q 507 282 501 246 q 513 359 513 318 l 513 374 q 508 449 513 414 q 488 512 502 485 q 449 555 473 540 q 388 571 425 571 q 328 555 352 571 q 290 512 304 540 q 269 449 275 485 q 263 374 263 414 z "},"Ư":{"ha":1000,"x_min":72,"x_max":1116,"o":"m 977 1042 l 1116 1042 q 1091 867 1116 940 q 1003 756 1066 795 q 825 718 940 718 l 825 829 q 931 855 899 829 q 969 929 962 881 q 977 1042 977 977 m 611 987 l 849 987 l 849 342 q 801 148 849 227 q 666 27 753 68 q 462 -14 579 -14 q 258 27 346 -14 q 121 148 170 68 q 72 342 72 227 l 72 987 l 311 987 l 311 342 q 328 243 311 281 q 380 187 346 205 q 462 170 414 170 q 544 187 511 170 q 594 243 577 205 q 611 342 611 281 l 611 987 z "},"ư":{"ha":835,"x_min":60,"x_max":916,"o":"m 791 801 l 916 801 q 889 653 916 713 q 801 564 863 594 q 632 534 739 534 l 633 631 q 735 649 702 631 q 780 706 769 668 q 791 801 791 744 m 493 178 l 493 734 l 722 734 l 722 0 l 508 0 l 493 178 m 515 328 l 574 329 q 557 192 574 255 q 505 83 539 130 q 421 12 471 37 q 306 -14 371 -14 q 207 2 252 -14 q 129 50 161 17 q 78 135 96 83 q 60 259 60 186 l 60 734 l 289 734 l 289 258 q 295 216 289 233 q 313 186 301 198 q 341 169 324 174 q 381 163 359 163 q 462 184 433 163 q 503 243 491 206 q 515 328 515 281 z "},"ȷ":{"ha":410,"x_min":-63,"x_max":323,"o":"m 95 734 l 323 734 l 323 -10 q 290 -166 323 -102 q 194 -263 256 -231 q 46 -296 132 -296 q -8 -294 17 -296 q -63 -285 -34 -292 l -53 -112 q -22 -118 -35 -116 q 14 -120 -9 -120 q 58 -108 40 -120 q 85 -71 76 -96 q 95 -10 95 -46 l 95 734 z "},"ə":{"ha":735,"x_min":45,"x_max":703,"o":"m 347 748 q 496 721 430 748 q 608 645 562 693 q 678 531 654 596 q 703 392 703 467 l 703 366 q 681 217 703 286 q 617 96 660 148 q 512 15 575 44 q 363 -13 448 -14 q 229 10 288 -13 q 129 77 170 33 q 66 181 88 120 q 45 319 45 243 l 45 439 l 616 439 l 616 296 l 269 296 l 269 279 q 278 217 269 243 q 309 177 288 191 q 363 163 330 163 q 419 180 397 163 q 452 224 440 196 q 469 289 465 252 q 474 366 474 326 l 474 392 q 465 460 474 428 q 436 517 455 492 q 387 557 416 543 q 316 572 357 572 q 202 559 243 572 q 114 526 160 546 l 59 666 q 179 723 103 698 q 347 748 254 748 z "},"ˆ":{"ha":701,"x_min":66,"x_max":638,"o":"m 416 1042 l 638 851 l 638 842 l 458 842 l 350 935 l 243 842 l 66 842 l 66 854 l 285 1042 l 416 1042 z "},"ˇ":{"ha":669,"x_min":38,"x_max":628,"o":"m 234 1042 l 334 951 l 433 1042 l 628 1042 l 628 1035 l 408 843 l 260 843 l 38 1036 l 38 1042 l 234 1042 z "},"ˉ":{"ha":723,"x_min":123,"x_max":593,"o":"m 593 989 l 593 871 l 123 871 l 123 989 l 593 989 z "},"˘":{"ha":629,"x_min":64,"x_max":566,"o":"m 410 1043 l 566 1043 q 535 935 566 982 q 448 861 505 888 q 315 835 392 835 q 132 893 199 835 q 64 1043 64 951 l 220 1043 q 241 983 220 1010 q 315 957 263 957 q 389 983 368 957 q 410 1043 410 1010 z "},"˙":{"ha":382,"x_min":73,"x_max":298,"o":"m 73 935 q 104 1006 73 979 q 185 1034 136 1034 q 267 1006 235 1034 q 298 935 298 979 q 267 863 298 891 q 185 836 235 836 q 104 863 136 836 q 73 935 73 891 z "},"˚":{"ha":458,"x_min":81,"x_max":385,"o":"m 81 878 q 100 946 81 915 q 154 996 120 977 q 233 1015 189 1015 q 342 975 299 1015 q 385 878 385 934 q 366 810 385 840 q 312 761 346 779 q 233 743 277 743 q 124 782 167 743 q 81 878 81 822 m 163 878 q 181 828 163 848 q 233 807 200 807 q 284 828 266 807 q 303 878 303 848 q 284 928 303 907 q 233 949 266 949 q 181 928 200 949 q 163 878 163 907 z "},"˛":{"ha":437,"x_min":18,"x_max":295,"o":"m 154 41 l 280 0 q 222 -35 244 -18 q 191 -69 200 -51 q 181 -109 181 -87 q 190 -139 181 -127 q 222 -151 199 -151 q 250 -147 239 -151 q 269 -139 260 -143 l 295 -253 q 251 -273 278 -263 q 182 -283 224 -283 q 66 -246 114 -283 q 18 -138 18 -209 q 29 -73 18 -104 q 70 -13 41 -41 q 154 41 100 16 z "},"˜":{"ha":670,"x_min":76,"x_max":601,"o":"m 475 1046 l 601 1039 q 581 947 601 989 q 526 880 561 905 q 444 854 490 854 q 389 862 413 854 q 344 882 365 871 q 302 902 323 894 q 255 911 281 911 q 219 896 234 911 q 203 850 203 881 l 76 857 q 96 947 76 905 q 151 1016 116 989 q 233 1042 186 1042 q 283 1033 259 1042 q 329 1014 307 1025 q 374 994 351 1002 q 421 985 397 985 q 459 1000 443 985 q 475 1046 475 1015 z "},"˝":{"ha":600,"x_min":28,"x_max":633,"o":"m 291 838 l 444 1041 l 633 1041 l 452 838 l 291 838 m 28 838 l 162 1041 l 351 1041 l 191 838 l 28 838 z "},"˳":{"ha":454,"x_min":105,"x_max":366,"o":"m 105 -153 q 143 -69 105 -102 q 237 -35 181 -35 q 329 -69 292 -35 q 366 -153 366 -102 q 329 -235 366 -203 q 237 -268 292 -268 q 143 -235 181 -268 q 105 -153 105 -202 m 190 -153 q 203 -187 190 -174 q 237 -200 216 -200 q 269 -187 256 -200 q 281 -153 281 -174 q 269 -117 281 -131 q 237 -104 256 -104 q 203 -117 216 -104 q 190 -153 190 -131 z "},"̀":{"ha":0,"x_min":-618,"x_max":-241,"o":"m -376 1042 l -241 829 l -427 829 l -618 1042 l -376 1042 z "},"́":{"ha":0,"x_min":-469,"x_max":-94,"o":"m -469 829 l -334 1042 l -94 1042 l -282 829 l -469 829 z "},"̃":{"ha":0,"x_min":-642,"x_max":-117,"o":"m -243 1046 l -117 1039 q -137 947 -117 989 q -192 880 -157 905 q -273 854 -227 854 q -329 862 -304 854 q -373 882 -353 871 q -415 902 -394 894 q -463 911 -437 911 q -499 896 -484 911 q -514 850 -514 881 l -642 857 q -622 947 -642 905 q -566 1016 -602 989 q -485 1042 -531 1042 q -435 1033 -458 1042 q -389 1014 -411 1025 q -343 994 -366 1002 q -296 985 -321 985 q -259 1000 -275 985 q -243 1046 -243 1015 z "},"̉":{"ha":0,"x_min":-524,"x_max":-233,"o":"m -334 865 l -509 865 l -524 951 q -471 957 -491 952 q -441 971 -450 962 q -431 994 -431 981 q -438 1016 -431 1007 q -456 1029 -444 1025 q -485 1036 -469 1034 q -522 1038 -502 1038 l -517 1137 q -394 1127 -448 1137 q -306 1101 -341 1118 q -252 1059 -270 1084 q -233 1003 -233 1034 q -265 936 -233 958 q -335 907 -297 913 l -334 865 z "},"̏":{"ha":0,"x_min":-725,"x_max":-92,"o":"m -349 849 l -533 849 l -725 1029 l -515 1029 l -349 849 m -92 849 l -277 849 l -444 1029 l -231 1029 l -92 849 z "},"̣":{"ha":0,"x_min":-532,"x_max":-278,"o":"m -532 -156 q -496 -84 -532 -113 q -405 -55 -461 -55 q -313 -84 -349 -55 q -278 -156 -278 -113 q -313 -228 -278 -199 q -405 -257 -349 -257 q -496 -228 -461 -257 q -532 -156 -532 -199 z "},"΄":{"ha":528,"x_min":163,"x_max":427,"o":"m 163 852 l 220 1086 l 427 1086 l 298 852 l 163 852 z "},"΅":{"ha":789,"x_min":69,"x_max":705,"o":"m 328 966 l 353 1207 l 551 1207 l 429 966 l 328 966 m 69 926 q 99 990 69 964 q 172 1016 130 1016 q 244 990 214 1016 q 274 926 274 964 q 244 862 274 888 q 172 836 214 836 q 99 862 130 836 q 69 926 69 888 m 500 926 q 531 990 500 964 q 603 1016 561 1016 q 675 990 645 1016 q 705 926 705 964 q 675 862 705 888 q 603 836 645 836 q 531 862 561 836 q 500 926 500 888 z "},"·":{"ha":446,"x_min":94,"x_max":347,"o":"m 94 465 q 129 546 94 513 q 220 579 164 579 q 312 546 277 579 q 347 465 347 513 q 312 383 347 416 q 220 350 277 350 q 129 383 164 350 q 94 465 94 416 z "},"Γ":{"ha":774,"x_min":74,"x_max":741,"o":"m 741 987 l 741 804 l 311 804 l 311 0 l 74 0 l 74 987 l 741 987 z "},"Δ":{"ha":1034,"x_min":12,"x_max":1039,"o":"m 592 907 l 262 0 l 12 0 l 393 987 l 519 987 l 592 907 m 787 0 l 450 913 l 525 987 l 651 987 l 1039 0 l 787 0 m 804 183 l 804 0 l 207 0 l 207 183 l 804 183 z "},"∆":{"ha":1034,"x_min":12,"x_max":1039,"o":"m 592 907 l 262 0 l 12 0 l 393 987 l 519 987 l 592 907 m 787 0 l 450 913 l 525 987 l 651 987 l 1039 0 l 787 0 m 804 183 l 804 0 l 207 0 l 207 183 l 804 183 z "},"Θ":{"ha":960,"x_min":50,"x_max":913,"o":"m 590 575 l 590 399 l 376 399 l 376 575 l 590 575 m 913 513 l 913 473 q 882 270 913 360 q 792 117 850 180 q 656 20 734 54 q 482 -14 577 -14 q 340 8 406 -14 q 220 71 273 30 q 129 172 167 112 q 70 307 90 231 q 50 473 50 383 l 50 513 q 81 717 50 627 q 170 870 113 807 q 306 967 227 934 q 481 1001 385 1001 q 623 979 557 1001 q 742 916 688 958 q 834 815 795 875 q 893 680 872 756 q 913 513 913 604 m 671 473 l 671 515 q 663 621 671 573 q 639 705 655 669 q 600 765 623 741 q 547 802 577 789 q 481 814 517 814 q 398 795 433 814 q 339 738 363 776 q 303 644 315 700 q 292 515 292 588 l 292 473 q 299 368 292 416 q 322 284 307 320 q 361 223 338 248 q 414 185 384 198 q 482 172 444 172 q 563 192 528 172 q 622 250 598 212 q 659 345 646 289 q 671 473 671 401 z "},"Λ":{"ha":892,"x_min":1,"x_max":893,"o":"m 465 757 l 258 0 l 1 0 l 317 987 l 494 987 l 465 757 m 635 0 l 428 759 l 399 987 l 576 987 l 893 0 l 635 0 z "},"Ξ":{"ha":783,"x_min":56,"x_max":739,"o":"m 56 0 l 56 183 l 739 183 l 739 0 l 56 0 m 144 407 l 144 581 l 654 581 l 654 407 l 144 407 m 79 804 l 79 987 l 699 987 l 699 804 l 79 804 z "},"Π":{"ha":978,"x_min":74,"x_max":904,"o":"m 904 987 l 904 0 l 666 0 l 666 804 l 311 804 l 311 0 l 74 0 l 74 987 l 904 987 z "},"Σ":{"ha":783,"x_min":50,"x_max":753,"o":"m 753 182 l 753 0 l 138 0 l 138 182 l 753 182 m 745 987 l 745 804 l 178 804 l 178 987 l 745 987 m 586 505 l 586 496 l 248 0 l 50 0 l 50 102 l 334 501 l 50 886 l 50 987 l 248 987 l 586 505 z "},"Φ":{"ha":1109,"x_min":50,"x_max":1069,"o":"m 651 110 l 468 110 q 298 136 374 110 q 165 211 221 162 q 80 330 110 260 q 50 486 50 399 q 102 694 50 606 q 249 830 155 782 q 468 878 343 878 l 650 878 q 821 850 744 878 q 954 772 898 823 q 1039 649 1009 721 q 1069 487 1069 577 q 1017 287 1069 372 q 870 156 964 202 q 651 110 776 110 m 468 310 l 652 310 q 747 329 706 310 q 812 387 789 348 q 836 487 836 427 q 823 572 836 536 q 784 632 809 608 q 726 666 760 655 q 652 677 692 677 l 468 677 q 373 657 415 677 q 307 594 331 637 q 282 486 282 552 q 296 407 282 440 q 335 352 310 374 q 395 320 361 331 q 468 310 429 310 m 680 987 l 680 0 l 442 0 l 442 987 l 680 987 z "},"Ψ":{"ha":1036,"x_min":24,"x_max":1014,"o":"m 775 987 l 1014 987 l 1014 690 q 961 461 1014 555 q 811 319 908 368 q 582 270 714 270 l 457 270 q 278 298 358 270 q 141 379 198 326 q 55 511 85 433 q 24 690 24 589 l 24 987 l 262 987 l 262 690 q 276 584 262 629 q 315 510 289 539 q 380 467 341 481 q 470 453 419 453 l 594 453 q 700 478 661 453 q 758 556 740 504 q 775 690 775 608 l 775 987 m 646 987 l 646 0 l 409 0 l 409 987 l 646 987 z "},"Ω":{"ha":937,"x_min":67,"x_max":861,"o":"m 589 538 l 589 591 q 581 688 589 646 q 556 758 572 730 q 516 800 540 786 q 463 814 493 814 q 411 800 434 814 q 372 758 388 786 q 348 688 356 730 q 339 591 339 646 l 339 538 q 346 395 339 456 q 366 294 353 335 q 396 227 378 252 q 434 189 414 201 l 434 90 q 308 133 372 97 q 189 228 243 169 q 101 366 134 288 q 67 538 67 445 l 67 589 q 96 755 67 680 q 177 885 124 830 q 302 970 230 940 q 463 1000 375 1000 q 625 970 552 1000 q 751 885 698 940 q 832 755 804 830 q 861 589 861 680 l 861 538 q 828 367 861 445 q 741 229 795 288 q 623 134 687 170 q 498 90 559 98 l 498 189 q 534 228 517 202 q 563 294 550 253 q 582 396 575 336 q 589 538 589 456 m 498 0 l 498 186 l 846 186 l 846 0 l 498 0 m 81 0 l 81 186 l 434 186 l 434 0 l 81 0 z "},"Ω":{"ha":937,"x_min":67,"x_max":861,"o":"m 589 538 l 589 591 q 581 688 589 646 q 556 758 572 730 q 516 800 540 786 q 463 814 493 814 q 411 800 434 814 q 372 758 388 786 q 348 688 356 730 q 339 591 339 646 l 339 538 q 346 395 339 456 q 366 294 353 335 q 396 227 378 252 q 434 189 414 201 l 434 90 q 308 133 372 97 q 189 228 243 169 q 101 366 134 288 q 67 538 67 445 l 67 589 q 96 755 67 680 q 177 885 124 830 q 302 970 230 940 q 463 1000 375 1000 q 625 970 552 1000 q 751 885 698 940 q 832 755 804 830 q 861 589 861 680 l 861 538 q 828 367 861 445 q 741 229 795 288 q 623 134 687 170 q 498 90 559 98 l 498 189 q 534 228 517 202 q 563 294 550 253 q 582 396 575 336 q 589 538 589 456 m 498 0 l 498 186 l 846 186 l 846 0 l 498 0 m 81 0 l 81 186 l 434 186 l 434 0 l 81 0 z "},"α":{"ha":781,"x_min":41,"x_max":781,"o":"m 41 351 l 41 366 q 60 519 41 449 q 115 640 79 589 q 205 719 151 691 q 328 747 258 747 q 411 728 375 747 q 474 673 448 709 q 520 590 501 638 q 553 484 540 542 q 574 363 566 427 l 574 346 q 546 206 564 271 q 499 92 528 141 q 428 14 471 42 q 327 -14 386 -14 q 204 13 257 -14 q 114 89 151 40 q 60 204 78 138 q 41 351 41 271 m 271 366 l 271 351 q 276 276 271 310 q 295 216 281 241 q 330 177 308 191 q 385 163 352 163 q 440 174 417 163 q 477 206 463 185 q 499 258 492 227 q 509 328 507 288 l 509 381 q 499 461 507 426 q 477 521 492 496 q 440 558 463 545 q 386 571 418 571 q 332 555 354 571 q 296 511 310 539 q 277 446 283 483 q 271 366 271 408 m 506 734 l 706 734 l 706 251 q 709 210 706 227 q 718 183 712 193 q 732 168 724 172 q 753 163 741 163 q 760 164 758 163 q 764 165 762 165 l 781 0 q 740 -12 759 -9 q 696 -14 720 -14 q 616 -2 652 -14 q 552 36 580 10 q 506 99 524 61 q 477 189 487 138 l 477 578 l 506 734 z "},"β":{"ha":843,"x_min":92,"x_max":806,"o":"m 391 539 l 480 539 q 656 508 583 539 q 767 418 729 477 q 806 277 806 360 q 771 120 806 185 q 669 21 736 55 q 507 -14 602 -14 q 395 3 452 -14 q 289 55 338 20 q 209 144 239 90 q 179 275 179 199 l 262 275 q 285 218 262 243 q 349 178 308 193 q 446 163 391 163 q 517 179 488 163 q 562 222 546 195 q 577 282 577 249 q 562 363 577 332 q 515 410 546 395 q 440 425 485 425 l 391 425 l 391 539 m 432 1001 q 607 971 532 1001 q 723 881 682 941 q 764 734 764 822 q 727 604 764 662 q 624 512 690 546 q 469 478 557 478 l 391 478 l 391 581 l 429 581 q 490 596 467 581 q 524 641 513 612 q 534 713 534 670 q 524 768 534 743 q 490 809 513 793 q 432 825 467 825 q 374 809 399 825 q 334 763 349 793 q 320 690 320 733 l 320 -281 l 92 -281 l 92 690 q 138 857 92 787 q 261 964 184 926 q 432 1001 338 1001 z "},"γ":{"ha":714,"x_min":1,"x_max":711,"o":"m 469 47 l 469 -283 l 240 -283 l 240 47 l 469 47 m 342 183 l 470 734 l 711 734 l 472 0 l 317 0 l 342 183 m 242 734 l 376 178 l 394 0 l 239 0 l 1 734 l 242 734 z "},"δ":{"ha":781,"x_min":36,"x_max":754,"o":"m 120 844 q 155 965 120 915 q 254 1042 190 1015 q 409 1068 319 1068 q 497 1061 463 1068 q 584 1040 532 1054 l 584 876 q 520 895 559 884 q 437 905 481 905 q 382 899 405 905 q 346 879 359 892 q 334 848 334 867 q 337 830 334 840 q 348 810 340 820 q 373 789 357 800 q 418 768 390 778 q 603 674 528 730 q 716 544 677 619 q 754 373 754 469 l 754 359 q 730 212 754 280 q 660 94 706 144 q 547 15 614 43 q 396 -14 481 -14 q 243 14 311 -14 q 130 90 176 41 q 60 204 84 138 q 36 346 36 269 l 36 359 q 65 497 36 435 q 141 602 94 559 q 245 658 189 644 l 242 662 q 179 709 206 683 q 136 769 151 736 q 120 844 120 802 m 264 385 l 264 372 q 272 291 264 329 q 296 224 279 253 q 337 179 312 195 q 396 162 361 162 q 454 179 430 162 q 495 224 479 195 q 518 291 511 253 q 526 372 526 329 l 526 385 q 517 450 526 418 q 492 511 509 483 q 451 559 475 539 q 396 585 427 578 q 337 569 362 585 q 296 525 313 553 q 272 461 280 497 q 264 385 264 425 z "},"ε":{"ha":786,"x_min":64,"x_max":751,"o":"m 356 399 l 531 399 l 531 305 l 412 305 q 350 298 378 305 q 307 274 323 290 q 292 228 292 257 q 298 199 292 214 q 319 174 305 185 q 355 156 334 163 q 406 149 376 149 q 472 158 446 149 q 510 183 498 168 q 522 217 522 199 l 751 217 q 723 114 751 157 q 647 42 694 70 q 541 0 600 14 q 422 -14 482 -14 q 281 1 347 -14 q 168 45 216 16 q 91 114 119 73 q 64 208 64 155 q 84 289 64 254 q 142 349 104 325 q 234 386 180 374 q 356 399 288 399 m 531 350 l 356 350 q 244 364 295 350 q 155 404 193 378 q 97 463 117 429 q 77 533 77 496 q 102 625 77 585 q 174 692 127 665 q 283 733 220 719 q 422 747 347 747 q 545 731 487 747 q 646 687 602 716 q 715 616 690 658 q 740 521 740 574 l 511 521 q 497 556 511 543 q 460 577 484 570 q 406 584 437 584 q 348 573 370 584 q 315 546 326 562 q 305 512 305 530 q 313 484 305 496 q 334 463 320 472 q 368 450 348 454 q 412 446 388 446 l 531 446 l 531 350 z "},"ζ":{"ha":679,"x_min":37,"x_max":655,"o":"m 503 987 l 655 987 l 655 867 l 405 572 q 337 482 364 524 q 296 397 309 441 q 282 298 282 354 q 290 246 282 267 q 314 211 298 225 q 350 188 329 197 q 399 171 372 179 l 433 159 q 542 120 496 142 q 614 64 589 98 q 640 -26 640 30 q 613 -112 640 -66 q 547 -198 587 -157 q 463 -266 507 -239 l 348 -184 q 384 -141 370 -162 q 405 -102 398 -120 q 410 -73 411 -85 q 406 -45 411 -58 q 387 -24 401 -33 q 348 -9 373 -15 l 303 3 q 194 43 241 20 q 116 98 147 67 q 70 170 85 130 q 55 258 55 210 q 77 410 55 344 q 139 536 99 475 q 235 663 180 596 l 503 987 m 37 987 l 545 987 l 545 812 l 37 812 l 37 987 z "},"η":{"ha":781,"x_min":61,"x_max":722,"o":"m 290 577 l 290 0 l 61 0 l 61 734 l 277 734 l 290 577 m 247 392 l 209 391 q 229 533 209 468 q 287 646 250 598 q 377 721 325 694 q 493 747 429 747 q 586 732 544 747 q 658 684 627 717 q 706 598 689 651 q 722 469 722 545 l 722 -282 l 492 -282 l 492 469 q 487 514 492 495 q 469 546 481 533 q 441 565 458 558 q 405 571 425 571 q 337 557 367 571 q 288 520 308 544 q 257 463 268 496 q 247 392 247 431 z "},"θ":{"ha":835,"x_min":74,"x_max":762,"o":"m 418 1001 q 531 985 479 1001 q 627 936 584 969 q 700 854 669 903 q 746 737 730 804 q 762 584 762 669 l 762 404 q 746 251 762 318 q 700 134 730 183 q 628 51 670 84 q 533 2 585 18 q 419 -14 480 -14 q 305 2 358 -14 q 210 51 252 18 q 137 134 168 84 q 90 251 106 183 q 74 404 74 318 l 74 584 q 90 737 74 669 q 137 854 106 804 q 209 936 167 903 q 304 985 251 969 q 418 1001 357 1001 m 418 825 q 369 813 391 825 q 333 778 348 802 q 310 713 318 753 q 302 613 302 672 l 302 582 l 534 582 l 534 613 q 529 696 534 661 q 514 755 524 731 q 490 795 504 780 q 457 818 475 810 q 418 825 439 825 m 419 163 q 458 170 440 163 q 490 192 476 176 q 514 232 504 207 q 529 292 524 256 q 534 376 534 328 l 534 414 l 302 414 l 302 376 q 308 292 302 328 q 322 232 313 256 q 347 192 332 207 q 379 170 361 176 q 419 163 397 163 z "},"ι":{"ha":474,"x_min":73,"x_max":433,"o":"m 73 734 l 302 734 l 301 245 q 308 200 301 216 q 331 178 315 184 q 376 172 348 172 q 408 173 395 172 q 433 176 421 174 l 433 12 q 371 -2 403 3 q 304 -7 340 -7 q 179 16 231 -7 q 100 88 127 39 q 73 217 73 138 l 73 734 z "},"λ":{"ha":758,"x_min":-5,"x_max":768,"o":"m 377 446 l 240 0 l -5 0 l 262 755 l 418 755 l 377 446 m 203 1056 q 270 1048 240 1056 q 324 1024 300 1040 q 365 987 348 1009 q 393 937 382 965 l 671 243 q 689 206 679 224 q 713 175 699 188 q 747 163 727 163 q 758 163 753 163 q 768 163 763 163 l 768 -9 q 730 -13 750 -12 q 684 -13 710 -13 q 576 8 620 -13 q 505 64 532 28 q 463 144 477 100 l 289 648 l 214 818 q 192 853 205 840 q 161 872 179 866 q 121 878 144 878 q 101 878 110 878 q 77 876 92 878 l 71 1039 q 136 1052 98 1047 q 203 1056 174 1056 z "},"ξ":{"ha":766,"x_min":72,"x_max":724,"o":"m 678 964 l 642 794 q 578 810 602 804 q 534 818 553 816 q 488 820 515 820 q 419 810 446 820 q 379 781 392 800 q 366 734 366 762 q 373 702 366 717 q 394 675 380 686 q 432 657 409 664 q 489 651 456 651 l 593 651 l 593 527 l 486 527 q 344 539 408 527 q 234 575 280 551 q 162 639 187 600 q 138 731 138 677 q 160 844 138 794 q 224 929 182 894 q 325 982 267 964 q 456 1001 384 1001 q 545 997 509 1001 q 611 985 581 993 q 678 964 642 977 m 494 587 l 593 587 l 593 467 l 496 467 q 390 450 433 467 q 323 398 346 432 q 300 315 300 364 q 321 244 300 272 q 376 200 341 217 q 456 173 412 184 l 517 158 q 626 121 580 143 q 699 64 673 100 q 724 -26 724 29 q 697 -113 724 -67 q 631 -199 671 -158 q 547 -267 591 -239 l 433 -184 q 469 -142 455 -163 q 488 -103 482 -121 q 494 -74 494 -85 q 488 -49 494 -61 q 467 -27 481 -37 q 433 -9 454 -17 l 387 5 q 252 51 311 29 q 153 102 193 73 q 92 180 113 132 q 72 304 72 228 q 100 425 72 372 q 181 514 127 478 q 314 569 235 550 q 494 587 392 587 z "},"π":{"ha":930,"x_min":41,"x_max":901,"o":"m 894 734 l 894 570 l 41 570 l 41 734 l 894 734 m 393 734 l 393 0 l 164 0 l 164 734 l 393 734 m 541 734 l 770 734 l 769 245 q 776 200 769 216 q 799 178 783 184 q 844 172 816 172 q 876 173 863 172 q 901 176 889 174 l 901 12 q 839 -2 871 3 q 772 -7 808 -7 q 647 16 699 -7 q 568 88 595 39 q 541 217 541 138 l 541 734 z "},"ρ":{"ha":781,"x_min":66,"x_max":745,"o":"m 66 -282 l 66 393 q 89 532 66 467 q 156 645 111 596 q 266 720 200 693 q 417 747 331 747 q 558 719 497 747 q 661 640 619 691 q 724 519 703 589 q 745 366 745 449 l 745 351 q 727 204 745 271 q 672 89 709 138 q 583 13 636 39 q 460 -14 530 -14 q 353 14 397 -14 q 278 91 309 41 q 230 205 248 140 q 200 345 211 271 q 220 338 203 343 q 252 330 236 334 q 269 326 267 326 q 280 237 267 274 q 324 181 294 201 q 404 162 355 162 q 458 176 436 162 q 493 215 479 190 q 511 275 506 241 q 517 351 517 310 l 517 366 q 511 446 517 408 q 491 511 505 483 q 455 555 477 539 q 401 571 433 571 q 353 556 373 571 q 319 515 332 542 q 300 450 307 488 q 294 368 294 413 l 294 -282 l 66 -282 z "},"ς":{"ha":697,"x_min":31,"x_max":686,"o":"m 378 747 q 539 713 470 747 q 648 612 609 678 q 686 453 686 547 l 472 453 q 462 513 472 486 q 431 555 452 539 q 378 571 410 571 q 318 555 342 571 q 282 512 295 540 q 264 450 269 485 q 259 374 259 414 l 259 359 q 274 262 259 298 q 320 207 290 227 q 398 172 351 186 q 517 131 471 151 q 586 77 563 110 q 612 -13 609 45 q 588 -99 613 -54 q 523 -186 562 -145 q 440 -254 484 -227 l 321 -171 q 357 -128 343 -149 q 377 -90 371 -107 q 383 -60 384 -72 q 377 -31 383 -43 q 358 -9 370 -18 q 329 4 346 -1 q 163 76 229 33 q 63 189 96 120 q 31 359 31 257 l 31 374 q 53 522 31 454 q 118 641 75 590 q 227 719 161 691 q 378 747 292 747 z "},"σ":{"ha":798,"x_min":34,"x_max":780,"o":"m 34 359 l 34 374 q 57 517 34 451 q 125 631 80 583 q 236 707 170 680 q 388 734 302 734 q 413 701 399 725 q 450 651 427 676 q 516 614 474 626 q 614 556 566 596 q 696 462 663 516 q 728 346 728 408 l 728 332 q 706 194 728 257 q 641 84 684 131 q 535 12 598 37 q 389 -14 472 -14 q 237 14 303 -14 q 125 92 170 42 q 57 211 80 142 q 34 359 34 279 m 262 374 l 262 359 q 269 282 262 318 q 289 219 275 246 q 328 177 303 193 q 389 162 353 162 q 443 177 421 162 q 476 219 464 193 q 494 282 489 246 q 500 359 500 318 l 500 374 q 494 444 500 411 q 477 503 489 477 q 443 543 465 528 q 389 557 421 557 q 328 543 353 557 q 289 503 304 528 q 269 444 275 477 q 262 374 262 411 m 780 734 l 780 557 l 389 557 l 389 734 l 780 734 z "},"τ":{"ha":721,"x_min":16,"x_max":705,"o":"m 705 734 l 705 559 l 16 559 l 16 734 l 705 734 m 237 734 l 467 734 l 467 238 q 473 194 467 211 q 492 171 479 178 q 526 163 505 163 q 564 166 551 163 q 595 172 576 168 l 610 3 q 549 -10 577 -7 q 484 -14 522 -14 q 352 14 407 -14 q 267 98 296 42 q 237 238 237 154 l 237 734 z "},"υ":{"ha":757,"x_min":67,"x_max":712,"o":"m 67 734 l 296 734 l 296 278 q 301 222 296 245 q 315 186 306 199 q 334 168 323 174 q 357 162 345 162 q 412 181 388 162 q 451 232 435 200 q 476 303 467 264 q 484 384 484 343 q 467 562 483 474 q 423 734 450 650 l 635 734 q 673 639 656 692 q 701 522 690 586 q 712 384 712 458 q 692 226 712 298 q 631 99 673 153 q 523 16 589 45 q 364 -14 457 -14 q 243 3 298 -14 q 149 56 189 20 q 89 148 110 92 q 67 279 67 203 l 67 734 z "},"φ":{"ha":1063,"x_min":26,"x_max":1024,"o":"m 412 -324 l 412 533 q 443 644 412 595 q 525 720 474 692 q 635 748 576 748 q 818 714 743 748 q 937 626 892 681 q 1003 508 983 572 q 1024 383 1024 444 q 999 237 1024 308 q 918 109 975 166 q 768 19 862 52 q 534 -14 673 -14 q 292 21 389 -14 q 136 116 194 56 q 52 252 77 176 q 26 412 26 328 q 46 548 26 484 q 99 663 66 612 q 168 747 132 714 l 335 639 q 293 570 311 608 q 266 491 275 532 q 256 412 256 450 q 269 309 256 355 q 313 230 281 263 q 398 180 344 197 q 534 162 452 162 q 693 191 636 162 q 772 270 749 220 q 795 383 795 320 q 786 462 795 427 q 762 522 778 497 q 723 559 746 546 q 671 572 701 572 q 643 560 646 572 q 640 539 640 549 l 640 -324 l 412 -324 z "},"ψ":{"ha":1064,"x_min":39,"x_max":1025,"o":"m 39 734 l 269 734 l 269 396 q 289 281 269 327 q 345 210 309 236 q 427 173 380 184 q 527 162 474 162 q 655 180 604 162 q 738 230 707 197 q 783 309 769 263 q 796 412 796 355 q 776 575 795 494 q 728 734 756 656 l 932 734 q 978 647 957 696 q 1012 539 999 598 q 1025 412 1025 480 q 1000 252 1025 328 q 919 116 975 176 q 768 21 862 56 q 534 -14 673 -14 q 332 9 422 -14 q 175 82 241 33 q 74 211 109 132 q 39 398 39 289 l 39 734 m 412 734 l 641 734 l 641 -324 l 412 -324 l 412 734 z "},"ω":{"ha":1139,"x_min":44,"x_max":1099,"o":"m 782 734 l 994 734 q 1046 639 1023 692 q 1085 522 1070 586 q 1099 384 1099 458 q 1084 226 1099 298 q 1034 100 1069 154 q 939 16 998 46 q 791 -14 879 -14 q 682 11 731 -14 q 596 84 632 36 q 542 202 561 132 q 522 363 522 272 l 522 591 l 694 591 l 694 340 q 702 256 694 290 q 721 202 709 222 q 750 172 734 181 q 784 163 766 163 q 826 182 810 163 q 853 233 843 201 q 867 304 863 264 q 871 384 871 343 q 845 562 869 474 q 782 734 822 650 m 150 734 l 362 734 q 299 562 323 650 q 273 384 275 474 q 275 319 273 351 q 284 259 278 287 q 300 209 290 231 q 325 175 310 187 q 360 163 340 163 q 395 172 378 163 q 423 202 411 181 q 443 256 435 222 q 450 340 450 290 l 450 591 l 622 591 l 622 363 q 603 202 622 272 q 548 84 583 132 q 463 11 512 36 q 353 -14 414 -14 q 231 6 283 -14 q 143 61 179 25 q 85 146 107 96 q 54 256 64 195 q 44 384 44 316 q 59 522 44 458 q 98 639 73 586 q 150 734 122 692 z "},"ϑ":{"ha":838,"x_min":79,"x_max":843,"o":"m 835 568 l 843 381 q 749 359 804 371 q 645 348 695 348 q 441 392 534 348 q 292 515 348 436 q 236 700 236 595 l 236 717 q 272 868 236 805 q 370 966 307 932 q 514 1001 433 1001 q 623 981 574 1001 q 705 923 671 961 q 758 829 739 884 q 776 703 776 774 l 776 316 q 731 144 776 219 q 607 28 687 70 q 420 -14 527 -14 q 281 12 343 -14 q 173 82 218 37 q 104 187 128 127 q 79 316 79 247 l 79 460 l 294 460 l 294 316 q 311 243 294 276 q 359 190 328 210 q 435 170 391 170 q 487 189 466 170 q 520 240 509 207 q 532 316 532 273 l 532 731 q 530 764 532 750 q 524 786 528 777 q 513 800 519 795 q 498 804 507 804 q 473 796 484 804 q 456 772 462 788 q 450 731 450 755 l 450 712 q 471 625 450 663 q 537 565 493 587 q 645 544 581 544 q 746 552 697 544 q 835 568 794 560 z "},"ϒ":{"ha":865,"x_min":-14,"x_max":880,"o":"m 551 480 l 551 0 l 312 0 l 312 480 l 551 480 m 416 471 l 542 828 q 598 930 565 890 q 675 990 631 970 q 774 1009 719 1009 q 832 1003 804 1009 q 880 992 859 998 l 854 819 q 836 820 852 819 q 812 821 819 821 q 781 814 794 821 q 758 798 767 808 q 743 772 748 787 l 544 294 l 398 294 l 416 471 m 324 836 l 453 467 l 467 294 l 318 294 l 122 772 q 106 799 116 788 q 82 815 96 809 q 52 821 68 821 q 29 820 45 821 q 11 819 12 819 l -14 992 q 33 1003 6 998 q 92 1009 59 1009 q 188 994 144 1009 q 266 940 231 978 q 324 836 300 903 z "},"ϖ":{"ha":1181,"x_min":-7,"x_max":1188,"o":"m 1188 734 l 1188 583 l -7 583 l -7 734 l 1188 734 m 819 734 l 1029 734 q 1083 639 1059 692 q 1121 522 1107 586 q 1136 384 1136 458 q 1126 256 1136 316 q 1094 146 1116 195 q 1036 61 1072 96 q 948 6 1000 25 q 824 -14 895 -14 q 708 11 760 -14 q 619 84 656 36 q 561 202 581 132 q 541 363 541 272 l 541 464 l 712 464 l 712 340 q 721 256 712 290 q 744 202 729 222 q 777 172 758 181 q 817 163 795 163 q 854 175 838 163 q 880 209 869 187 q 896 259 890 231 q 905 319 902 287 q 907 384 907 351 q 882 562 905 474 q 819 734 859 650 m 149 734 l 361 734 q 298 562 322 650 q 272 384 275 474 q 275 319 272 351 q 283 259 277 287 q 300 209 290 231 q 326 175 310 187 q 362 163 341 163 q 403 172 384 163 q 436 202 422 181 q 459 256 451 222 q 468 340 468 290 l 468 464 l 640 464 l 640 363 q 619 202 640 272 q 561 84 599 132 q 471 11 524 36 q 355 -14 419 -14 q 232 6 284 -14 q 143 61 180 25 q 85 146 107 96 q 53 256 63 195 q 43 384 43 316 q 58 522 43 458 q 97 639 73 586 q 149 734 121 692 z "},"Ђ":{"ha":1036,"x_min":16,"x_max":1005,"o":"m 380 390 l 380 568 q 457 586 416 577 q 543 602 498 595 q 633 608 587 608 q 825 575 741 608 q 957 476 909 543 q 1005 302 1005 408 q 987 196 1005 252 q 925 93 969 141 q 804 16 881 45 q 609 -14 727 -14 l 609 158 q 701 172 668 158 q 747 208 733 186 q 765 251 762 229 q 768 287 768 273 q 751 359 769 328 q 699 408 732 390 q 618 425 665 425 q 531 421 568 425 q 458 410 494 418 q 380 390 423 402 m 482 987 l 482 0 l 244 0 l 244 987 l 482 987 m 788 987 l 788 804 l 16 804 l 16 987 l 788 987 z "},"Є":{"ha":903,"x_min":47,"x_max":875,"o":"m 548 585 l 548 401 l 149 401 l 149 585 l 548 585 m 635 334 l 873 334 q 818 152 869 231 q 676 30 766 73 q 465 -14 587 -14 q 289 19 366 -14 q 157 115 211 52 q 75 266 103 177 q 47 466 47 355 l 47 519 q 76 720 47 631 q 160 871 106 808 q 291 968 215 935 q 462 1001 368 1001 q 680 955 591 1001 q 817 828 768 909 q 875 646 866 748 l 638 646 q 618 740 636 701 q 563 798 601 778 q 462 817 526 817 q 385 800 418 817 q 329 748 352 783 q 295 656 307 712 q 284 520 284 600 l 284 466 q 291 354 284 403 q 311 271 297 306 q 345 213 324 235 q 396 179 366 190 q 465 168 426 168 q 557 186 519 168 q 615 241 595 205 q 635 334 635 278 z "},"Љ":{"ha":1457,"x_min":25,"x_max":1423,"o":"m 219 987 l 456 987 l 430 486 q 407 289 424 372 q 361 151 390 207 q 293 62 333 95 q 200 14 253 28 q 83 0 148 0 l 25 0 l 25 183 l 51 186 q 106 203 82 189 q 147 245 130 217 q 176 316 164 273 q 194 421 187 359 q 204 567 201 484 l 219 987 m 745 987 l 745 804 l 235 804 l 235 987 l 745 987 m 817 668 l 1028 668 q 1237 625 1148 668 q 1375 506 1326 581 q 1423 334 1423 431 q 1396 201 1423 262 q 1316 95 1368 140 q 1191 25 1264 50 q 1028 0 1118 0 l 668 0 l 668 987 l 906 987 l 906 183 l 1028 183 q 1114 204 1079 183 q 1167 260 1149 226 q 1185 336 1185 295 q 1167 409 1185 375 q 1114 464 1149 443 q 1028 485 1079 485 l 817 485 l 817 668 z "},"Њ":{"ha":1454,"x_min":74,"x_max":1420,"o":"m 743 574 l 743 391 l 233 391 l 233 574 l 743 574 m 311 987 l 311 0 l 74 0 l 74 987 l 311 987 m 814 671 l 1025 671 q 1234 628 1145 671 q 1372 508 1323 584 q 1420 336 1420 433 q 1392 201 1420 262 q 1313 95 1364 140 q 1188 25 1261 50 q 1025 0 1116 0 l 665 0 l 665 987 l 903 987 l 903 182 l 1025 182 q 1112 203 1076 182 q 1165 261 1147 225 q 1183 337 1183 296 q 1165 411 1183 376 q 1112 467 1147 446 q 1025 488 1076 488 l 814 488 l 814 671 z "},"Ћ":{"ha":1039,"x_min":12,"x_max":980,"o":"m 980 1 l 743 1 l 743 301 q 724 394 743 361 q 666 440 705 427 q 569 454 627 454 q 526 452 554 454 q 466 447 498 450 q 406 439 433 444 q 364 429 378 435 l 364 612 q 408 622 379 617 q 470 630 437 627 q 530 635 503 633 q 569 637 557 637 q 785 601 693 637 q 929 491 878 565 q 980 301 980 416 l 980 1 m 463 987 l 463 0 l 224 0 l 224 987 l 463 987 m 759 987 l 759 804 l 12 804 l 12 987 l 759 987 z "},"Џ":{"ha":962,"x_min":58,"x_max":889,"o":"m 58 0 l 58 987 l 296 987 l 296 183 l 650 183 l 650 987 l 889 987 l 889 0 l 58 0 m 604 184 l 604 -244 l 366 -244 l 366 184 l 604 184 z "},"Б":{"ha":867,"x_min":75,"x_max":831,"o":"m 742 987 l 742 804 l 313 804 l 313 0 l 75 0 l 75 987 l 742 987 m 224 648 l 437 648 q 646 608 557 648 q 783 496 734 568 q 831 328 831 424 q 804 195 831 255 q 724 91 776 135 q 600 24 672 47 q 437 0 527 0 l 76 0 l 76 987 l 315 987 l 315 183 l 437 183 q 523 203 488 183 q 576 255 557 222 q 594 329 594 288 q 576 399 594 368 q 523 447 557 429 q 437 465 488 465 l 224 465 l 224 648 z "},"Д":{"ha":1031,"x_min":10,"x_max":1024,"o":"m 862 183 l 862 0 l 168 0 l 168 183 l 862 183 m 247 183 l 247 -242 l 26 -242 l 10 183 l 247 183 m 1024 183 l 999 -243 l 785 -243 l 785 183 l 1024 183 m 758 987 l 758 804 l 262 804 l 262 987 l 758 987 m 918 987 l 918 0 l 682 0 l 682 987 l 918 987 m 247 987 l 484 987 l 455 583 q 431 402 448 479 q 393 270 415 326 q 344 174 370 214 q 289 104 317 134 q 231 50 260 75 q 176 0 203 26 l 32 0 l 32 183 l 79 183 q 122 223 100 198 q 162 293 143 249 q 195 408 181 337 q 217 583 210 478 l 247 987 z "},"Ж":{"ha":1449,"x_min":7,"x_max":1452,"o":"m 405 386 l 16 987 l 317 987 l 519 600 l 683 600 l 654 386 l 405 386 m 513 427 l 304 0 l 7 0 l 311 547 l 513 427 m 853 987 l 853 0 l 616 0 l 616 987 l 853 987 m 1442 987 l 1063 386 l 812 386 l 783 600 l 949 600 l 1143 987 l 1442 987 m 1155 0 l 954 427 l 1158 547 l 1452 0 l 1155 0 z "},"З":{"ha":874,"x_min":42,"x_max":810,"o":"m 476 473 l 306 473 l 306 592 l 432 592 q 503 607 476 592 q 543 649 530 621 q 556 713 556 676 q 542 765 556 741 q 497 803 527 789 q 421 817 467 817 q 357 806 386 817 q 311 772 328 794 q 294 718 294 750 l 56 718 q 85 836 56 784 q 165 925 115 888 q 282 981 216 962 q 421 1000 348 1000 q 574 982 506 1000 q 692 929 643 964 q 768 841 741 894 q 794 720 794 789 q 771 624 794 669 q 707 545 749 579 q 606 492 665 511 q 476 473 547 473 m 306 533 l 476 533 q 617 516 555 533 q 722 467 679 499 q 787 386 765 434 q 810 277 810 338 q 781 154 810 208 q 700 62 752 100 q 577 6 648 25 q 421 -13 506 -13 q 285 4 353 -13 q 163 55 218 20 q 75 144 108 90 q 42 274 42 198 l 281 274 q 299 220 281 244 q 349 183 317 197 q 421 170 380 170 q 502 184 469 170 q 553 225 536 199 q 571 282 571 251 q 562 344 571 319 q 536 386 553 370 q 492 409 518 401 q 432 416 466 416 l 306 416 l 306 533 z "},"И":{"ha":962,"x_min":62,"x_max":892,"o":"m 300 364 l 654 987 l 892 987 l 892 0 l 654 0 l 654 623 l 300 0 l 62 0 l 62 987 l 300 987 l 300 364 z "},"Л":{"ha":979,"x_min":25,"x_max":906,"o":"m 745 987 l 745 804 l 235 804 l 235 987 l 745 987 m 906 987 l 906 0 l 668 0 l 668 987 l 906 987 m 219 987 l 456 987 l 430 486 q 407 289 424 372 q 361 151 390 207 q 293 62 333 95 q 200 14 253 28 q 83 0 148 0 l 25 0 l 25 183 l 51 186 q 106 203 82 189 q 147 245 130 217 q 176 316 164 273 q 194 421 187 359 q 204 567 201 484 l 219 987 z "},"У":{"ha":879,"x_min":3,"x_max":873,"o":"m 388 372 l 621 987 l 873 987 l 540 204 q 496 121 521 161 q 438 52 471 82 q 359 3 404 21 q 252 -14 313 -14 q 216 -14 237 -14 q 179 -13 195 -14 l 175 172 q 199 169 184 170 q 222 169 215 169 q 286 179 262 169 q 324 209 310 189 q 348 260 338 229 l 388 372 m 256 987 l 458 559 l 535 285 l 364 285 l 3 987 l 256 987 z "},"Ф":{"ha":1164,"x_min":45,"x_max":1120,"o":"m 461 903 l 708 903 q 873 874 798 903 q 1004 791 948 845 q 1090 660 1059 736 q 1120 488 1120 583 q 1090 321 1120 395 q 1004 193 1059 246 q 873 112 948 140 q 708 84 798 84 l 461 84 q 295 112 371 84 q 163 193 219 140 q 76 320 107 245 q 45 486 45 394 q 76 659 45 582 q 163 790 107 735 q 295 874 219 845 q 461 903 371 903 m 461 712 q 363 688 407 712 q 295 613 320 663 q 270 486 270 564 q 285 393 270 433 q 326 327 300 353 q 387 288 353 301 q 461 275 422 275 l 709 275 q 804 299 762 275 q 871 370 846 322 q 896 488 896 417 q 882 587 896 545 q 842 657 867 629 q 783 699 817 685 q 709 712 749 712 l 461 712 m 699 1028 l 699 -41 l 470 -41 l 470 1028 l 699 1028 z "},"Ц":{"ha":1072,"x_min":58,"x_max":1040,"o":"m 1040 181 l 1026 -238 l 802 -238 l 802 0 l 728 0 l 728 181 l 1040 181 m 58 0 l 58 987 l 296 987 l 296 183 l 650 183 l 650 987 l 889 987 l 889 0 l 58 0 z "},"Ч":{"ha":970,"x_min":91,"x_max":898,"o":"m 91 987 l 329 987 l 329 687 q 348 594 329 627 q 406 547 368 561 q 503 534 445 534 q 546 535 517 534 q 606 541 574 537 q 665 548 637 544 q 707 559 693 553 l 707 376 q 663 366 692 370 q 602 357 634 361 q 542 352 569 354 q 503 351 514 351 q 286 387 378 351 q 142 497 193 422 q 91 687 91 572 l 91 987 m 660 987 l 898 987 l 898 0 l 660 0 l 660 987 z "},"Ш":{"ha":1342,"x_min":70,"x_max":1272,"o":"m 70 987 l 309 987 l 309 183 l 554 183 l 554 987 l 792 987 l 792 183 l 1034 183 l 1034 987 l 1272 987 l 1272 0 l 70 0 l 70 987 z "},"Щ":{"ha":1453,"x_min":70,"x_max":1417,"o":"m 1417 176 l 1404 -237 l 1189 -237 l 1189 1 l 1113 1 l 1113 176 l 1417 176 m 70 987 l 309 987 l 309 183 l 554 183 l 554 987 l 792 987 l 792 183 l 1034 183 l 1034 987 l 1272 987 l 1272 0 l 70 0 l 70 987 z "},"Ъ":{"ha":1082,"x_min":19,"x_max":1046,"o":"m 19 811 l 19 987 l 394 987 l 394 811 l 19 811 m 439 648 l 652 648 q 861 608 772 648 q 998 496 949 568 q 1046 328 1046 424 q 1019 195 1046 255 q 939 91 991 135 q 814 24 887 47 q 652 0 742 0 l 291 0 l 291 987 l 530 987 l 530 183 l 652 183 q 738 203 703 183 q 790 255 772 222 q 808 329 808 288 q 790 399 808 368 q 738 447 772 429 q 652 465 703 465 l 439 465 l 439 648 z "},"Ы":{"ha":1211,"x_min":75,"x_max":1139,"o":"m 223 648 l 435 648 q 644 608 555 648 q 782 496 733 568 q 830 328 830 424 q 802 195 830 255 q 723 91 774 135 q 598 24 671 47 q 435 0 526 0 l 75 0 l 75 987 l 313 987 l 313 183 l 435 183 q 521 203 486 183 q 574 255 556 222 q 593 329 593 288 q 574 399 593 368 q 521 447 556 429 q 435 465 486 465 l 223 465 l 223 648 m 1139 987 l 1139 0 l 902 0 l 902 987 l 1139 987 z "},"Ь":{"ha":865,"x_min":76,"x_max":831,"o":"m 224 648 l 437 648 q 646 608 557 648 q 783 496 734 568 q 831 328 831 424 q 804 195 831 255 q 724 91 776 135 q 600 24 672 47 q 437 0 527 0 l 76 0 l 76 987 l 315 987 l 315 183 l 437 183 q 523 203 488 183 q 576 255 557 222 q 594 329 594 288 q 576 399 594 368 q 523 447 557 429 q 437 465 488 465 l 224 465 l 224 648 z "},"Э":{"ha":884,"x_min":10,"x_max":838,"o":"m 753 586 l 753 402 l 326 402 l 326 586 l 753 586 m 12 334 l 249 334 q 271 241 251 278 q 329 186 291 205 q 420 168 366 168 q 504 185 469 168 q 559 239 538 203 q 591 331 581 275 q 602 466 602 387 l 602 520 q 594 632 602 583 q 573 716 587 681 q 537 773 558 751 q 487 806 515 795 q 423 817 458 817 q 322 798 360 817 q 267 740 284 778 q 248 646 250 701 l 10 646 q 68 828 20 748 q 206 955 117 909 q 423 1001 294 1001 q 594 968 517 1001 q 725 871 671 935 q 809 720 780 808 q 838 519 838 631 l 838 466 q 810 266 838 355 q 728 115 782 177 q 597 19 674 52 q 420 -14 519 -14 q 209 30 299 -14 q 68 152 119 73 q 12 334 17 231 z "},"Ю":{"ha":1350,"x_min":83,"x_max":1281,"o":"m 321 987 l 321 0 l 83 0 l 83 987 l 321 987 m 492 557 l 492 380 l 206 380 l 206 557 l 492 557 m 1281 513 l 1281 473 q 1250 270 1281 360 q 1160 117 1218 180 q 1024 20 1103 54 q 850 -14 945 -14 q 676 20 755 -14 q 539 117 597 54 q 449 270 481 180 q 418 473 418 360 l 418 513 q 449 717 418 627 q 538 870 481 807 q 674 967 595 934 q 849 1001 753 1001 q 1023 967 944 1001 q 1160 870 1102 934 q 1249 717 1217 807 q 1281 513 1281 627 m 1040 473 l 1040 515 q 1027 644 1040 588 q 990 738 1015 700 q 930 795 966 776 q 849 814 895 814 q 766 795 802 814 q 707 738 731 776 q 672 644 684 700 q 660 515 660 588 l 660 473 q 672 345 660 401 q 708 250 684 289 q 767 192 732 212 q 850 172 803 172 q 931 192 896 172 q 990 250 966 212 q 1027 345 1015 289 q 1040 473 1040 401 z "},"Я":{"ha":795,"x_min":-62,"x_max":739,"o":"m 589 347 l 326 347 l 255 376 q 71 489 134 414 q 8 680 8 564 q 54 850 8 782 q 182 953 99 918 q 380 987 266 987 l 739 987 l 739 0 l 500 0 l 500 804 l 380 804 q 277 767 309 804 q 245 659 245 730 q 261 574 245 605 q 306 529 276 543 q 380 516 336 516 l 588 516 l 589 347 m 406 435 l 197 0 l -62 0 l 144 435 l 406 435 z "},"б":{"ha":803,"x_min":52,"x_max":762,"o":"m 507 1058 l 690 1058 q 680 970 690 1009 q 642 900 670 931 q 561 847 614 869 q 421 808 508 824 q 328 771 366 798 q 267 700 290 745 q 235 588 244 654 q 228 431 226 522 l 228 412 l 53 381 l 53 399 q 77 636 54 536 q 143 806 100 737 q 247 917 186 876 q 384 975 308 958 q 459 996 432 986 q 496 1021 486 1006 q 507 1058 507 1035 m 450 693 q 585 667 526 693 q 682 595 643 642 q 742 485 722 548 q 762 347 762 421 l 762 332 q 739 194 762 258 q 671 84 716 131 q 561 12 627 37 q 408 -14 494 -14 q 256 15 322 -14 q 144 96 189 43 q 76 218 99 148 q 53 373 53 289 l 53 387 q 65 405 52 397 q 95 427 77 414 q 125 463 112 440 q 224 596 174 545 q 330 670 274 646 q 450 693 385 693 m 407 517 q 331 493 359 517 q 293 431 304 470 q 281 347 281 393 l 281 332 q 288 266 281 296 q 308 211 294 235 q 347 175 322 188 q 408 162 372 162 q 469 175 444 162 q 507 211 493 188 q 528 266 522 235 q 534 332 534 296 l 534 347 q 528 412 534 381 q 507 466 522 443 q 468 503 493 490 q 407 517 444 517 z "},"в":{"ha":780,"x_min":80,"x_max":751,"o":"m 442 299 l 217 299 l 216 440 l 403 440 q 447 446 431 440 q 471 465 464 452 q 478 495 478 477 q 473 525 478 513 q 457 545 468 537 q 431 555 447 552 q 395 559 416 559 l 309 559 l 309 0 l 80 0 l 80 734 l 395 734 q 525 721 467 734 q 623 683 583 709 q 685 619 663 658 q 707 528 707 581 q 690 465 707 494 q 643 412 674 435 q 565 374 611 389 q 459 356 519 359 l 442 299 m 442 0 l 168 0 l 237 175 l 442 175 q 488 182 471 175 q 514 202 506 189 q 522 235 522 216 q 515 269 522 254 q 491 291 509 283 q 442 299 474 299 l 263 299 l 264 440 l 458 440 l 507 382 q 646 353 592 378 q 725 292 700 329 q 751 210 751 254 q 731 118 751 157 q 671 53 711 79 q 575 13 632 26 q 442 0 517 0 z "},"г":{"ha":582,"x_min":60,"x_max":578,"o":"m 578 734 l 578 557 l 289 557 l 289 0 l 60 0 l 60 734 l 578 734 z "},"д":{"ha":894,"x_min":18,"x_max":880,"o":"m 199 734 l 427 734 l 424 503 q 395 289 422 378 q 323 140 368 199 q 219 47 277 81 q 95 0 160 14 l 71 0 l 66 174 l 83 176 q 147 254 124 217 q 179 328 170 291 q 192 408 189 366 q 195 503 195 450 l 199 734 m 262 734 l 770 734 l 770 0 l 542 0 l 542 557 l 262 557 l 262 734 m 18 176 l 880 176 l 880 -222 l 651 -222 l 651 0 l 253 0 l 253 -222 l 18 -222 l 18 176 z "},"ж":{"ha":1253,"x_min":25,"x_max":1237,"o":"m 343 256 l 25 734 l 311 734 l 450 470 l 587 470 l 562 256 l 343 256 m 452 299 l 306 0 l 34 0 l 254 395 l 452 299 m 744 734 l 744 0 l 516 0 l 516 734 l 744 734 m 1237 734 l 919 256 l 701 256 l 675 470 l 812 470 l 951 734 l 1237 734 m 956 0 l 810 299 l 1016 395 l 1235 0 l 956 0 z "},"з":{"ha":718,"x_min":41,"x_max":686,"o":"m 419 350 l 269 350 l 269 442 l 363 442 q 410 451 392 442 q 436 476 428 460 q 445 512 445 492 q 439 546 445 530 q 417 573 433 562 q 369 584 401 584 q 323 577 342 584 q 292 556 303 570 q 281 521 281 543 l 52 521 q 93 643 52 592 q 202 720 134 693 q 353 747 271 747 q 485 733 426 747 q 586 692 544 719 q 651 625 628 665 q 673 533 673 585 q 656 463 673 496 q 605 404 638 429 q 525 364 572 378 q 419 350 477 350 m 269 399 l 419 399 q 534 386 484 399 q 618 349 584 374 q 669 289 652 325 q 686 208 686 254 q 662 114 686 155 q 593 45 637 73 q 487 1 548 16 q 353 -14 426 -14 q 205 11 277 -14 q 87 86 133 35 q 41 217 41 137 l 270 217 q 280 183 270 199 q 312 158 290 168 q 370 149 334 149 q 424 161 404 149 q 451 191 443 172 q 458 228 458 209 q 448 275 458 257 q 415 301 437 292 q 363 309 394 309 l 269 309 l 269 399 z "},"и":{"ha":779,"x_min":60,"x_max":720,"o":"m 290 308 l 492 734 l 720 734 l 720 0 l 492 0 l 492 427 l 290 0 l 60 0 l 60 734 l 290 734 l 290 308 z "},"к":{"ha":796,"x_min":80,"x_max":806,"o":"m 309 734 l 309 0 l 80 0 l 80 734 l 309 734 m 784 734 l 483 256 l 278 256 l 252 470 l 375 470 l 491 734 l 784 734 m 496 0 l 358 299 l 570 395 l 806 0 l 496 0 z "},"л":{"ha":781,"x_min":7,"x_max":720,"o":"m 562 734 l 562 557 l 199 557 l 199 734 l 562 734 m 720 734 l 720 0 l 492 0 l 492 734 l 720 734 m 141 734 l 364 734 l 344 356 q 326 218 340 277 q 289 118 312 159 q 235 50 267 76 q 165 12 204 24 q 79 0 125 0 l 10 0 l 7 175 l 31 178 q 64 190 50 180 q 89 218 78 200 q 107 265 100 237 q 120 332 115 294 q 127 421 125 371 l 141 734 z "},"м":{"ha":1066,"x_min":80,"x_max":977,"o":"m 524 252 l 690 734 l 867 734 l 601 0 l 448 0 l 182 734 l 360 734 l 524 252 m 309 734 l 309 0 l 80 0 l 80 734 l 309 734 m 749 0 l 749 734 l 977 734 l 977 0 l 749 0 z "},"н":{"ha":779,"x_min":60,"x_max":718,"o":"m 572 448 l 572 272 l 205 272 l 205 448 l 572 448 m 289 734 l 289 0 l 60 0 l 60 734 l 289 734 m 718 734 l 718 0 l 489 0 l 489 734 l 718 734 z "},"п":{"ha":779,"x_min":60,"x_max":720,"o":"m 562 734 l 562 557 l 215 557 l 215 734 l 562 734 m 289 734 l 289 0 l 60 0 l 60 734 l 289 734 m 720 734 l 720 0 l 491 0 l 491 734 l 720 734 z "},"т":{"ha":728,"x_min":18,"x_max":707,"o":"m 475 734 l 475 0 l 246 0 l 246 734 l 475 734 m 707 734 l 707 559 l 18 559 l 18 734 l 707 734 z "},"ф":{"ha":1019,"x_min":36,"x_max":983,"o":"m 983 366 l 983 351 q 966 204 983 271 q 913 89 948 138 q 828 13 878 40 q 711 -14 777 -14 q 600 14 646 -14 q 523 91 554 42 q 472 205 492 140 q 442 345 453 271 l 442 363 q 472 512 453 442 q 522 635 491 582 q 600 718 553 688 q 709 747 646 747 q 806 729 763 747 q 883 677 850 711 q 938 596 916 644 q 972 491 960 549 q 983 366 983 433 m 754 351 l 754 366 q 751 430 754 399 q 740 487 747 461 q 721 532 732 513 q 692 561 709 551 q 652 571 675 571 q 570 548 602 571 q 524 483 538 526 q 510 381 509 441 l 510 326 q 524 238 509 274 q 570 182 538 201 q 654 163 602 163 q 702 177 682 163 q 732 216 721 191 q 749 276 744 241 q 754 351 754 310 m 36 351 l 36 366 q 47 491 36 433 q 81 596 59 549 q 137 677 104 644 q 213 729 170 711 q 309 747 256 747 q 420 718 374 747 q 497 635 466 688 q 548 512 528 582 q 578 363 567 442 l 578 346 q 548 206 567 271 q 497 92 528 141 q 419 14 465 42 q 308 -14 373 -14 q 191 13 242 -14 q 106 89 140 40 q 54 204 71 138 q 36 351 36 271 m 264 366 l 264 351 q 270 276 264 310 q 287 216 275 241 q 318 177 298 191 q 366 163 338 163 q 450 183 418 163 q 497 239 482 202 q 510 328 511 275 l 510 381 q 497 483 511 441 q 451 548 482 526 q 368 571 419 571 q 319 555 339 571 q 288 511 300 539 q 270 446 275 483 q 264 366 264 408 m 395 -282 l 395 1042 l 625 1042 l 625 -282 l 395 -282 z "},"ц":{"ha":855,"x_min":60,"x_max":841,"o":"m 60 0 l 60 734 l 289 734 l 289 176 l 491 176 l 491 734 l 720 734 l 720 0 l 60 0 m 841 175 l 827 -218 l 612 -218 l 612 0 l 536 0 l 536 175 l 841 175 z "},"ч":{"ha":775,"x_min":55,"x_max":716,"o":"m 716 734 l 716 0 l 487 0 l 487 734 l 716 734 m 600 431 l 600 254 q 552 235 585 244 q 481 219 518 225 q 419 214 444 214 q 223 243 304 214 q 98 335 142 272 q 55 497 55 397 l 55 734 l 283 734 l 283 497 q 296 430 283 453 q 339 398 309 406 q 419 390 369 390 q 476 395 448 390 q 535 409 505 399 q 600 431 566 418 z "},"ш":{"ha":1160,"x_min":60,"x_max":1090,"o":"m 60 734 l 289 734 l 289 176 l 460 176 l 460 734 l 690 734 l 690 176 l 862 176 l 862 734 l 1090 734 l 1090 0 l 60 0 l 60 734 z "},"щ":{"ha":1301,"x_min":61,"x_max":1259,"o":"m 1259 175 l 1246 -218 l 1030 -218 l 1030 0 l 955 0 l 955 175 l 1259 175 m 61 734 l 290 734 l 290 176 l 462 176 l 462 734 l 691 734 l 691 176 l 863 176 l 863 734 l 1092 734 l 1092 0 l 61 0 l 61 734 z "},"ъ":{"ha":939,"x_min":24,"x_max":916,"o":"m 433 734 l 433 557 l 24 557 l 24 734 l 433 734 m 368 532 l 576 532 q 759 499 683 532 q 875 405 834 465 q 916 263 916 344 q 892 157 916 205 q 826 74 869 109 q 719 19 782 39 q 576 0 656 0 l 231 0 l 231 734 l 460 734 l 460 175 l 576 175 q 640 187 616 175 q 676 220 665 199 q 688 264 688 240 q 676 312 688 292 q 640 345 665 333 q 576 357 616 357 l 368 357 l 368 532 z "},"ы":{"ha":1184,"x_min":80,"x_max":1103,"o":"m 217 532 l 426 532 q 607 499 532 532 q 724 405 683 465 q 764 263 764 344 q 741 157 764 205 q 674 74 718 109 q 568 19 631 39 q 426 0 505 0 l 80 0 l 80 734 l 309 734 l 309 175 l 426 175 q 489 187 465 175 q 525 220 513 199 q 536 264 536 240 q 525 312 536 292 q 489 345 513 333 q 426 357 465 357 l 217 357 l 217 532 m 1103 734 l 1103 0 l 873 0 l 873 734 l 1103 734 z "},"ь":{"ha":785,"x_min":80,"x_max":764,"o":"m 217 532 l 426 532 q 607 499 532 532 q 724 405 683 465 q 764 263 764 344 q 741 157 764 205 q 674 74 718 109 q 568 19 631 39 q 426 0 505 0 l 80 0 l 80 734 l 309 734 l 309 175 l 426 175 q 489 187 465 175 q 525 220 513 199 q 536 264 536 240 q 525 312 536 292 q 489 345 513 333 q 426 357 465 357 l 217 357 l 217 532 z "},"э":{"ha":709,"x_min":31,"x_max":686,"o":"m 337 571 q 284 559 305 571 q 254 526 264 547 q 245 473 245 504 l 31 473 q 70 617 31 555 q 179 713 110 679 q 337 747 249 747 q 489 719 424 747 q 598 641 554 691 q 664 522 642 590 q 686 374 686 454 l 686 359 q 664 212 686 279 q 598 93 642 144 q 490 15 555 43 q 339 -14 425 -14 q 177 21 247 -14 q 69 121 108 56 q 31 281 31 187 l 245 281 q 255 221 245 248 q 285 178 264 194 q 339 163 306 163 q 398 178 375 163 q 434 221 421 194 q 451 284 446 248 q 456 359 456 319 l 456 374 q 452 451 456 415 q 434 513 447 486 q 398 556 421 541 q 337 571 374 571 m 521 430 l 521 306 l 293 306 l 293 430 l 521 430 z "},"ю":{"ha":1124,"x_min":84,"x_max":1085,"o":"m 522 463 l 522 286 l 122 286 l 122 463 l 522 463 m 313 734 l 313 0 l 84 0 l 84 734 l 313 734 m 377 359 l 377 374 q 400 523 377 454 q 468 641 423 591 q 579 719 513 691 q 730 747 645 747 q 883 719 817 747 q 995 641 949 691 q 1062 523 1040 591 q 1085 374 1085 454 l 1085 359 q 1062 211 1085 279 q 995 93 1040 143 q 884 14 950 42 q 732 -14 818 -14 q 579 14 646 -14 q 468 93 513 42 q 400 211 423 143 q 377 359 377 279 m 606 374 l 606 359 q 612 282 606 318 q 632 219 618 246 q 671 178 646 193 q 732 163 695 163 q 792 178 768 163 q 830 219 816 193 q 850 282 844 246 q 857 359 857 318 l 857 374 q 850 449 857 414 q 830 512 844 485 q 791 555 816 540 q 730 571 767 571 q 670 555 694 571 q 632 512 646 540 q 612 449 618 485 q 606 374 606 414 z "},"я":{"ha":784,"x_min":30,"x_max":703,"o":"m 229 374 l 457 374 l 257 0 l 30 0 l 229 374 m 373 734 l 703 734 l 703 0 l 475 0 l 475 559 l 373 559 q 317 546 340 559 q 283 513 294 533 q 271 473 271 493 q 283 434 271 453 q 318 402 294 415 q 375 390 341 390 l 566 390 l 566 243 l 375 243 q 237 260 298 243 q 132 310 176 278 q 66 386 89 342 q 43 481 43 429 q 66 582 43 536 q 132 662 89 628 q 236 715 175 696 q 373 734 297 734 z "},"ђ":{"ha":784,"x_min":-46,"x_max":722,"o":"m 492 323 l 722 323 l 722 -10 q 688 -166 722 -102 q 592 -263 654 -231 q 444 -296 530 -296 q 390 -294 415 -296 q 335 -285 364 -292 l 345 -112 q 376 -118 362 -116 q 412 -120 389 -120 q 456 -108 438 -120 q 483 -71 473 -96 q 492 -10 492 -46 l 492 323 m 288 1042 l 288 0 l 60 0 l 60 1042 l 288 1042 m 261 392 l 208 391 q 227 533 208 468 q 281 646 245 598 q 366 721 316 694 q 475 747 415 747 q 575 732 530 747 q 653 682 620 716 q 704 591 686 647 q 722 456 722 536 l 722 0 l 492 0 l 492 457 q 479 527 492 502 q 444 561 467 551 q 387 571 420 571 q 322 557 347 571 q 284 520 297 544 q 266 463 271 496 q 261 392 261 431 m 450 932 l 450 803 l -46 803 l -46 932 l 450 932 z "},"є":{"ha":709,"x_min":31,"x_max":685,"o":"m 437 418 l 437 294 l 214 294 l 214 418 l 437 418 m 369 163 q 424 175 401 163 q 458 209 446 186 q 469 262 470 231 l 684 262 q 644 117 685 179 q 533 21 603 55 q 374 -14 463 -14 q 224 15 288 -14 q 116 93 159 43 q 52 212 73 144 q 31 359 31 279 l 31 374 q 52 522 31 454 q 116 641 73 590 q 223 719 159 691 q 373 747 288 747 q 535 713 465 747 q 645 612 605 678 q 684 453 685 547 l 469 453 q 459 513 470 486 q 426 555 448 539 q 368 571 403 571 q 311 555 332 571 q 278 512 289 540 q 263 450 267 485 q 259 374 259 414 l 259 359 q 263 282 259 318 q 278 220 267 247 q 311 178 290 193 q 369 163 333 163 z "},"љ":{"ha":1202,"x_min":7,"x_max":1179,"o":"m 141 734 l 364 734 l 344 356 q 326 218 340 277 q 289 118 312 159 q 235 50 267 76 q 165 12 204 24 q 80 0 126 0 l 10 0 l 7 175 l 31 178 q 64 190 50 180 q 89 218 78 200 q 107 265 100 237 q 120 332 115 294 q 127 421 125 371 l 141 734 m 566 734 l 566 557 l 199 557 l 199 734 l 566 734 m 632 519 l 840 519 q 1022 486 947 519 q 1139 395 1098 453 q 1179 260 1179 336 q 1156 154 1179 202 q 1089 72 1133 106 q 983 19 1046 37 q 840 0 920 0 l 495 0 l 495 734 l 724 734 l 724 175 l 840 175 q 904 186 880 175 q 940 217 928 198 q 951 261 951 237 q 940 303 951 285 q 904 332 928 321 q 840 343 880 343 l 632 343 l 632 519 z "},"њ":{"ha":1196,"x_min":60,"x_max":1173,"o":"m 572 448 l 572 272 l 205 272 l 205 448 l 572 448 m 289 734 l 289 0 l 60 0 l 60 734 l 289 734 m 626 519 l 834 519 q 1016 486 941 519 q 1133 395 1092 453 q 1173 260 1173 336 q 1150 154 1173 202 q 1083 72 1127 106 q 977 19 1040 37 q 834 0 913 0 l 489 0 l 489 734 l 718 734 l 718 175 l 834 175 q 898 186 873 175 q 934 217 922 198 q 945 261 945 237 q 934 303 945 285 q 898 332 922 321 q 834 343 873 343 l 626 343 l 626 519 z "},"ћ":{"ha":781,"x_min":-40,"x_max":722,"o":"m 288 1042 l 288 0 l 60 0 l 60 1042 l 288 1042 m 261 392 l 208 391 q 227 533 208 468 q 281 646 245 598 q 366 721 316 694 q 475 747 415 747 q 575 732 530 747 q 653 682 620 716 q 704 591 686 647 q 722 456 722 536 l 722 0 l 492 0 l 492 457 q 479 527 492 502 q 444 561 467 551 q 387 571 420 571 q 322 557 347 571 q 284 520 297 544 q 266 463 271 496 q 261 392 261 431 m 456 943 l 456 813 l -40 813 l -40 943 l 456 943 z "},"џ":{"ha":779,"x_min":60,"x_max":720,"o":"m 275 176 l 504 176 l 504 -244 l 275 -244 l 275 176 m 60 734 l 289 734 l 289 176 l 491 176 l 491 734 l 720 734 l 720 0 l 60 0 l 60 734 z "},"Ѡ":{"ha":1367,"x_min":68,"x_max":1286,"o":"m 559 987 l 753 987 l 753 333 q 729 184 753 249 q 663 75 705 119 q 563 8 621 31 q 437 -14 505 -14 q 290 8 357 -14 q 173 75 223 31 q 96 184 123 119 q 68 333 68 249 l 68 987 l 307 987 l 307 333 q 316 259 307 290 q 342 208 325 228 q 383 178 359 188 q 437 169 407 169 q 503 186 476 169 q 545 239 530 203 q 559 333 559 275 l 559 987 m 1048 987 l 1286 987 l 1286 333 q 1239 143 1286 220 q 1110 26 1192 66 q 923 -14 1028 -14 q 795 8 854 -14 q 693 75 736 31 q 626 184 650 119 q 602 333 602 249 l 602 987 l 795 987 l 795 333 q 804 259 795 290 q 830 208 813 228 q 870 178 847 188 q 923 169 894 169 q 991 186 963 169 q 1033 239 1019 203 q 1048 333 1048 275 l 1048 987 z "},"ѡ":{"ha":1185,"x_min":60,"x_max":1143,"o":"m 491 734 l 678 734 l 678 327 q 657 180 678 243 q 596 73 635 117 q 504 8 557 30 q 385 -14 450 -14 q 254 8 313 -14 q 151 73 194 30 q 83 180 107 117 q 60 327 60 243 l 60 734 l 290 734 l 290 327 q 296 252 290 283 q 314 201 302 221 q 343 172 326 181 q 385 162 361 162 q 445 179 421 162 q 479 233 468 197 q 491 327 491 269 l 491 734 m 914 734 l 1143 734 l 1143 327 q 1103 140 1143 216 q 989 25 1062 64 q 822 -14 917 -14 q 703 8 756 -14 q 612 73 650 30 q 553 180 574 117 q 533 327 533 243 l 533 734 l 720 734 l 720 327 q 726 252 720 283 q 744 201 732 221 q 776 172 757 181 q 822 162 795 162 q 863 172 846 162 q 892 201 881 181 q 909 252 903 221 q 914 327 914 283 l 914 734 z "},"ѣ":{"ha":785,"x_min":-14,"x_max":764,"o":"m 217 546 l 426 546 q 607 511 532 546 q 724 415 683 477 q 764 273 764 354 q 724 131 764 192 q 607 35 683 69 q 426 0 532 0 l 80 0 l 80 1059 l 310 1059 l 310 175 l 426 175 q 489 188 465 175 q 525 224 513 201 q 536 275 536 247 q 525 323 536 302 q 489 358 513 345 q 426 370 465 370 l 217 370 l 217 546 m 460 864 l 460 734 l -14 734 l -14 864 l 460 864 z "},"Ѥ":{"ha":1237,"x_min":66,"x_max":1243,"o":"m 907 589 l 907 412 l 228 412 l 228 589 l 907 589 m 1004 335 l 1241 335 q 1185 153 1236 232 q 1045 31 1135 75 q 833 -13 955 -13 q 656 20 734 -13 q 525 116 578 54 q 443 267 471 178 q 414 467 414 356 l 414 521 q 444 721 414 632 q 528 873 473 810 q 660 969 583 936 q 830 1002 736 1002 q 1048 956 959 1002 q 1185 830 1137 910 q 1243 647 1234 749 l 1006 647 q 987 740 1004 703 q 931 797 969 778 q 830 816 893 816 q 753 800 786 816 q 699 748 721 783 q 667 657 677 713 q 656 522 656 601 l 656 467 q 663 356 656 404 q 682 273 669 308 q 715 217 694 239 q 765 184 736 195 q 833 174 794 174 q 925 191 887 174 q 983 244 962 208 q 1004 335 1003 279 m 303 987 l 303 0 l 66 0 l 66 987 l 303 987 z "},"ѥ":{"ha":1054,"x_min":67,"x_max":1023,"o":"m 782 434 l 782 304 l 198 304 l 198 434 l 782 434 m 707 163 q 763 175 740 163 q 797 209 785 186 q 808 262 809 231 l 1023 262 q 982 117 1023 179 q 871 21 941 55 q 713 -14 801 -14 q 562 15 627 -14 q 455 93 498 43 q 390 212 412 144 q 369 359 369 279 l 369 374 q 390 522 369 454 q 455 641 412 590 q 562 719 498 691 q 711 747 626 747 q 873 713 803 747 q 983 612 943 678 q 1023 453 1023 547 l 808 453 q 798 513 809 486 q 764 555 787 539 q 706 571 741 571 q 649 555 671 571 q 617 512 628 540 q 602 450 606 485 q 597 374 597 414 l 597 359 q 601 282 597 318 q 616 220 605 247 q 650 178 628 193 q 707 163 671 163 m 297 734 l 297 0 l 67 0 l 67 734 l 297 734 z "},"Ѧ":{"ha":961,"x_min":1,"x_max":950,"o":"m 544 909 l 252 0 l 1 0 l 345 987 l 472 987 l 544 909 m 699 0 l 402 916 l 477 987 l 604 987 l 950 0 l 699 0 m 732 431 l 732 281 l 180 281 l 180 431 l 732 431 m 565 353 l 565 0 l 378 0 l 378 353 l 565 353 z "},"ѧ":{"ha":794,"x_min":3,"x_max":782,"o":"m 368 431 l 237 0 l 3 0 l 269 734 l 439 734 l 368 431 m 549 0 l 416 431 l 347 734 l 516 734 l 782 0 l 549 0 m 663 312 l 663 178 l 124 178 l 124 312 l 663 312 m 450 237 l 450 0 l 323 0 l 323 237 l 450 237 z "},"Ѩ":{"ha":1340,"x_min":82,"x_max":1325,"o":"m 664 430 l 664 281 l 237 281 l 237 430 l 664 430 m 920 909 l 628 0 l 376 0 l 721 987 l 848 987 l 920 909 m 1074 0 l 777 916 l 852 987 l 980 987 l 1325 0 l 1074 0 m 1107 431 l 1107 281 l 555 281 l 555 431 l 1107 431 m 940 353 l 940 0 l 753 0 l 753 353 l 940 353 m 319 987 l 319 0 l 82 0 l 82 987 l 319 987 z "},"ѩ":{"ha":1141,"x_min":64,"x_max":1128,"o":"m 616 311 l 616 178 l 104 178 l 104 311 l 616 311 m 715 431 l 583 0 l 349 0 l 616 734 l 785 734 l 715 431 m 895 0 l 762 431 l 693 734 l 863 734 l 1128 0 l 895 0 m 1010 312 l 1010 178 l 471 178 l 471 312 l 1010 312 m 797 237 l 797 0 l 670 0 l 670 237 l 797 237 m 294 734 l 294 0 l 64 0 l 64 734 l 294 734 z "},"Ѫ":{"ha":1219,"x_min":62,"x_max":1158,"o":"m 299 0 l 62 0 l 62 220 q 107 407 62 337 q 238 508 153 477 q 445 539 324 539 l 774 539 q 981 508 895 539 q 1112 407 1067 477 q 1158 220 1158 337 l 1158 0 l 920 0 l 920 220 q 904 301 920 272 q 856 341 888 330 q 774 353 824 353 l 445 353 q 335 326 371 353 q 299 220 299 298 l 299 0 m 885 987 l 885 801 l 370 801 l 370 987 l 885 987 m 576 486 l 819 987 l 1076 987 l 728 363 l 601 363 l 576 486 m 432 987 l 677 480 l 649 363 l 522 363 l 174 987 l 432 987 m 741 507 l 741 0 l 504 0 l 504 507 l 741 507 z "},"ѫ":{"ha":1013,"x_min":62,"x_max":951,"o":"m 290 0 l 62 0 l 62 129 q 101 298 62 235 q 216 390 141 361 q 397 418 292 418 l 616 418 q 796 390 721 418 q 911 298 871 361 q 951 129 951 235 l 951 0 l 722 0 l 722 129 q 711 204 722 177 q 676 242 699 231 q 616 253 652 253 l 397 253 q 337 242 361 253 q 302 204 313 231 q 290 129 290 177 l 290 0 m 785 734 l 785 597 l 261 597 l 261 734 l 785 734 m 470 340 l 644 734 l 890 734 l 611 252 l 492 252 l 470 340 m 380 734 l 557 336 l 532 252 l 414 252 l 134 734 l 380 734 m 624 336 l 624 0 l 395 0 l 395 336 l 624 336 z "},"Ѭ":{"ha":1634,"x_min":91,"x_max":1573,"o":"m 891 542 l 891 363 l 215 363 l 215 542 l 891 542 m 328 987 l 328 0 l 91 0 l 91 987 l 328 987 m 715 0 l 477 0 l 477 220 q 523 407 477 337 q 654 508 568 477 q 861 539 740 539 l 1190 539 q 1397 508 1311 539 q 1528 407 1482 477 q 1573 220 1573 337 l 1573 0 l 1336 0 l 1336 220 q 1320 301 1336 272 q 1272 341 1304 330 q 1190 353 1240 353 l 861 353 q 751 326 787 353 q 715 220 715 298 l 715 0 m 1301 987 l 1301 801 l 785 801 l 785 987 l 1301 987 m 991 486 l 1234 987 l 1491 987 l 1144 363 l 1017 363 l 991 486 m 848 987 l 1093 480 l 1065 363 l 937 363 l 591 987 l 848 987 m 1157 507 l 1157 0 l 920 0 l 920 507 l 1157 507 z "},"ѭ":{"ha":1411,"x_min":84,"x_max":1349,"o":"m 816 418 l 816 260 l 148 260 l 148 418 l 816 418 m 313 734 l 313 0 l 84 0 l 84 734 l 313 734 m 688 0 l 458 0 l 458 129 q 498 298 458 235 q 613 390 538 361 q 793 418 688 418 l 1014 418 q 1193 390 1118 418 q 1309 298 1268 361 q 1349 129 1349 235 l 1349 0 l 1120 0 l 1120 129 q 1108 204 1120 177 q 1073 242 1097 231 q 1014 253 1050 253 l 793 253 q 734 242 758 253 q 699 204 711 231 q 688 129 688 177 l 688 0 m 1183 734 l 1183 597 l 658 597 l 658 734 l 1183 734 m 867 340 l 1042 734 l 1287 734 l 1008 252 l 889 252 l 867 340 m 777 734 l 954 336 l 929 252 l 811 252 l 531 734 l 777 734 m 1021 336 l 1021 0 l 793 0 l 793 336 l 1021 336 z "},"Ѯ":{"ha":711,"x_min":-19,"x_max":648,"o":"m 80 987 l 242 987 q 394 973 326 987 q 510 929 462 959 q 584 850 558 899 q 610 734 610 802 q 585 616 610 665 q 513 535 559 566 q 403 488 467 503 q 260 473 338 473 l 151 473 l 151 597 l 256 597 q 328 612 301 597 q 368 652 355 627 q 380 707 380 677 q 366 760 380 739 q 321 793 351 782 q 242 804 290 804 l 80 804 l 80 987 m 151 533 l 251 533 q 419 516 346 533 q 544 467 493 499 q 622 386 595 434 q 648 277 648 338 q 624 153 648 208 q 552 62 599 99 q 440 5 505 24 q 295 -14 376 -14 l 253 -14 q 202 -31 218 -14 q 187 -75 187 -48 q 203 -122 187 -102 q 241 -153 219 -141 q 279 -173 262 -165 l 224 -304 q 83 -252 136 -289 q 6 -160 30 -215 q -19 -39 -18 -106 q 12 77 -19 31 q 97 146 42 123 q 228 170 153 170 l 279 170 q 338 177 312 170 q 382 199 364 185 q 410 232 400 213 q 419 274 419 251 q 408 334 419 308 q 375 377 397 359 q 322 404 354 395 q 248 413 290 413 l 151 413 l 151 533 m 216 1308 l 316 1217 l 416 1308 l 610 1308 l 610 1300 l 390 1108 l 243 1108 l 20 1301 l 20 1308 l 216 1308 z "},"ѯ":{"ha":717,"x_min":4,"x_max":635,"o":"m 80 734 l 242 734 q 389 723 323 734 q 501 688 454 712 q 573 627 548 665 q 597 536 597 589 q 574 444 597 482 q 509 380 551 405 q 407 343 466 355 q 275 332 347 332 l 151 332 l 151 427 l 272 427 q 328 438 307 427 q 359 468 349 449 q 368 510 368 487 q 361 539 368 526 q 338 561 353 552 q 299 574 323 569 q 242 578 275 578 l 80 578 l 80 734 m 151 392 l 267 392 q 423 380 355 392 q 539 344 492 368 q 611 286 586 320 q 635 206 635 251 q 613 113 635 154 q 547 44 590 73 q 445 1 505 16 q 310 -14 385 -14 l 277 -14 q 214 -31 233 -14 q 195 -75 195 -48 q 209 -122 195 -102 q 240 -153 222 -141 q 272 -173 258 -165 l 216 -290 q 106 -236 153 -271 q 32 -150 58 -200 q 4 -39 5 -100 q 31 62 4 22 q 106 121 58 102 q 220 141 155 141 l 264 141 q 324 147 298 141 q 369 163 351 153 q 397 187 387 173 q 407 217 407 201 q 398 253 407 237 q 370 279 389 268 q 326 295 352 290 q 264 300 299 300 l 151 300 l 151 392 m 222 1034 l 322 943 l 422 1034 l 616 1034 l 616 1027 l 396 835 l 249 835 l 26 1028 l 26 1034 l 222 1034 z "},"Ѳ":{"ha":960,"x_min":58,"x_max":922,"o":"m 490 1001 q 631 979 565 1001 q 750 916 697 958 q 842 815 804 875 q 901 680 880 756 q 922 513 922 604 l 922 473 q 890 270 922 360 q 801 117 859 180 q 664 20 743 54 q 491 -14 585 -14 q 348 8 414 -14 q 229 71 282 30 q 137 172 175 112 q 78 307 98 231 q 58 473 58 383 l 58 513 q 89 717 58 627 q 178 870 121 807 q 315 967 235 934 q 490 1001 394 1001 m 490 814 q 418 801 450 814 q 362 759 386 787 q 325 691 339 732 q 304 597 310 650 q 302 581 303 589 q 301 564 302 573 l 678 564 q 677 582 677 573 q 675 598 676 590 q 653 692 669 651 q 614 760 638 732 q 559 801 591 787 q 490 814 528 814 m 491 172 q 562 187 530 172 q 617 232 594 202 q 656 304 641 261 q 676 402 671 347 q 678 418 677 410 q 679 435 678 426 l 300 435 q 302 417 301 426 q 303 400 302 408 q 324 302 309 345 q 362 231 338 260 q 418 187 385 202 q 491 172 450 172 z "},"ѳ":{"ha":781,"x_min":34,"x_max":743,"o":"m 388 747 q 541 719 475 747 q 652 641 607 691 q 720 523 696 591 q 743 374 743 454 l 743 359 q 720 211 743 279 q 652 93 696 143 q 541 14 607 42 q 389 -14 475 -14 q 237 14 303 -14 q 125 93 170 42 q 57 211 80 143 q 34 359 34 279 l 34 374 q 57 523 34 454 q 125 641 80 591 q 236 719 170 691 q 388 747 302 747 m 388 571 q 336 560 358 571 q 300 530 315 549 q 278 484 286 511 q 266 427 269 458 l 511 427 q 499 484 507 458 q 476 530 491 511 q 440 560 462 549 q 388 571 418 571 m 389 163 q 439 173 418 163 q 475 200 460 182 q 497 243 489 218 q 510 298 506 268 l 267 298 q 279 243 271 268 q 302 200 288 218 q 338 173 317 182 q 389 163 359 163 z "},"Ѵ":{"ha":900,"x_min":4,"x_max":889,"o":"m 461 264 l 587 747 q 647 881 611 825 q 737 969 684 938 q 866 1000 791 1000 l 889 999 l 887 810 l 861 810 q 828 800 844 810 q 802 773 812 789 q 787 738 791 756 l 584 0 l 411 0 l 461 264 m 254 987 l 447 268 l 498 0 l 325 0 l 4 987 l 254 987 z "},"ѵ":{"ha":714,"x_min":1,"x_max":728,"o":"m 352 302 l 395 500 q 453 633 418 578 q 538 718 487 688 q 660 748 589 748 q 697 746 680 748 q 728 737 714 743 l 711 564 q 694 565 709 564 q 673 566 680 566 q 638 555 654 566 q 611 528 622 545 q 594 491 600 511 l 458 0 l 303 0 l 352 302 m 242 734 l 326 302 l 380 0 l 225 0 l 1 734 l 242 734 z "},"Ѻ":{"ha":960,"x_min":58,"x_max":922,"o":"m 545 1065 l 545 735 l 414 735 l 414 1065 l 545 1065 m 547 247 l 547 -90 l 416 -90 l 416 247 l 547 247 m 922 513 l 922 473 q 890 270 922 360 q 801 117 859 180 q 664 20 743 54 q 491 -14 585 -14 q 348 8 414 -14 q 229 71 282 30 q 137 172 175 112 q 78 307 98 231 q 58 473 58 383 l 58 513 q 89 717 58 627 q 178 870 121 807 q 315 967 235 934 q 490 1001 394 1001 q 631 979 565 1001 q 750 916 697 958 q 842 815 804 875 q 901 680 880 756 q 922 513 922 604 m 680 473 l 680 515 q 671 621 680 573 q 648 705 663 669 q 609 765 632 741 q 556 802 586 789 q 490 814 526 814 q 407 795 442 814 q 347 738 371 776 q 312 644 323 700 q 300 515 300 588 l 300 473 q 308 368 300 416 q 331 284 315 320 q 369 223 346 248 q 422 185 392 198 q 491 172 453 172 q 571 192 536 172 q 630 250 606 212 q 667 345 654 289 q 680 473 680 401 z "},"ѻ":{"ha":781,"x_min":36,"x_max":744,"o":"m 444 816 l 444 492 l 343 492 l 343 816 l 444 816 m 438 252 l 438 -85 l 338 -85 l 338 252 l 438 252 m 36 359 l 36 374 q 59 523 36 454 q 127 641 82 591 q 237 719 172 691 q 389 747 303 747 q 542 719 476 747 q 653 641 608 691 q 721 523 698 591 q 744 374 744 454 l 744 359 q 721 211 744 279 q 653 93 698 143 q 543 14 608 42 q 391 -14 477 -14 q 238 14 304 -14 q 127 93 172 42 q 59 211 82 143 q 36 359 36 279 m 264 374 l 264 359 q 271 282 264 318 q 291 219 277 246 q 330 178 305 193 q 391 163 354 163 q 451 178 427 163 q 489 219 475 193 q 509 282 503 246 q 515 359 515 318 l 515 374 q 509 449 515 414 q 489 512 503 485 q 450 555 475 540 q 389 571 426 571 q 329 555 353 571 q 291 512 305 540 q 271 449 277 485 q 264 374 264 414 z "},"Ѽ":{"ha":1369,"x_min":68,"x_max":1270,"o":"m 975 1147 l 980 1147 l 980 1056 l 976 1056 q 869 1068 918 1056 q 779 1097 821 1080 q 704 1125 738 1113 q 642 1137 669 1137 q 592 1121 611 1137 q 572 1068 572 1105 l 572 1056 l 484 1056 l 484 1081 q 525 1193 484 1157 q 640 1228 566 1228 q 716 1216 678 1228 q 794 1187 754 1204 q 879 1159 834 1171 q 975 1147 924 1147 m 635 857 l 580 896 q 614 948 602 924 q 626 998 626 973 l 626 1063 l 741 1063 l 741 994 q 724 941 741 968 q 683 891 707 913 q 635 857 659 869 m 437 987 l 437 804 q 368 787 397 804 q 322 735 338 770 q 307 642 307 699 l 307 330 q 316 257 307 288 q 342 207 325 227 q 383 178 359 188 q 437 169 407 169 q 503 186 476 169 q 545 239 530 203 q 559 333 559 275 l 559 553 l 753 553 l 753 333 q 729 184 753 249 q 663 75 705 119 q 563 8 621 31 q 437 -14 505 -14 q 290 8 357 -14 q 173 74 223 31 q 96 182 123 118 q 68 330 68 246 l 68 642 q 116 831 68 754 q 248 948 164 908 q 437 987 331 987 m 902 804 l 902 987 q 1049 965 981 987 q 1166 899 1116 943 q 1243 791 1215 855 q 1270 642 1270 726 l 1270 330 q 1243 182 1270 246 q 1166 74 1215 118 q 1049 8 1116 31 q 902 -14 981 -14 q 776 8 834 -14 q 676 75 718 31 q 610 184 633 119 q 586 333 586 249 l 586 553 l 780 553 l 780 333 q 788 259 780 290 q 811 208 796 228 q 850 178 827 188 q 902 169 873 169 q 956 178 932 169 q 997 207 980 188 q 1023 257 1014 227 q 1032 330 1032 288 l 1032 642 q 1023 715 1032 685 q 997 765 1014 746 q 956 794 980 785 q 902 804 932 804 z "},"ѽ":{"ha":1158,"x_min":68,"x_max":1083,"o":"m 878 922 l 884 922 l 884 831 l 877 831 q 771 844 820 831 q 681 872 722 856 q 606 901 640 888 q 544 913 572 913 q 495 897 514 913 q 475 844 475 880 l 475 831 l 386 831 l 386 857 q 428 968 386 932 q 543 1004 469 1004 q 619 991 581 1004 q 696 963 656 979 q 781 935 736 947 q 878 922 825 922 m 545 640 l 490 679 q 524 731 512 707 q 536 781 536 756 l 536 846 l 650 846 l 650 777 q 633 724 650 751 q 592 674 616 696 q 545 640 568 652 m 416 747 l 416 571 q 354 555 380 571 q 312 506 327 540 q 298 420 298 473 l 298 313 q 304 245 298 274 q 321 198 310 216 q 349 171 333 180 q 386 162 366 162 q 421 172 406 162 q 447 201 437 181 q 463 252 458 221 q 469 327 469 283 l 469 418 l 640 418 l 640 327 q 621 180 640 243 q 568 73 602 117 q 487 8 534 30 q 386 -14 441 -14 q 259 7 317 -14 q 159 70 201 28 q 92 172 116 111 q 68 313 68 233 l 68 420 q 114 599 68 526 q 238 710 159 672 q 416 747 316 747 m 735 571 l 735 747 q 874 726 810 747 q 984 664 937 705 q 1057 561 1031 622 q 1083 420 1083 500 l 1083 313 q 1059 172 1083 233 q 993 70 1036 111 q 892 7 950 28 q 766 -14 834 -14 q 664 8 711 -14 q 584 73 618 30 q 530 180 549 117 q 511 327 511 243 l 511 418 l 683 418 l 683 327 q 688 252 683 283 q 704 201 694 221 q 730 172 715 181 q 766 162 746 162 q 802 171 786 162 q 830 198 819 180 q 848 245 842 216 q 854 313 854 274 l 854 420 q 846 488 854 460 q 822 535 838 517 q 784 562 806 553 q 735 571 762 571 z "},"Ѿ":{"ha":1367,"x_min":68,"x_max":1286,"o":"m 610 1144 l 367 1144 l 367 1240 l 988 1240 l 989 1144 l 733 1144 l 733 1058 l 610 1058 l 610 1144 m 559 987 l 753 987 l 753 333 q 729 184 753 249 q 663 75 705 119 q 563 8 621 31 q 437 -14 505 -14 q 290 8 357 -14 q 173 75 223 31 q 96 184 123 119 q 68 333 68 249 l 68 987 l 307 987 l 307 333 q 316 259 307 290 q 342 208 325 228 q 383 178 359 188 q 437 169 407 169 q 503 186 476 169 q 545 239 530 203 q 559 333 559 275 l 559 987 m 1048 987 l 1286 987 l 1286 333 q 1239 143 1286 220 q 1110 26 1192 66 q 923 -14 1028 -14 q 795 8 854 -14 q 693 75 736 31 q 626 184 650 119 q 602 333 602 249 l 602 987 l 795 987 l 795 333 q 804 259 795 290 q 830 208 813 228 q 870 178 847 188 q 923 169 894 169 q 991 186 963 169 q 1033 239 1019 203 q 1048 333 1048 275 l 1048 987 z "},"ѿ":{"ha":1185,"x_min":60,"x_max":1143,"o":"m 534 892 l 322 892 l 322 988 l 881 988 l 886 892 l 656 892 l 656 806 l 534 806 l 534 892 m 491 734 l 678 734 l 678 327 q 657 180 678 243 q 596 73 635 117 q 504 8 557 30 q 385 -14 450 -14 q 254 8 313 -14 q 151 73 194 30 q 83 180 107 117 q 60 327 60 243 l 60 734 l 290 734 l 290 327 q 296 252 290 283 q 314 201 302 221 q 343 172 326 181 q 385 162 361 162 q 445 179 421 162 q 479 233 468 197 q 491 327 491 269 l 491 734 m 914 734 l 1143 734 l 1143 327 q 1103 140 1143 216 q 989 25 1062 64 q 822 -14 917 -14 q 703 8 756 -14 q 612 73 650 30 q 553 180 574 117 q 533 327 533 243 l 533 734 l 720 734 l 720 327 q 726 252 720 283 q 744 201 732 221 q 776 172 757 181 q 822 162 795 162 q 863 172 846 162 q 892 201 881 181 q 909 252 903 221 q 914 327 914 283 l 914 734 z "},"Ҁ":{"ha":839,"x_min":52,"x_max":804,"o":"m 433 169 l 433 -14 q 303 4 363 -14 q 197 58 243 23 q 118 143 151 94 q 68 255 85 193 q 52 389 52 317 l 52 598 q 78 762 52 688 q 154 890 104 836 q 274 972 203 943 q 433 1002 345 1002 q 635 963 552 1002 q 761 848 718 925 q 804 654 804 771 l 566 654 q 554 750 566 714 q 514 802 543 786 q 433 818 485 818 q 368 802 395 818 q 323 758 340 787 q 297 688 305 728 q 288 600 288 648 l 288 389 q 294 316 288 350 q 310 255 299 282 q 339 209 321 229 q 379 179 356 189 q 433 169 403 169 m 593 169 l 593 -239 l 355 -239 l 355 169 l 593 169 z "},"ҁ":{"ha":741,"x_min":54,"x_max":709,"o":"m 403 162 l 403 -14 q 251 14 316 -14 q 142 93 186 42 q 76 211 98 143 q 54 359 54 279 l 54 374 q 76 522 54 454 q 142 641 98 590 q 250 719 185 691 q 401 747 315 747 q 563 713 494 747 q 671 612 632 678 q 709 453 709 547 l 494 453 q 485 513 494 486 q 455 555 475 539 q 401 571 435 571 q 342 555 366 571 q 306 512 319 540 q 288 450 293 485 q 283 374 283 414 l 283 359 q 288 282 283 318 q 306 220 293 247 q 342 177 319 193 q 403 162 366 162 m 559 162 l 559 -243 l 330 -243 l 330 162 l 559 162 z "},"҂":{"ha":862,"x_min":71,"x_max":791,"o":"m 545 549 l 406 304 l 602 188 l 553 101 l 356 216 l 233 0 l 115 0 l 267 270 l 71 386 l 119 473 l 318 357 l 455 601 l 258 717 l 308 805 l 505 689 l 631 910 l 747 910 l 593 635 l 791 519 l 740 433 l 545 549 z "},"҃":{"ha":0,"x_min":-608,"x_max":-117,"o":"m -117 890 l -488 890 l -488 804 l -608 805 l -607 966 l -237 966 l -237 1040 l -117 1039 l -117 890 z "},"҄":{"ha":0,"x_min":-609,"x_max":-92,"o":"m -609 975 l -602 975 q -502 987 -548 975 q -414 1015 -456 999 q -333 1044 -372 1031 q -254 1056 -294 1056 q -135 1020 -178 1056 q -92 909 -92 985 l -92 884 l -184 884 l -184 896 q -204 949 -184 932 q -256 965 -224 965 q -321 953 -286 965 q -398 924 -356 941 q -491 896 -441 908 q -601 884 -542 884 l -609 884 l -609 975 z "},"҅":{"ha":0,"x_min":-401,"x_max":-233,"o":"m -288 888 l -401 1017 l -401 1120 l -272 1120 l -273 1005 l -233 934 l -288 888 z "},"҆":{"ha":0,"x_min":-406,"x_max":-239,"o":"m -239 1017 l -351 888 l -406 934 l -366 1005 l -367 1120 l -239 1120 l -239 1017 z "},"҈":{"ha":0,"x_min":-1001,"x_max":320,"o":"m -416 859 l -493 859 q -455 951 -493 916 q -351 987 -416 987 q -246 951 -284 987 q -208 859 -208 916 l -283 859 q -299 907 -283 886 q -351 928 -314 928 q -401 907 -387 928 q -416 859 -416 886 m -15 671 l -92 671 q -54 763 -92 728 q 50 799 -16 799 q 155 763 117 799 q 194 671 194 728 l 117 671 q 102 719 117 699 q 50 740 87 740 q 0 719 15 740 q -15 671 -15 699 m 111 330 l 35 330 q 73 422 35 387 q 177 458 111 458 q 282 422 243 458 q 320 330 320 387 l 244 330 q 229 378 244 357 q 177 399 214 399 q 126 378 142 399 q 111 330 111 357 m -22 -22 l -99 -22 q -61 70 -99 35 q 43 106 -22 106 q 148 70 110 106 q 186 -22 186 35 l 111 -22 q 96 26 111 5 q 43 47 81 47 q -7 26 8 47 q -22 -22 -22 5 m -413 -214 l -490 -214 q -451 -122 -490 -158 q -347 -87 -413 -87 q -242 -122 -281 -87 q -204 -214 -204 -158 l -280 -214 q -295 -166 -280 -187 q -347 -146 -311 -146 q -398 -166 -382 -146 q -413 -214 -413 -187 m -804 671 l -882 671 q -843 763 -882 728 q -739 799 -804 799 q -634 763 -672 799 q -595 671 -595 728 l -671 671 q -687 719 -671 699 q -739 740 -702 740 q -789 719 -774 740 q -804 671 -804 699 m -924 330 l -1001 330 q -963 422 -1001 387 q -859 458 -924 458 q -754 422 -792 458 q -715 330 -715 387 l -791 330 q -806 378 -791 357 q -859 399 -821 399 q -909 378 -894 399 q -924 330 -924 357 m -811 -22 l -888 -22 q -850 70 -888 35 q -746 106 -812 106 q -641 70 -680 106 q -602 -22 -602 35 l -679 -22 q -694 26 -679 5 q -746 47 -709 47 q -796 26 -781 47 q -811 -22 -811 5 z "},"҉":{"ha":0,"x_min":-942,"x_max":317,"o":"m -338 -41 l -245 -41 l -238 -50 l -321 -280 l -386 -280 l -338 -41 m -286 764 l -378 764 l -386 773 l -303 1002 l -238 1002 l -286 764 m 83 334 l 83 428 l 92 436 l 317 352 l 317 286 l 83 334 m -707 388 l -707 294 l -716 286 l -942 370 l -942 436 l -707 388 m -15 612 l -81 680 l -79 690 l 139 794 l 185 748 l -15 612 m -610 81 l -545 14 l -546 3 l -763 -101 l -810 -54 l -610 81 m -573 650 l -640 583 l -651 585 l -751 806 l -707 852 l -573 650 m -53 42 l 14 109 l 25 108 l 126 -113 l 81 -161 l -53 42 z "},"Ҋ":{"ha":1090,"x_min":62,"x_max":1055,"o":"m 300 364 l 654 987 l 892 987 l 892 0 l 654 0 l 654 623 l 300 0 l 62 0 l 62 987 l 300 987 l 300 364 m 573 1253 l 730 1253 q 699 1145 730 1192 q 612 1072 668 1098 q 479 1045 555 1045 q 295 1103 363 1045 q 227 1253 227 1161 l 383 1253 q 405 1194 383 1220 q 479 1167 427 1167 q 552 1194 531 1167 q 573 1253 573 1220 m 1055 149 l 1053 3 q 1013 -159 1053 -79 q 914 -290 972 -239 l 798 -235 q 829 -173 812 -204 q 859 -102 846 -141 q 871 -9 871 -62 l 871 149 l 1055 149 z "},"ҋ":{"ha":926,"x_min":60,"x_max":884,"o":"m 290 308 l 492 734 l 720 734 l 720 0 l 492 0 l 492 427 l 290 0 l 60 0 l 60 734 l 290 734 l 290 308 m 490 1043 l 647 1043 q 616 935 647 982 q 529 861 585 888 q 396 835 473 835 q 212 893 280 835 q 144 1043 144 951 l 300 1043 q 322 983 300 1010 q 396 957 344 957 q 469 983 448 957 q 490 1043 490 1010 m 884 149 l 883 3 q 843 -159 883 -79 q 744 -290 802 -239 l 628 -235 q 659 -173 642 -204 q 688 -102 676 -141 q 701 -9 701 -62 l 701 149 l 884 149 z "},"ҍ":{"ha":785,"x_min":-14,"x_max":764,"o":"m 217 546 l 426 546 q 607 511 532 546 q 724 415 683 477 q 764 273 764 354 q 724 131 764 192 q 607 35 683 69 q 426 0 532 0 l 80 0 l 80 1086 l 310 1086 l 310 175 l 426 175 q 489 188 465 175 q 525 224 513 201 q 536 275 536 247 q 525 323 536 302 q 489 358 513 345 q 426 370 465 370 l 217 370 l 217 546 m 460 987 l 460 858 l -14 858 l -14 987 l 460 987 z "},"Ҏ":{"ha":866,"x_min":75,"x_max":852,"o":"m 501 684 l 820 331 l 756 274 l 438 626 l 501 684 m 469 335 l 224 335 l 224 519 l 469 519 q 551 536 519 519 q 596 583 582 553 q 611 651 611 613 q 596 726 611 692 q 551 782 582 761 q 469 804 519 804 l 313 804 l 313 0 l 75 0 l 75 987 l 469 987 q 674 944 588 987 q 806 825 760 901 q 852 652 852 749 q 806 486 852 557 q 674 375 760 414 q 469 335 588 335 z "},"ҏ":{"ha":780,"x_min":66,"x_max":745,"o":"m 446 333 l 723 -2 l 656 -58 l 380 277 l 446 333 m 295 593 l 295 -282 l 66 -282 l 66 734 l 279 734 l 295 593 m 745 376 l 745 361 q 727 213 745 281 q 673 94 709 144 q 584 15 637 43 q 460 -14 530 -14 q 347 16 395 -14 q 268 96 300 45 q 216 214 236 148 q 185 355 197 281 l 185 373 q 216 520 197 452 q 268 640 236 589 q 347 719 300 690 q 460 747 394 747 q 583 721 530 747 q 672 645 636 694 q 727 528 709 596 q 745 376 745 459 m 517 361 l 517 376 q 511 454 517 418 q 491 516 505 490 q 456 557 478 543 q 403 571 435 571 q 341 560 366 571 q 302 526 317 549 q 282 470 288 503 q 277 391 276 436 l 277 336 q 281 265 275 297 q 302 211 288 233 q 342 175 317 188 q 404 163 368 163 q 458 178 437 163 q 493 221 480 193 q 511 284 506 248 q 517 361 517 320 z "},"Ґ":{"ha":776,"x_min":75,"x_max":754,"o":"m 754 1251 l 754 812 l 526 812 l 526 1251 l 754 1251 m 742 987 l 742 804 l 313 804 l 313 0 l 75 0 l 75 987 l 742 987 z "},"ґ":{"ha":652,"x_min":61,"x_max":619,"o":"m 619 949 l 619 557 l 390 557 l 390 949 l 619 949 m 578 734 l 578 557 l 290 557 l 290 0 l 61 0 l 61 734 l 578 734 z "},"Ҕ":{"ha":871,"x_min":74,"x_max":833,"o":"m 741 987 l 741 804 l 311 804 l 311 0 l 74 0 l 74 987 l 741 987 m 204 392 l 204 568 l 423 568 q 588 545 513 568 q 718 472 663 521 q 803 347 773 422 q 833 168 833 271 q 815 29 833 100 q 752 -105 796 -43 q 632 -205 708 -167 q 440 -243 555 -243 l 441 -77 q 533 -52 500 -77 q 581 12 566 -26 q 600 89 596 50 q 604 154 604 127 q 592 260 605 216 q 556 334 580 305 q 499 378 532 363 q 423 392 465 392 l 204 392 z "},"ҕ":{"ha":753,"x_min":61,"x_max":707,"o":"m 165 279 l 165 456 l 304 456 q 513 420 422 456 q 655 311 604 385 q 706 123 706 237 q 693 37 707 81 q 648 -51 679 -8 q 570 -131 617 -94 q 459 -194 523 -168 l 353 -54 q 416 -8 388 -32 q 460 48 444 16 q 477 123 477 79 q 457 211 477 176 q 397 262 436 245 q 304 279 359 279 l 165 279 m 578 734 l 578 557 l 290 557 l 290 0 l 61 0 l 61 734 l 578 734 z "},"Җ":{"ha":1564,"x_min":7,"x_max":1558,"o":"m 405 386 l 16 987 l 317 987 l 519 600 l 683 600 l 654 386 l 405 386 m 513 427 l 304 0 l 7 0 l 311 547 l 513 427 m 853 987 l 853 0 l 616 0 l 616 987 l 853 987 m 1442 987 l 1063 386 l 812 386 l 783 600 l 949 600 l 1143 987 l 1442 987 m 1155 0 l 954 427 l 1158 547 l 1452 0 l 1155 0 m 1558 151 l 1558 -241 l 1329 -241 l 1329 151 l 1558 151 z "},"җ":{"ha":1341,"x_min":25,"x_max":1333,"o":"m 343 256 l 25 734 l 311 734 l 450 470 l 587 470 l 562 256 l 343 256 m 452 299 l 306 0 l 34 0 l 254 395 l 452 299 m 744 734 l 744 0 l 516 0 l 516 734 l 744 734 m 1237 734 l 919 256 l 701 256 l 675 470 l 812 470 l 951 734 l 1237 734 m 956 0 l 810 299 l 1016 395 l 1235 0 l 956 0 m 1333 151 l 1333 -241 l 1104 -241 l 1104 151 l 1333 151 z "},"Қ":{"ha":1060,"x_min":74,"x_max":1024,"o":"m 311 987 l 311 0 l 74 0 l 74 987 l 311 987 m 881 987 l 526 391 l 270 391 l 241 606 l 404 606 l 593 987 l 881 987 m 634 0 l 403 432 l 576 591 l 915 0 l 634 0 m 1024 151 l 1024 -241 l 795 -241 l 795 151 l 1024 151 z "},"қ":{"ha":943,"x_min":80,"x_max":901,"o":"m 309 734 l 309 0 l 80 0 l 80 734 l 309 734 m 784 734 l 483 256 l 278 256 l 252 470 l 375 470 l 491 734 l 784 734 m 496 0 l 358 299 l 570 395 l 806 0 l 496 0 m 901 151 l 901 -241 l 671 -241 l 671 151 l 901 151 z "},"Ҝ":{"ha":941,"x_min":76,"x_max":972,"o":"m 76 987 l 315 987 l 315 0 l 76 0 l 76 987 m 364 777 l 481 777 l 481 235 l 364 235 l 364 777 m 646 987 l 946 987 l 601 387 l 273 387 l 244 601 l 494 601 l 646 987 m 490 427 l 695 547 l 972 0 l 667 0 l 490 427 z "},"ҝ":{"ha":864,"x_min":80,"x_max":862,"o":"m 80 734 l 309 734 l 309 0 l 80 0 l 80 734 m 357 594 l 458 594 l 458 146 l 357 146 l 357 594 m 563 734 l 857 734 l 601 256 l 278 256 l 252 470 l 492 470 l 563 734 m 475 299 l 672 395 l 862 0 l 567 0 l 475 299 z "},"Ҡ":{"ha":1151,"x_min":15,"x_max":1179,"o":"m 420 987 l 420 810 l 15 810 l 15 987 l 420 987 m 575 987 l 575 0 l 338 0 l 338 987 l 575 987 m 1145 987 l 790 391 l 534 391 l 505 606 l 667 606 l 857 987 l 1145 987 m 898 0 l 667 432 l 840 591 l 1179 0 l 898 0 z "},"ҡ":{"ha":1008,"x_min":37,"x_max":1025,"o":"m 427 734 l 427 557 l 37 557 l 37 734 l 427 734 m 528 734 l 528 0 l 299 0 l 299 734 l 528 734 m 1003 734 l 702 256 l 496 256 l 471 470 l 593 470 l 710 734 l 1003 734 m 715 0 l 577 299 l 789 395 l 1025 0 l 715 0 z "},"Ң":{"ha":1102,"x_min":75,"x_max":1066,"o":"m 741 595 l 741 412 l 234 412 l 234 595 l 741 595 m 313 987 l 313 0 l 75 0 l 75 987 l 313 987 m 901 987 l 901 0 l 663 0 l 663 987 l 901 987 m 1066 151 l 1066 -241 l 837 -241 l 837 151 l 1066 151 z "},"ң":{"ha":927,"x_min":60,"x_max":885,"o":"m 572 448 l 572 272 l 205 272 l 205 448 l 572 448 m 289 734 l 289 0 l 60 0 l 60 734 l 289 734 m 718 734 l 718 0 l 489 0 l 489 734 l 718 734 m 885 151 l 885 -241 l 656 -241 l 656 151 l 885 151 z "},"Ҥ":{"ha":1381,"x_min":75,"x_max":1324,"o":"m 1324 987 l 1324 811 l 902 811 l 697 987 l 1324 987 m 741 595 l 741 412 l 234 412 l 234 595 l 741 595 m 313 987 l 313 0 l 75 0 l 75 987 l 313 987 m 901 987 l 901 0 l 663 0 l 663 987 l 901 987 z "},"ҥ":{"ha":978,"x_min":61,"x_max":942,"o":"m 942 734 l 942 557 l 665 557 l 668 734 l 942 734 m 572 448 l 572 272 l 206 272 l 206 448 l 572 448 m 290 734 l 290 0 l 61 0 l 61 734 l 290 734 m 719 734 l 719 0 l 490 0 l 490 734 l 719 734 z "},"Ҧ":{"ha":1466,"x_min":74,"x_max":1428,"o":"m 904 987 l 904 0 l 666 0 l 666 804 l 311 804 l 311 0 l 74 0 l 74 987 l 904 987 m 799 390 l 799 566 l 1018 566 q 1182 543 1107 566 q 1313 470 1257 519 q 1398 345 1368 420 q 1428 165 1428 269 q 1410 27 1428 98 q 1347 -107 1391 -45 q 1226 -207 1303 -169 q 1035 -245 1150 -245 l 1036 -79 q 1128 -54 1095 -79 q 1176 10 1161 -28 q 1195 87 1191 48 q 1199 152 1199 125 q 1187 258 1200 214 q 1151 332 1175 303 q 1094 376 1127 361 q 1018 390 1060 390 l 799 390 z "},"ҧ":{"ha":1198,"x_min":61,"x_max":1173,"o":"m 542 286 l 542 463 l 755 463 q 971 427 878 463 q 1118 318 1065 391 q 1171 130 1171 244 q 1158 43 1173 88 q 1113 -44 1144 -1 q 1035 -124 1082 -87 q 924 -187 988 -161 l 818 -47 q 881 -1 853 -25 q 925 55 909 23 q 942 130 942 86 q 921 218 943 183 q 857 269 899 252 q 755 286 814 286 l 542 286 m 564 734 l 564 557 l 216 557 l 216 734 l 564 734 m 290 734 l 290 0 l 61 0 l 61 734 l 290 734 m 722 734 l 722 0 l 492 0 l 492 734 l 722 734 z "},"Ҩ":{"ha":1162,"x_min":58,"x_max":1090,"o":"m 1090 168 l 1090 -5 q 832 32 948 -5 q 632 137 715 68 q 503 298 548 205 q 458 505 458 392 l 458 630 q 479 777 458 709 q 539 895 500 844 q 632 974 578 945 q 753 1002 687 1002 q 888 971 827 1002 q 992 885 949 941 q 1060 752 1036 829 q 1084 584 1084 675 l 1084 489 q 1046 291 1084 382 q 940 131 1009 199 q 774 24 870 62 q 562 -14 679 -14 q 356 21 448 -14 q 197 118 263 56 q 94 264 130 180 q 58 444 58 347 l 58 599 q 85 758 58 684 q 162 886 113 831 q 282 971 212 941 q 435 1002 351 1002 l 435 810 q 384 794 407 810 q 346 750 361 779 q 322 683 330 722 q 314 600 314 645 l 314 444 q 331 336 314 385 q 379 252 347 288 q 456 196 410 216 q 562 176 503 176 q 679 200 627 176 q 769 266 732 224 q 825 366 806 309 q 845 489 845 422 l 845 616 q 839 716 845 677 q 822 775 833 754 q 793 803 810 795 q 753 811 776 811 q 721 803 735 811 q 697 775 707 795 q 683 720 688 755 q 678 631 678 685 l 678 504 q 705 373 678 434 q 785 266 732 312 q 914 194 838 220 q 1090 168 991 168 z "},"ҩ":{"ha":927,"x_min":50,"x_max":888,"o":"m 888 91 l 888 -22 q 663 6 757 -22 q 508 85 568 35 q 419 203 448 136 q 390 349 390 271 l 390 467 q 407 577 390 526 q 456 666 425 627 q 532 725 488 704 q 630 747 576 747 q 734 723 687 747 q 815 655 781 699 q 867 555 848 612 q 885 431 885 498 l 885 319 q 855 188 885 248 q 769 81 825 127 q 635 11 713 36 q 462 -14 557 -14 q 294 13 370 -14 q 163 90 218 41 q 79 205 109 139 q 50 349 50 271 l 50 425 q 72 553 50 494 q 137 655 95 612 q 237 723 179 699 q 367 747 296 747 l 367 566 q 337 551 350 562 q 314 523 323 541 q 299 480 304 505 q 294 427 294 456 l 294 349 q 306 277 294 310 q 339 220 317 244 q 392 183 361 196 q 462 170 423 170 q 543 182 507 170 q 604 216 578 194 q 642 268 629 238 q 656 334 656 298 l 656 446 q 652 493 656 471 q 640 530 648 514 q 622 556 632 547 q 598 565 611 565 q 575 556 585 565 q 556 533 564 548 q 545 499 549 518 q 541 458 541 479 l 541 337 q 563 241 541 286 q 630 163 586 197 q 740 110 675 129 q 888 91 804 91 z "},"Ҳ":{"ha":945,"x_min":3,"x_max":940,"o":"m 282 987 l 444 659 l 605 987 l 876 987 l 601 498 l 884 0 l 610 0 l 444 334 l 277 0 l 3 0 l 286 498 l 10 987 l 282 987 m 940 151 l 940 -241 l 711 -241 l 711 151 l 940 151 z "},"ҳ":{"ha":766,"x_min":8,"x_max":757,"o":"m 258 734 l 361 532 l 468 734 l 705 734 l 513 376 l 715 0 l 476 0 l 361 217 l 248 0 l 8 0 l 211 376 l 19 734 l 258 734 m 757 151 l 757 -241 l 528 -241 l 528 151 l 757 151 z "},"Ҵ":{"ha":1237,"x_min":16,"x_max":1208,"o":"m 670 987 l 670 810 l 16 810 l 16 987 l 670 987 m 1208 181 l 1195 -238 l 970 -238 l 970 0 l 897 0 l 897 181 l 1208 181 m 227 0 l 227 987 l 465 987 l 465 183 l 819 183 l 819 987 l 1058 987 l 1058 0 l 227 0 z "},"ҵ":{"ha":964,"x_min":35,"x_max":949,"o":"m 515 734 l 515 557 l 35 557 l 35 734 l 515 734 m 168 0 l 168 734 l 396 734 l 396 176 l 598 176 l 598 734 l 828 734 l 828 0 l 168 0 m 949 175 l 935 -218 l 720 -218 l 720 0 l 644 0 l 644 175 l 949 175 z "},"Ҷ":{"ha":1096,"x_min":91,"x_max":1060,"o":"m 91 987 l 329 987 l 329 687 q 348 594 329 627 q 406 547 368 561 q 503 534 445 534 q 546 535 517 534 q 606 541 574 537 q 665 548 637 544 q 707 559 693 553 l 707 376 q 663 366 692 370 q 602 357 634 361 q 542 352 569 354 q 503 351 514 351 q 286 387 378 351 q 142 497 193 422 q 91 687 91 572 l 91 987 m 660 987 l 898 987 l 898 0 l 660 0 l 660 987 m 1060 151 l 1060 -241 l 831 -241 l 831 151 l 1060 151 z "},"ҷ":{"ha":925,"x_min":55,"x_max":884,"o":"m 716 734 l 716 0 l 487 0 l 487 734 l 716 734 m 600 431 l 600 254 q 552 235 585 244 q 481 219 518 225 q 419 214 444 214 q 223 243 304 214 q 98 335 142 272 q 55 497 55 397 l 55 734 l 283 734 l 283 497 q 296 430 283 453 q 339 398 309 406 q 419 390 369 390 q 476 395 448 390 q 535 409 505 399 q 600 431 566 418 m 884 151 l 884 -241 l 654 -241 l 654 151 l 884 151 z "},"Ҹ":{"ha":943,"x_min":62,"x_max":869,"o":"m 518 729 l 518 197 l 403 197 l 403 729 l 518 729 m 62 987 l 300 987 l 300 687 q 319 594 300 627 q 377 547 338 561 q 473 534 416 534 q 516 535 488 534 q 576 541 545 537 q 636 548 608 544 q 677 559 664 553 l 677 376 q 634 366 663 370 q 573 357 606 361 q 512 352 540 354 q 473 351 485 351 q 257 387 349 351 q 113 497 164 422 q 62 687 62 572 l 62 987 m 631 987 l 869 987 l 869 0 l 631 0 l 631 987 z "},"ҹ":{"ha":784,"x_min":62,"x_max":724,"o":"m 451 570 l 451 109 l 336 109 l 336 570 l 451 570 m 724 734 l 724 0 l 494 0 l 494 734 l 724 734 m 608 431 l 608 254 q 559 235 593 244 q 489 219 526 225 q 427 214 452 214 q 231 243 312 214 q 106 335 149 272 q 62 497 62 397 l 62 734 l 291 734 l 291 497 q 304 430 291 453 q 347 398 317 406 q 427 390 376 390 q 484 395 456 390 q 543 409 513 399 q 608 431 573 418 z "},"Һ":{"ha":983,"x_min":93,"x_max":900,"o":"m 900 0 l 662 0 l 662 300 q 643 393 662 360 q 585 440 623 427 q 488 454 546 454 q 445 452 473 454 q 385 447 417 450 q 326 439 353 444 q 284 429 298 435 l 284 612 q 327 622 298 617 q 389 630 356 627 q 449 635 422 633 q 488 637 477 637 q 705 601 612 637 q 849 490 798 565 q 900 300 900 416 l 900 0 m 331 0 l 93 0 l 93 987 l 331 987 l 331 0 z "},"Ҽ":{"ha":1036,"x_min":-54,"x_max":979,"o":"m -54 734 l 96 734 q 110 653 96 687 q 154 602 125 620 q 224 585 182 585 l 224 426 q 75 463 137 426 q -21 570 12 500 q -54 734 -54 639 m 631 -16 q 426 16 513 -16 q 279 104 338 47 q 192 240 221 161 q 163 412 163 318 l 163 591 q 195 756 163 681 q 285 886 227 831 q 419 971 342 941 q 587 1000 496 1001 q 756 967 683 1000 q 879 873 829 935 q 954 725 929 811 q 979 531 979 638 l 979 410 l 345 410 l 345 598 l 742 598 l 742 619 q 733 689 742 656 q 706 746 725 722 q 658 784 688 770 q 587 798 629 798 q 505 782 540 798 q 447 737 470 766 q 412 671 424 709 q 401 591 401 633 l 401 412 q 412 324 401 365 q 450 252 424 283 q 521 203 476 221 q 631 186 566 186 q 786 199 719 186 q 890 224 853 212 l 924 33 q 870 15 909 26 q 770 -6 831 3 q 631 -16 709 -16 z "},"ҽ":{"ha":834,"x_min":-57,"x_max":844,"o":"m -57 586 l 75 586 q 114 476 75 516 q 227 436 153 436 l 227 298 q 74 333 138 298 q -23 432 10 368 q -57 586 -57 497 m 535 -14 q 375 15 445 -14 q 256 92 304 43 q 182 206 208 142 q 157 342 157 271 l 157 368 q 179 518 157 449 q 245 638 201 587 q 356 719 290 690 q 510 747 422 747 q 650 722 589 747 q 755 650 712 697 q 821 537 798 604 q 844 388 844 471 l 844 295 l 243 295 l 243 438 l 621 438 l 621 456 q 613 504 621 483 q 592 541 606 526 q 556 563 577 555 q 509 571 536 571 q 447 555 471 571 q 410 510 423 538 q 391 446 396 482 q 385 368 385 409 l 385 342 q 396 269 385 302 q 429 212 408 235 q 481 176 450 189 q 550 163 511 163 q 642 180 597 163 q 720 239 688 198 l 824 115 q 760 54 801 83 q 662 5 719 24 q 535 -14 606 -14 z "},"Ӄ":{"ha":915,"x_min":76,"x_max":901,"o":"m 315 987 l 315 0 l 76 0 l 76 987 l 315 987 m 861 987 l 479 386 l 273 386 l 244 600 l 374 600 l 561 987 l 861 987 m 263 384 l 263 566 l 490 566 q 654 543 578 566 q 784 470 729 519 q 870 345 840 421 q 901 164 901 269 q 882 28 901 100 q 819 -107 864 -44 q 697 -210 774 -170 q 501 -250 619 -250 l 501 -77 q 594 -51 561 -77 q 641 13 627 -25 q 659 89 656 52 q 663 149 663 126 q 651 255 663 210 q 616 328 639 299 q 562 370 593 356 q 490 384 530 384 l 263 384 z "},"ӄ":{"ha":810,"x_min":80,"x_max":785,"o":"m 309 734 l 309 0 l 80 0 l 80 734 l 309 734 m 785 734 l 478 256 l 278 256 l 252 470 l 370 470 l 491 734 l 785 734 m 150 257 l 150 433 l 363 433 q 580 398 486 433 q 726 289 673 362 q 779 100 779 215 q 766 14 781 58 q 721 -74 752 -31 q 644 -154 690 -117 q 533 -216 597 -191 l 426 -76 q 489 -31 461 -55 q 533 25 517 -6 q 551 100 550 57 q 529 189 551 154 q 465 240 507 223 q 363 257 423 257 l 150 257 z "},"Ӆ":{"ha":1102,"x_min":25,"x_max":1066,"o":"m 745 987 l 745 804 l 235 804 l 235 987 l 745 987 m 906 987 l 906 0 l 668 0 l 668 987 l 906 987 m 219 987 l 456 987 l 430 486 q 407 289 424 372 q 361 151 390 207 q 293 62 333 95 q 200 14 253 28 q 83 0 148 0 l 25 0 l 25 183 l 51 186 q 106 203 82 189 q 147 245 130 217 q 176 316 164 273 q 194 421 187 359 q 204 567 201 484 l 219 987 m 1066 149 l 1065 3 q 1024 -159 1065 -79 q 926 -290 984 -239 l 810 -235 q 841 -173 824 -204 q 870 -102 858 -141 q 882 -9 882 -62 l 882 149 l 1066 149 z "},"ӆ":{"ha":926,"x_min":7,"x_max":884,"o":"m 562 734 l 562 557 l 199 557 l 199 734 l 562 734 m 720 734 l 720 0 l 492 0 l 492 734 l 720 734 m 141 734 l 364 734 l 344 356 q 326 218 340 277 q 289 118 312 159 q 235 50 267 76 q 165 12 204 24 q 79 0 125 0 l 10 0 l 7 175 l 31 178 q 64 190 50 180 q 89 218 78 200 q 107 265 100 237 q 120 332 115 294 q 127 421 125 371 l 141 734 m 884 149 l 883 3 q 843 -159 883 -79 q 744 -290 802 -239 l 628 -235 q 659 -173 642 -204 q 688 -102 676 -141 q 701 -9 701 -62 l 701 149 l 884 149 z "},"Ӈ":{"ha":978,"x_min":74,"x_max":905,"o":"m 74 987 l 311 987 l 311 576 l 667 576 l 667 987 l 905 987 l 905 -5 q 870 -164 905 -99 q 773 -263 836 -229 q 621 -296 709 -296 q 566 -294 592 -296 q 509 -285 540 -292 l 519 -105 q 550 -111 537 -109 q 587 -113 562 -113 q 631 -101 613 -113 q 657 -65 648 -89 q 667 -5 667 -41 l 667 393 l 311 393 l 311 0 l 74 0 l 74 987 z "},"ӈ":{"ha":781,"x_min":61,"x_max":719,"o":"m 61 734 l 290 734 l 290 448 l 490 448 l 490 734 l 719 734 l 719 -10 q 686 -166 719 -102 q 590 -263 652 -231 q 441 -296 528 -296 q 387 -294 412 -296 q 333 -285 362 -292 l 342 -112 q 374 -118 360 -116 q 410 -120 387 -120 q 454 -108 436 -120 q 480 -71 471 -96 q 490 -10 490 -46 l 490 272 l 290 272 l 290 0 l 61 0 l 61 734 z "},"Ӊ":{"ha":1099,"x_min":75,"x_max":1063,"o":"m 741 595 l 741 412 l 234 412 l 234 595 l 741 595 m 313 987 l 313 0 l 75 0 l 75 987 l 313 987 m 901 987 l 901 0 l 663 0 l 663 987 l 901 987 m 1063 149 l 1061 3 q 1021 -159 1061 -79 q 922 -290 981 -239 l 806 -235 q 838 -173 821 -204 q 867 -102 854 -141 q 879 -9 879 -62 l 879 149 l 1063 149 z "},"ӊ":{"ha":924,"x_min":60,"x_max":882,"o":"m 572 448 l 572 272 l 205 272 l 205 448 l 572 448 m 289 734 l 289 0 l 60 0 l 60 734 l 289 734 m 718 734 l 718 0 l 489 0 l 489 734 l 718 734 m 882 149 l 881 3 q 841 -159 881 -79 q 742 -290 800 -239 l 626 -235 q 657 -173 640 -204 q 686 -102 674 -141 q 699 -9 699 -62 l 699 149 l 882 149 z "},"Ӎ":{"ha":1339,"x_min":75,"x_max":1304,"o":"m 193 987 l 387 987 l 608 300 l 828 987 l 1022 987 l 686 0 l 529 0 l 193 987 m 75 987 l 276 987 l 313 231 l 313 0 l 75 0 l 75 987 m 939 987 l 1141 987 l 1141 0 l 902 0 l 902 231 l 939 987 m 1304 149 l 1303 3 q 1262 -159 1303 -79 q 1164 -290 1222 -239 l 1048 -235 q 1079 -173 1062 -204 q 1108 -102 1096 -141 q 1120 -9 1120 -62 l 1120 149 l 1304 149 z "},"ӎ":{"ha":1183,"x_min":80,"x_max":1141,"o":"m 524 252 l 690 734 l 867 734 l 601 0 l 448 0 l 182 734 l 360 734 l 524 252 m 309 734 l 309 0 l 80 0 l 80 734 l 309 734 m 749 0 l 749 734 l 977 734 l 977 0 l 749 0 m 1141 149 l 1140 3 q 1100 -159 1140 -79 q 1001 -290 1059 -239 l 885 -235 q 916 -173 899 -204 q 945 -102 933 -141 q 958 -9 958 -62 l 958 149 l 1141 149 z "},"Ә":{"ha":970,"x_min":47,"x_max":911,"o":"m 416 1002 q 633 968 541 1002 q 788 875 726 935 q 880 732 849 814 q 911 550 911 649 l 911 434 q 878 253 911 335 q 787 110 846 170 q 650 18 729 50 q 480 -14 572 -15 q 293 19 374 -14 q 158 113 212 52 q 75 261 103 174 q 47 454 47 347 l 47 574 l 729 574 l 729 387 l 284 387 l 284 366 q 295 296 284 329 q 329 239 306 264 q 390 201 352 215 q 480 187 427 187 q 566 207 529 187 q 626 260 602 226 q 662 338 650 294 q 674 434 674 383 l 674 550 q 661 647 674 602 q 619 726 648 692 q 540 780 589 760 q 416 800 490 800 q 254 786 324 800 q 143 761 183 773 l 110 952 q 166 971 125 959 q 271 992 208 983 q 416 1002 334 1002 z "},"Ӡ":{"ha":800,"x_min":46,"x_max":782,"o":"m 96 987 l 770 987 l 770 835 l 463 509 l 286 509 l 286 594 l 500 804 l 96 804 l 96 987 m 286 590 l 415 606 q 613 568 532 606 q 739 456 695 530 q 782 277 782 383 q 754 153 782 208 q 675 62 726 99 q 556 5 625 24 q 405 -14 487 -14 q 275 2 339 -14 q 159 54 211 19 q 77 143 108 89 q 46 274 46 198 l 284 274 q 299 220 284 244 q 340 183 313 197 q 405 169 368 169 q 480 184 449 169 q 528 225 511 199 q 545 282 545 251 q 525 385 545 346 q 467 442 505 424 q 372 460 428 460 l 286 460 l 286 590 z "},"ӡ":{"ha":802,"x_min":48,"x_max":777,"o":"m 89 734 l 764 734 l 764 587 l 452 254 l 285 254 l 285 338 l 505 557 l 89 557 l 89 734 m 285 336 l 412 350 q 610 312 528 350 q 734 201 691 274 q 777 22 777 128 q 750 -101 777 -47 q 672 -192 722 -155 q 554 -249 622 -229 q 404 -268 486 -268 q 275 -251 338 -268 q 160 -200 212 -235 q 79 -110 109 -165 q 48 20 48 -56 l 278 20 q 293 -37 278 -12 q 337 -77 309 -62 q 404 -92 366 -92 q 482 -76 450 -92 q 531 -33 514 -60 q 549 28 549 -5 q 529 132 549 92 q 469 190 509 172 q 372 208 430 208 l 285 208 l 285 336 z "},"Ӻ":{"ha":839,"x_min":14,"x_max":805,"o":"m 805 987 l 805 804 l 376 804 l 376 0 l 138 0 l 138 987 l 805 987 m 510 571 l 510 441 l 14 441 l 14 571 l 510 571 m 359 201 l 588 201 l 588 -10 q 554 -166 588 -102 q 459 -263 521 -231 q 311 -296 397 -296 q 256 -294 281 -296 q 201 -285 231 -292 l 211 -112 q 242 -118 229 -116 q 279 -120 256 -120 q 323 -108 305 -120 q 350 -71 340 -96 q 359 -10 359 -46 l 359 201 z "},"ӻ":{"ha":634,"x_min":-2,"x_max":630,"o":"m 630 734 l 630 557 l 341 557 l 341 0 l 113 0 l 113 734 l 630 734 m 494 451 l 494 321 l -2 321 l -2 451 l 494 451 m 292 195 l 522 195 l 522 -17 q 488 -173 522 -109 q 392 -270 454 -237 q 244 -303 330 -303 q 190 -301 215 -303 q 135 -292 164 -298 l 144 -119 q 176 -125 162 -123 q 213 -127 189 -127 q 256 -115 239 -127 q 283 -78 274 -102 q 292 -17 292 -53 l 292 195 z "},"Ӽ":{"ha":1008,"x_min":3,"x_max":1002,"o":"m 282 987 l 444 659 l 605 987 l 876 987 l 601 498 l 884 0 l 610 0 l 444 334 l 277 0 l 3 0 l 286 498 l 10 987 l 282 987 m 773 201 l 1002 201 l 1002 -10 q 969 -166 1002 -102 q 873 -263 935 -231 q 725 -296 811 -296 q 670 -294 696 -296 q 616 -285 645 -292 l 625 -112 q 656 -118 643 -116 q 694 -120 670 -120 q 737 -108 720 -120 q 764 -71 755 -96 q 773 -10 773 -46 l 773 201 z "},"ӽ":{"ha":828,"x_min":8,"x_max":819,"o":"m 258 734 l 361 532 l 468 734 l 705 734 l 513 376 l 715 0 l 476 0 l 361 217 l 248 0 l 8 0 l 211 376 l 19 734 l 258 734 m 590 201 l 819 201 l 819 -10 q 786 -166 819 -102 q 690 -263 752 -231 q 542 -296 628 -296 q 487 -294 513 -296 q 433 -285 462 -292 l 442 -112 q 473 -118 460 -116 q 511 -120 487 -120 q 554 -108 536 -120 q 581 -71 572 -96 q 590 -10 590 -46 l 590 201 z "},"Ԁ":{"ha":865,"x_min":44,"x_max":800,"o":"m 439 669 l 652 669 l 652 486 l 439 486 q 354 464 389 486 q 301 409 319 443 q 283 336 283 375 q 301 260 283 295 q 354 204 319 226 q 439 183 389 183 l 562 183 l 562 987 l 800 987 l 800 0 l 439 0 q 231 43 320 0 q 93 162 142 86 q 44 334 44 237 q 72 468 44 407 q 152 574 100 528 q 277 644 204 619 q 439 669 350 669 z "},"Ԃ":{"ha":1316,"x_min":87,"x_max":1241,"o":"m 482 669 l 694 669 l 694 486 l 482 486 q 396 464 431 486 q 343 409 361 443 q 326 336 326 375 q 343 260 326 295 q 396 204 361 226 q 482 183 431 183 l 605 183 l 605 987 l 843 987 l 843 0 l 482 0 q 274 43 363 0 q 136 162 185 86 q 87 334 87 237 q 115 468 87 407 q 195 574 143 528 q 320 644 247 619 q 482 669 393 669 m 884 0 l 791 0 l 791 184 l 884 184 q 958 216 933 184 q 992 289 983 247 q 1002 363 1001 331 q 1000 429 1003 389 q 992 512 998 469 q 980 596 987 556 q 962 662 972 635 l 1194 662 q 1217 570 1206 627 q 1234 456 1227 513 q 1240 363 1241 399 q 1203 183 1238 266 q 1090 50 1167 100 q 884 0 1013 0 z "},"ԃ":{"ha":1179,"x_min":59,"x_max":1139,"o":"m 59 351 l 59 366 q 77 519 59 449 q 132 640 96 589 q 222 719 168 691 q 345 747 275 747 q 431 728 393 747 q 498 673 469 709 q 549 590 527 638 q 585 484 570 542 q 607 363 599 427 l 607 346 q 577 206 597 271 q 525 92 557 141 q 448 14 493 42 q 344 -14 404 -14 q 221 13 275 -14 q 132 89 168 39 q 77 204 96 138 q 59 351 59 271 m 288 366 l 288 351 q 293 275 288 310 q 312 215 299 241 q 347 176 325 190 q 401 162 369 162 q 476 182 446 162 q 523 238 507 201 q 537 328 539 275 l 537 381 q 530 461 538 426 q 504 521 521 496 q 461 558 486 545 q 403 571 435 571 q 349 555 371 571 q 313 511 327 539 q 294 446 300 483 q 288 366 288 408 m 499 262 l 499 1058 l 728 1058 l 728 262 q 735 212 728 235 q 758 177 743 190 q 793 165 772 165 q 842 179 821 165 q 877 218 863 193 q 900 278 892 243 q 909 359 908 314 q 900 495 911 427 q 868 632 888 564 l 1093 632 q 1125 497 1110 566 q 1138 359 1139 429 q 1108 194 1137 264 q 1033 78 1080 124 q 923 9 985 32 q 793 -14 861 -14 q 641 13 705 -16 q 541 102 576 41 q 499 262 505 164 z "},"Ԅ":{"ha":1090,"x_min":49,"x_max":1042,"o":"m 300 395 l 119 395 l 119 582 l 262 582 q 355 596 319 582 q 406 637 390 610 q 422 707 422 665 q 414 746 422 728 q 389 775 406 763 q 343 794 372 788 q 275 801 315 801 l 49 801 l 49 987 l 275 987 q 440 969 369 987 q 561 916 512 951 q 635 827 610 880 q 660 705 660 774 q 648 634 660 667 q 612 574 635 602 q 554 524 589 546 q 473 485 519 501 q 371 457 427 468 q 367 445 369 457 q 363 420 365 433 q 358 408 361 408 q 322 400 331 401 q 300 395 314 399 m 419 221 l 419 223 l 419 266 q 405 334 419 304 q 364 379 391 363 q 300 395 337 395 l 313 488 q 477 472 411 488 q 583 426 544 455 q 640 356 623 396 q 657 267 657 315 l 657 221 q 661 196 657 208 q 671 178 664 185 q 688 172 678 172 q 736 185 715 172 q 771 222 757 198 q 793 281 785 247 q 803 359 802 316 q 793 495 804 427 q 762 632 782 564 l 995 632 q 1027 497 1013 566 q 1040 359 1042 429 q 1009 194 1039 264 q 927 78 979 124 q 810 8 876 31 q 671 -14 744 -14 q 541 8 595 -16 q 455 84 486 32 q 419 221 424 137 z "},"ԅ":{"ha":890,"x_min":29,"x_max":897,"o":"m 295 253 l 88 253 l 87 418 l 211 418 q 257 426 239 418 q 282 448 275 433 q 290 481 290 462 q 282 519 290 503 q 257 546 275 536 q 211 556 239 556 l 33 556 l 29 734 l 211 734 q 379 708 310 734 q 484 633 448 682 q 519 515 519 584 q 509 453 519 480 q 477 404 498 425 q 425 366 456 382 q 355 338 395 349 q 351 319 353 336 q 348 284 349 302 q 345 265 347 267 q 316 258 321 260 q 295 253 311 256 m 551 187 l 551 188 q 559 139 550 159 q 591 119 568 119 q 622 131 608 119 q 645 164 635 142 q 660 215 654 185 q 666 284 665 245 q 656 392 667 336 q 625 500 646 448 l 849 500 q 882 393 867 448 q 895 284 897 338 q 870 151 894 208 q 807 57 847 94 q 715 0 767 19 q 607 -18 664 -18 q 486 -10 538 -19 q 399 18 434 -1 q 345 70 364 38 q 321 145 326 101 l 321 196 q 316 227 321 214 q 302 246 311 239 q 278 253 292 253 l 305 372 q 453 351 399 372 q 528 294 506 330 q 551 211 551 258 l 551 187 z "},"Ԇ":{"ha":850,"x_min":40,"x_max":821,"o":"m 321 378 l 74 378 l 73 555 l 265 555 q 342 569 311 555 q 390 611 374 583 q 406 677 406 638 q 390 746 406 716 q 342 794 374 777 q 263 811 310 811 l 46 811 l 40 987 l 263 987 q 460 952 377 987 q 589 850 544 916 q 635 691 635 784 q 625 620 635 652 q 595 560 614 587 q 546 510 575 532 q 478 471 516 488 q 392 441 439 454 q 389 430 391 441 q 385 409 387 420 q 380 398 382 399 q 358 389 363 394 q 349 381 354 385 q 321 378 343 378 m 271 378 l 331 488 q 520 455 452 488 q 618 366 589 422 q 646 235 646 309 l 646 172 q 650 125 646 157 q 665 61 654 93 q 697 14 676 30 l 697 0 l 461 0 q 431 53 441 17 q 419 124 422 89 q 417 174 417 159 l 417 233 q 401 313 417 281 q 352 362 385 345 q 271 378 319 378 m 821 178 l 821 33 q 780 -130 821 -50 q 682 -260 740 -210 l 566 -206 q 597 -143 580 -175 q 626 -73 614 -112 q 638 20 638 -33 l 638 178 l 821 178 z "},"ԇ":{"ha":818,"x_min":70,"x_max":792,"o":"m 342 248 l 101 248 l 100 395 l 286 395 q 340 405 317 395 q 375 432 362 414 q 387 473 387 450 q 375 515 387 496 q 340 547 362 534 q 286 559 317 559 l 78 559 l 70 734 l 286 734 q 422 717 361 734 q 527 668 483 700 q 594 592 570 636 q 618 492 618 547 q 604 419 618 452 q 563 360 590 387 q 495 313 535 333 q 402 281 455 294 q 397 273 399 280 q 391 267 394 267 q 374 259 376 264 q 368 251 372 254 q 342 248 364 248 m 285 248 l 349 349 q 518 323 457 349 q 606 251 580 297 q 631 146 631 205 l 631 102 q 632 79 631 99 q 637 38 633 59 q 647 8 640 17 l 647 0 l 411 0 q 405 30 407 8 q 403 74 404 52 q 403 103 403 96 l 403 146 q 390 203 403 180 q 350 237 376 226 q 285 248 324 248 m 792 170 l 791 25 q 751 -137 791 -57 q 652 -268 710 -217 l 536 -214 q 568 -151 551 -182 q 597 -80 585 -119 q 609 12 609 -41 l 609 170 l 792 170 z "},"Ԉ":{"ha":1337,"x_min":42,"x_max":1314,"o":"m 237 987 l 473 987 l 448 486 q 425 289 441 372 q 379 151 408 207 q 311 62 351 95 q 218 14 271 28 q 100 0 165 0 l 42 0 l 42 183 l 68 186 q 123 203 100 189 q 164 245 146 217 q 193 316 181 273 q 211 421 204 359 q 221 567 218 484 l 237 987 m 736 987 l 736 801 l 309 801 l 309 987 l 736 987 m 667 265 l 667 987 l 905 987 l 905 265 q 909 228 905 245 q 921 198 913 210 q 940 178 928 185 q 966 172 951 172 q 1011 185 991 172 q 1045 222 1031 198 q 1066 281 1059 247 q 1074 359 1074 316 q 1064 495 1076 427 q 1033 632 1053 564 l 1267 632 q 1299 497 1284 566 q 1312 359 1314 429 q 1282 194 1311 264 q 1206 78 1254 124 q 1096 9 1158 32 q 966 -14 1034 -14 q 809 14 876 -14 q 704 104 741 42 q 667 265 667 165 z "},"ԉ":{"ha":1206,"x_min":42,"x_max":1136,"o":"m 176 734 l 399 734 l 378 356 q 360 218 374 277 q 324 118 347 159 q 270 50 301 76 q 200 12 239 24 q 115 0 161 0 l 45 0 l 42 175 l 66 178 q 98 190 84 180 q 123 218 113 200 q 142 265 134 237 q 155 332 150 294 q 162 421 160 371 l 176 734 m 590 734 l 590 554 l 259 554 l 259 734 l 590 734 m 506 262 l 506 734 l 734 734 l 734 262 q 740 223 734 241 q 756 192 745 205 q 782 172 766 179 q 816 165 797 165 q 853 176 837 165 q 881 210 869 188 q 898 262 892 231 q 905 331 905 292 q 896 460 907 395 q 865 589 885 526 l 1088 589 q 1121 462 1106 527 q 1135 331 1136 397 q 1107 179 1133 243 q 1037 71 1081 114 q 936 7 993 28 q 816 -14 879 -14 q 689 1 746 -14 q 591 50 632 17 q 528 136 550 83 q 506 262 506 189 z "},"Ԋ":{"ha":1375,"x_min":75,"x_max":1312,"o":"m 234 576 l 745 576 l 745 393 l 234 393 l 234 576 m 75 987 l 313 987 l 313 0 l 75 0 l 75 987 m 665 987 l 903 987 l 903 265 q 910 217 903 238 q 931 184 918 196 q 964 172 945 172 q 1009 185 989 172 q 1042 222 1029 198 q 1064 281 1056 247 q 1073 359 1072 316 q 1063 495 1074 427 q 1031 632 1052 564 l 1265 632 q 1297 497 1283 566 q 1310 359 1312 429 q 1281 194 1310 264 q 1204 78 1253 124 q 1094 9 1156 32 q 964 -14 1032 -14 q 809 13 874 -16 q 708 103 745 41 q 665 265 671 165 l 665 987 z "},"ԋ":{"ha":1143,"x_min":45,"x_max":1112,"o":"m 532 460 l 532 281 l 200 281 l 200 460 l 532 460 m 275 734 l 275 0 l 45 0 l 45 734 l 275 734 m 482 262 l 482 734 l 711 734 l 711 262 q 716 223 711 241 q 732 192 722 205 q 758 172 743 179 q 792 165 773 165 q 829 177 813 165 q 857 210 846 189 q 875 262 869 231 q 882 331 882 292 q 872 460 884 395 q 842 589 861 526 l 1065 589 q 1098 462 1083 527 q 1111 331 1112 397 q 1084 179 1109 243 q 1014 71 1058 114 q 912 7 969 28 q 792 -14 855 -14 q 667 0 722 -15 q 572 49 612 16 q 509 136 532 83 q 482 262 486 189 z "},"Ԍ":{"ha":889,"x_min":33,"x_max":858,"o":"m 477 -14 q 296 17 377 -14 q 155 105 214 49 q 64 238 96 162 q 33 405 33 315 l 33 583 q 64 749 33 673 q 155 882 96 825 q 296 970 214 939 q 477 1002 377 1002 q 615 986 555 1002 q 720 941 675 971 l 678 769 q 585 803 634 791 q 477 815 536 815 q 390 797 429 815 q 325 747 352 779 q 284 673 298 715 q 271 584 271 631 l 271 405 q 284 314 271 357 q 325 240 298 272 q 390 190 352 208 q 477 172 429 172 q 553 188 522 172 q 601 234 585 204 q 619 304 618 263 q 611 418 621 360 q 585 533 601 477 l 817 533 q 844 420 831 477 q 856 304 858 362 q 802 125 854 196 q 663 20 749 55 q 477 -14 577 -14 z "},"ԍ":{"ha":746,"x_min":38,"x_max":722,"o":"m 421 165 q 463 174 448 165 q 485 197 478 182 q 492 232 491 212 q 489 298 492 264 q 479 364 486 333 l 703 364 q 716 298 711 333 q 722 232 722 264 q 681 94 720 149 q 573 13 641 39 q 421 -14 506 -14 q 257 15 329 -14 q 137 96 186 45 q 63 213 88 147 q 38 353 38 279 l 38 381 q 62 520 38 454 q 134 637 87 587 q 250 718 181 688 q 408 747 319 747 q 521 735 473 747 q 599 703 569 724 l 568 529 q 496 558 536 548 q 408 568 455 568 q 344 552 370 568 q 300 508 317 535 q 276 448 283 481 q 268 381 268 414 l 268 353 q 276 286 268 319 q 303 225 285 253 q 351 181 321 198 q 421 165 380 165 z "},"Ԏ":{"ha":976,"x_min":20,"x_max":944,"o":"m 801 987 l 801 801 l 20 801 l 20 987 l 801 987 m 298 265 l 298 987 l 535 987 l 535 265 q 539 228 535 245 q 551 198 543 211 q 570 178 559 185 q 596 172 582 172 q 642 185 622 172 q 675 222 661 198 q 697 281 689 247 q 705 359 705 316 q 695 495 707 427 q 665 632 684 564 l 897 632 q 930 497 916 566 q 943 359 944 429 q 913 194 941 264 q 837 78 885 124 q 726 9 788 32 q 596 -14 665 -14 q 441 13 507 -16 q 340 103 376 41 q 298 265 303 165 z "},"ԏ":{"ha":882,"x_min":43,"x_max":854,"o":"m 659 734 l 659 556 l 43 556 l 43 734 l 659 734 m 224 262 l 224 734 l 452 734 l 452 262 q 462 212 452 235 q 490 177 471 190 q 533 165 508 165 q 571 174 554 165 q 599 198 587 182 q 617 236 610 214 q 624 288 623 259 q 614 383 625 334 q 583 477 604 431 l 807 477 q 840 384 825 431 q 853 288 854 336 q 826 155 852 212 q 755 61 800 98 q 653 4 711 23 q 533 -14 596 -14 q 408 0 463 -15 q 313 49 353 16 q 251 136 273 83 q 224 262 228 189 z "},"Ԑ":{"ha":894,"x_min":55,"x_max":859,"o":"m 415 533 l 599 533 l 599 416 l 459 416 q 387 409 418 416 q 335 386 356 401 q 304 344 315 370 q 293 282 293 319 q 305 238 293 258 q 339 202 317 218 q 395 178 362 186 q 471 169 428 169 q 549 183 515 169 q 603 220 583 197 q 622 274 622 244 l 859 274 q 825 143 859 198 q 735 54 791 89 q 610 2 679 19 q 471 -14 541 -14 q 304 5 380 -14 q 172 62 228 24 q 86 153 117 99 q 55 277 55 208 q 79 386 55 338 q 150 467 103 434 q 263 516 196 499 q 415 533 330 533 m 599 473 l 415 473 q 274 492 338 473 q 165 545 211 511 q 95 624 119 579 q 70 720 70 669 q 98 841 70 789 q 180 930 127 894 q 307 984 233 966 q 471 1002 380 1002 q 657 967 572 1002 q 794 870 743 933 q 846 718 846 806 l 608 718 q 589 772 608 750 q 540 806 571 795 q 471 818 509 818 q 379 803 415 818 q 326 765 343 789 q 309 713 309 741 q 317 663 309 685 q 344 625 326 640 q 391 601 362 609 q 459 592 419 592 l 599 592 l 599 473 z "},"Ԓ":{"ha":1168,"x_min":25,"x_max":1132,"o":"m 745 987 l 745 804 l 235 804 l 235 987 l 745 987 m 906 987 l 906 0 l 668 0 l 668 987 l 906 987 m 219 987 l 456 987 l 430 486 q 407 289 424 372 q 361 151 390 207 q 293 62 333 95 q 200 14 253 28 q 83 0 148 0 l 25 0 l 25 183 l 51 186 q 106 203 82 189 q 147 245 130 217 q 176 316 164 273 q 194 421 187 359 q 204 567 201 484 l 219 987 m 903 201 l 1132 201 l 1132 -10 q 1098 -166 1132 -102 q 1003 -263 1065 -231 q 854 -296 941 -296 q 800 -294 825 -296 q 745 -285 774 -292 l 755 -112 q 786 -118 772 -116 q 823 -120 800 -120 q 867 -108 849 -120 q 893 -71 884 -96 q 903 -10 903 -46 l 903 201 z "},"ԓ":{"ha":992,"x_min":7,"x_max":949,"o":"m 562 734 l 562 557 l 199 557 l 199 734 l 562 734 m 720 734 l 720 0 l 492 0 l 492 734 l 720 734 m 141 734 l 364 734 l 344 356 q 326 218 340 277 q 289 118 312 159 q 235 50 267 76 q 165 12 204 24 q 79 0 125 0 l 10 0 l 7 175 l 31 178 q 64 190 50 180 q 89 218 78 200 q 107 265 100 237 q 120 332 115 294 q 127 421 125 371 l 141 734 m 720 201 l 949 201 l 949 -10 q 916 -166 949 -102 q 820 -263 882 -231 q 672 -296 758 -296 q 617 -294 643 -296 q 563 -285 592 -292 l 572 -112 q 604 -118 590 -116 q 641 -120 617 -120 q 684 -108 667 -120 q 711 -71 702 -96 q 720 -10 720 -46 l 720 201 z "}," ":{"ha":708,"x_min":0,"x_max":0,"o":""}," ":{"ha":1417,"x_min":0,"x_max":0,"o":""}," ":{"ha":708,"x_min":0,"x_max":0,"o":""}," ":{"ha":1417,"x_min":0,"x_max":0,"o":""}," ":{"ha":473,"x_min":0,"x_max":0,"o":""}," ":{"ha":354,"x_min":0,"x_max":0,"o":""}," ":{"ha":236,"x_min":0,"x_max":0,"o":""}," ":{"ha":781,"x_min":0,"x_max":0,"o":""}," ":{"ha":380,"x_min":0,"x_max":0,"o":""}," ":{"ha":283,"x_min":0,"x_max":0,"o":""}," ":{"ha":142,"x_min":0,"x_max":0,"o":""},"​":{"ha":0,"x_min":0,"x_max":0,"o":""},"‐":{"ha":625,"x_min":103,"x_max":511,"o":"m 511 514 l 511 337 l 103 337 l 103 514 l 511 514 z "},"‑":{"ha":625,"x_min":103,"x_max":511,"o":"m 511 514 l 511 337 l 103 337 l 103 514 l 511 514 z "},"–":{"ha":859,"x_min":99,"x_max":814,"o":"m 814 571 l 814 392 l 99 392 l 99 571 l 814 571 z "},"—":{"ha":1045,"x_min":58,"x_max":1012,"o":"m 1012 571 l 1012 392 l 58 392 l 58 571 l 1012 571 z "},"‗":{"ha":611,"x_min":-1,"x_max":612,"o":"m 612 -180 l 612 -283 l -1 -283 l -1 -180 l 612 -180 m 612 0 l 612 -102 l -1 -102 l -1 0 l 612 0 z "},"‘":{"ha":347,"x_min":73,"x_max":298,"o":"m 73 707 l 73 817 q 91 909 73 862 q 138 999 109 957 q 198 1069 167 1040 l 298 1015 q 259 929 277 976 q 241 816 241 882 l 241 707 l 73 707 z "},"’":{"ha":338,"x_min":45,"x_max":269,"o":"m 269 1042 l 269 930 q 251 838 269 885 q 205 748 233 790 q 145 678 177 707 l 45 732 q 84 818 66 771 q 102 931 102 865 l 102 1042 l 269 1042 z "},"‚":{"ha":377,"x_min":56,"x_max":282,"o":"m 282 169 l 281 42 q 263 -51 281 -3 q 217 -140 245 -98 q 157 -210 189 -182 l 56 -156 q 92 -70 78 -117 q 106 43 106 -23 l 106 169 l 282 169 z "},"‛":{"ha":294,"x_min":47,"x_max":271,"o":"m 47 1042 l 214 1042 l 214 931 q 232 818 214 865 q 271 732 250 771 l 171 678 q 111 748 140 707 q 65 838 83 790 q 47 930 47 885 l 47 1042 z "},"“":{"ha":593,"x_min":78,"x_max":541,"o":"m 78 707 l 78 817 q 96 909 78 862 q 143 999 114 957 q 203 1069 172 1040 l 302 1015 q 263 929 281 976 q 245 816 245 882 l 245 707 l 78 707 m 316 707 l 316 817 q 334 909 316 862 q 381 999 352 957 q 441 1069 410 1040 l 541 1015 q 502 929 519 976 q 484 816 484 882 l 484 707 l 316 707 z "},"”":{"ha":597,"x_min":54,"x_max":524,"o":"m 279 1042 l 279 930 q 261 838 279 885 q 215 748 243 790 q 155 678 186 707 l 54 732 q 94 818 76 771 q 112 931 112 865 l 112 1042 l 279 1042 m 524 1042 l 524 930 q 506 838 524 885 q 460 748 488 790 q 400 678 432 707 l 300 732 q 339 818 321 771 q 357 931 357 865 l 357 1042 l 524 1042 z "},"„":{"ha":594,"x_min":56,"x_max":527,"o":"m 282 182 l 281 42 q 265 -56 281 -5 q 222 -150 249 -106 q 165 -224 196 -194 l 56 -170 q 92 -78 78 -128 q 106 43 106 -28 l 106 182 l 282 182 m 527 182 l 526 42 q 508 -56 526 -5 q 462 -150 490 -106 q 402 -224 433 -194 l 294 -170 q 334 -78 316 -128 q 352 43 352 -28 l 352 182 l 527 182 z "},"†":{"ha":738,"x_min":35,"x_max":705,"o":"m 482 987 l 482 0 l 254 0 l 254 987 l 482 987 m 705 734 l 705 551 l 35 551 l 35 734 l 705 734 z "},"‡":{"ha":810,"x_min":71,"x_max":741,"o":"m 519 987 l 519 -282 l 289 -282 l 289 987 l 519 987 m 741 734 l 741 557 l 71 557 l 71 734 l 741 734 m 741 176 l 741 0 l 71 0 l 71 176 l 741 176 z "},"•":{"ha":514,"x_min":92,"x_max":435,"o":"m 92 492 l 92 517 q 138 635 92 589 q 262 681 184 681 q 389 635 343 681 q 435 517 435 589 l 435 492 q 390 376 435 421 q 264 331 344 331 q 138 376 185 331 q 92 492 92 421 z "},"‥":{"ha":759,"x_min":87,"x_max":671,"o":"m 87 107 q 122 189 87 156 q 213 222 157 222 q 304 189 269 222 q 339 107 339 156 q 304 25 339 58 q 213 -7 269 -7 q 122 25 157 -7 q 87 107 87 58 m 418 107 q 454 189 418 156 q 545 222 489 222 q 636 189 601 222 q 671 107 671 156 q 636 25 671 58 q 545 -7 601 -7 q 454 25 489 -7 q 418 107 418 58 z "},"…":{"ha":1076,"x_min":87,"x_max":1002,"o":"m 87 107 q 122 189 87 156 q 213 222 157 222 q 304 189 269 222 q 339 107 339 156 q 304 25 339 58 q 213 -7 269 -7 q 122 25 157 -7 q 87 107 87 58 m 418 107 q 454 189 418 156 q 545 222 489 222 q 636 189 601 222 q 671 107 671 156 q 636 25 671 58 q 545 -7 601 -7 q 454 25 489 -7 q 418 107 418 58 m 749 107 q 785 189 749 156 q 876 222 820 222 q 967 189 932 222 q 1002 107 1002 156 q 967 25 1002 58 q 876 -7 932 -7 q 785 25 820 -7 q 749 107 749 58 z "},"‧":{"ha":408,"x_min":77,"x_max":331,"o":"m 77 427 q 113 507 77 475 q 204 538 148 538 q 296 507 260 538 q 331 427 331 475 q 296 347 331 378 q 204 315 260 315 q 113 347 148 315 q 77 427 77 378 z "},"‰":{"ha":1337,"x_min":68,"x_max":1297,"o":"m 68 745 l 68 797 q 93 899 68 853 q 164 973 118 945 q 273 1001 210 1001 q 392 973 342 1001 q 467 899 441 945 q 493 797 493 853 l 493 745 q 467 644 493 690 q 392 570 441 598 q 274 543 343 543 q 164 570 210 543 q 93 644 118 598 q 68 745 68 690 m 200 797 l 200 745 q 208 707 200 725 q 233 677 216 688 q 274 666 249 666 q 314 677 298 666 q 338 707 330 688 q 346 745 346 725 l 346 797 q 338 837 346 819 q 313 866 330 855 q 273 878 297 878 q 232 866 248 878 q 208 837 216 855 q 200 797 200 819 m 549 190 l 549 242 q 576 344 549 298 q 652 418 602 390 q 769 446 701 446 q 878 418 834 446 q 945 344 922 390 q 968 242 968 298 l 968 190 q 945 88 968 134 q 878 14 922 42 q 770 -14 834 -14 q 652 14 702 -14 q 576 88 602 42 q 549 190 549 134 m 696 242 l 696 190 q 706 151 696 169 q 733 121 716 132 q 770 110 750 110 q 817 121 802 110 q 837 151 832 132 q 842 190 842 169 l 842 242 q 834 281 842 263 q 810 311 826 300 q 769 322 793 322 q 728 311 745 322 q 704 281 712 300 q 696 242 696 263 m 879 190 l 879 242 q 902 344 879 298 q 969 418 925 390 q 1078 446 1014 446 q 1196 418 1147 446 q 1271 344 1245 390 q 1297 242 1297 298 l 1297 190 q 1271 88 1297 134 q 1196 14 1245 42 q 1079 -14 1147 -14 q 970 14 1015 -14 q 902 88 925 42 q 879 190 879 134 m 1005 242 l 1005 190 q 1015 151 1005 169 q 1041 121 1025 132 q 1079 110 1058 110 q 1125 121 1110 110 q 1146 151 1141 132 q 1151 190 1151 169 l 1151 242 q 1143 281 1151 263 q 1118 311 1135 300 q 1078 322 1102 322 q 1037 311 1053 322 q 1013 281 1021 300 q 1005 242 1005 263 m 816 846 l 334 74 l 227 127 l 709 899 l 816 846 z "},"‹":{"ha":441,"x_min":73,"x_max":398,"o":"m 398 621 l 239 347 l 73 347 l 73 356 l 258 621 l 398 621 m 239 353 l 398 79 l 258 79 l 73 343 l 73 352 l 239 353 z "},"›":{"ha":421,"x_min":52,"x_max":377,"o":"m 52 78 l 211 352 l 377 351 l 377 342 l 192 78 l 52 78 m 52 620 l 192 620 l 377 355 l 377 347 l 211 346 l 52 620 z "},"⁄":{"ha":612,"x_min":10,"x_max":599,"o":"m 599 846 l 117 74 l 10 127 l 492 899 l 599 846 z "},"⁰":{"ha":521,"x_min":46,"x_max":475,"o":"m 475 778 l 475 659 q 447 538 475 586 q 372 468 420 491 q 261 445 323 445 q 150 468 198 445 q 74 538 101 491 q 46 659 46 586 l 46 778 q 73 899 46 851 q 149 971 100 947 q 260 995 197 995 q 371 971 323 995 q 447 899 420 947 q 475 778 475 851 m 323 656 l 323 782 q 315 838 323 817 q 293 867 307 858 q 260 876 279 876 q 228 867 241 876 q 206 838 214 858 q 199 782 199 817 l 199 656 q 206 600 199 620 q 228 572 214 580 q 261 564 242 564 q 293 572 279 564 q 315 600 307 580 q 323 656 323 620 z "},"⁴":{"ha":521,"x_min":37,"x_max":479,"o":"m 479 680 l 479 559 l 47 559 l 37 657 l 273 987 l 393 987 l 262 793 l 180 680 l 479 680 m 425 987 l 425 452 l 273 452 l 273 987 l 425 987 z "},"⁵":{"ha":521,"x_min":41,"x_max":470,"o":"m 172 681 l 52 710 l 90 987 l 439 987 l 439 872 l 213 872 l 199 787 q 233 798 208 791 q 287 805 259 805 q 388 785 347 805 q 449 727 429 765 q 470 634 470 689 q 447 544 470 587 q 377 473 424 500 q 256 445 330 445 q 153 465 202 445 q 72 520 103 484 q 41 606 41 557 l 195 606 q 211 573 194 582 q 256 564 228 564 q 307 586 296 564 q 318 634 318 607 q 301 686 318 667 q 245 705 283 705 q 196 696 212 705 q 172 681 179 686 z "},"⁶":{"ha":521,"x_min":43,"x_max":487,"o":"m 366 1000 l 393 1000 l 393 879 l 385 879 q 294 869 338 879 q 223 825 250 859 q 195 718 195 791 l 195 637 q 203 595 195 611 q 226 571 210 578 q 267 564 242 564 q 301 573 286 564 q 326 598 317 583 q 334 633 334 614 q 315 680 334 667 q 265 692 296 692 q 222 684 240 692 q 196 666 205 676 q 188 648 187 656 l 149 657 q 165 726 146 690 q 222 786 184 762 q 317 810 260 810 q 409 788 371 810 q 467 726 447 766 q 487 631 487 686 q 459 536 487 578 q 382 469 431 494 q 272 445 334 445 q 157 467 210 445 q 74 537 105 489 q 43 665 43 586 l 43 699 q 72 843 43 785 q 148 935 100 901 q 252 985 195 970 q 366 1000 309 1000 z "},"⁷":{"ha":521,"x_min":33,"x_max":472,"o":"m 472 987 l 472 905 l 252 452 l 92 452 l 312 868 l 33 868 l 33 987 l 472 987 z "},"⁸":{"ha":521,"x_min":46,"x_max":475,"o":"m 475 601 q 447 514 475 549 q 372 462 420 479 q 261 445 323 445 q 151 462 200 445 q 74 514 102 479 q 46 601 46 549 q 75 684 46 650 q 152 735 103 718 q 260 753 200 753 q 370 735 321 753 q 447 684 418 718 q 475 601 475 650 m 323 616 q 315 644 323 633 q 292 660 307 655 q 260 665 278 665 q 229 660 243 665 q 207 644 215 655 q 199 616 199 633 q 207 588 199 600 q 229 570 215 576 q 261 564 243 564 q 293 570 279 564 q 315 588 307 576 q 323 616 323 600 m 463 842 q 437 767 463 799 q 366 718 411 735 q 261 701 321 701 q 157 718 203 701 q 84 767 111 735 q 58 842 58 799 q 84 927 58 893 q 156 978 111 961 q 260 996 202 996 q 365 978 319 996 q 437 927 411 961 q 463 842 463 893 m 310 832 q 305 857 310 847 q 289 871 300 866 q 260 876 277 876 q 223 865 235 876 q 211 832 211 854 q 216 808 211 819 q 233 791 222 797 q 261 785 244 785 q 298 798 287 785 q 310 832 310 811 z "},"⁹":{"ha":521,"x_min":44,"x_max":473,"o":"m 149 561 l 157 561 q 241 568 205 561 q 299 604 278 576 q 321 696 321 633 l 321 806 q 314 847 321 832 q 294 869 307 863 q 259 876 280 876 q 226 865 240 876 q 205 837 212 854 q 197 797 197 819 q 205 760 197 774 q 229 738 213 745 q 267 731 244 731 q 305 739 291 731 q 325 755 319 746 q 330 770 331 765 l 377 764 q 357 694 379 726 q 298 642 334 661 q 224 622 262 622 q 130 641 170 622 q 66 699 89 660 q 44 800 44 739 q 73 898 44 853 q 150 969 101 942 q 259 996 198 996 q 363 974 315 996 q 443 905 412 953 q 473 775 473 857 l 473 736 q 447 589 473 647 q 377 500 421 532 q 276 455 332 468 q 159 443 220 443 l 149 443 l 149 561 z "},"⁺":{"ha":562,"x_min":54,"x_max":507,"o":"m 507 748 l 507 620 l 54 620 l 54 748 l 507 748 m 351 924 l 351 444 l 210 444 l 210 924 l 351 924 z "},"⁻":{"ha":506,"x_min":54,"x_max":452,"o":"m 452 748 l 452 620 l 54 620 l 54 748 l 452 748 z "},"⁼":{"ha":506,"x_min":54,"x_max":452,"o":"m 452 640 l 452 511 l 54 511 l 54 640 l 452 640 m 452 857 l 452 728 l 54 728 l 54 857 l 452 857 z "},"⁽":{"ha":370,"x_min":54,"x_max":315,"o":"m 54 643 l 54 654 q 83 842 54 761 q 156 975 111 923 q 248 1046 200 1027 l 315 954 q 268 889 290 926 q 233 797 246 852 q 220 654 220 741 l 220 642 q 228 530 220 578 q 250 447 236 481 q 281 386 264 412 q 315 342 298 361 l 248 251 q 177 298 212 265 q 115 381 143 332 q 71 497 87 431 q 54 643 54 563 z "},"⁾":{"ha":370,"x_min":54,"x_max":315,"o":"m 315 654 l 315 643 q 287 455 315 536 q 214 322 258 374 q 122 251 170 271 l 54 342 q 100 405 78 368 q 136 499 122 441 q 151 642 151 557 l 151 654 q 143 766 151 719 q 121 847 135 813 q 91 907 108 882 q 54 954 73 933 l 122 1046 q 192 998 158 1031 q 254 915 227 965 q 299 800 282 865 q 315 654 315 734 z "},"ⁿ":{"ha":578,"x_min":47,"x_max":528,"o":"m 202 871 l 202 444 l 47 444 l 47 987 l 172 987 l 202 871 m 186 731 l 154 730 q 166 836 154 787 q 204 919 179 884 q 264 975 229 955 q 347 994 300 994 q 445 973 405 994 q 507 905 486 951 q 528 786 528 859 l 528 444 l 374 444 l 374 734 q 364 810 374 782 q 336 850 355 838 q 290 863 317 863 q 228 845 251 863 q 196 798 205 827 q 186 731 186 768 z "},"₀":{"ha":521,"x_min":46,"x_max":475,"o":"m 475 81 l 475 -37 q 447 -158 475 -111 q 372 -229 420 -205 q 261 -252 323 -252 q 150 -229 198 -252 q 74 -158 101 -205 q 46 -37 46 -111 l 46 81 q 73 203 46 155 q 149 275 100 251 q 260 298 197 298 q 371 275 323 298 q 447 203 420 251 q 475 81 475 155 m 323 -41 l 323 85 q 315 141 323 121 q 293 170 307 161 q 260 179 279 179 q 228 170 241 179 q 206 141 214 161 q 199 85 199 121 l 199 -41 q 206 -97 199 -77 q 228 -124 214 -117 q 261 -132 242 -132 q 293 -124 279 -132 q 315 -97 307 -117 q 323 -41 323 -77 z "},"₁":{"ha":521,"x_min":97,"x_max":368,"o":"m 368 289 l 368 -244 l 216 -244 l 216 117 l 97 93 l 97 206 l 355 289 l 368 289 z "},"₂":{"ha":521,"x_min":35,"x_max":473,"o":"m 473 -125 l 473 -244 l 47 -244 l 47 -144 l 241 27 q 278 67 264 47 q 300 103 293 87 q 308 128 308 119 q 294 166 308 152 q 251 180 280 180 q 204 158 220 180 q 188 110 188 137 l 35 110 q 61 204 35 161 q 133 273 86 248 q 243 299 180 299 q 361 279 313 299 q 434 221 409 259 q 460 128 460 183 q 444 55 460 87 q 393 -8 427 23 q 304 -79 359 -39 l 250 -125 l 473 -125 z "},"₃":{"ha":521,"x_min":28,"x_max":479,"o":"m 188 77 l 250 77 q 287 84 273 77 q 309 103 302 91 q 317 133 317 116 q 303 164 317 149 q 252 180 289 180 q 210 171 228 180 q 191 145 191 162 l 39 145 q 69 231 39 197 q 146 282 98 265 q 246 299 193 299 q 362 281 312 299 q 440 230 412 264 q 469 145 469 195 q 441 73 469 102 q 370 29 414 43 q 274 14 326 14 l 188 14 l 188 77 m 188 -19 l 188 41 l 274 41 q 376 30 330 41 q 451 -10 422 19 q 479 -94 479 -39 q 448 -179 479 -144 q 365 -233 417 -214 q 246 -252 312 -252 q 146 -235 197 -252 q 62 -181 96 -219 q 28 -81 28 -144 l 182 -81 q 202 -116 182 -100 q 258 -132 222 -132 q 311 -115 296 -132 q 326 -77 326 -98 q 317 -43 326 -56 q 291 -25 308 -31 q 250 -19 273 -19 l 188 -19 z "},"₄":{"ha":521,"x_min":37,"x_max":479,"o":"m 479 -17 l 479 -138 l 47 -138 l 37 -39 l 273 291 l 393 291 l 262 97 l 180 -17 l 479 -17 m 425 291 l 425 -244 l 273 -244 l 273 291 l 425 291 z "},"₅":{"ha":521,"x_min":41,"x_max":470,"o":"m 172 -16 l 52 14 l 90 291 l 439 291 l 439 176 l 213 176 l 199 91 q 233 101 208 94 q 287 109 259 109 q 388 89 347 109 q 449 31 429 68 q 470 -62 470 -7 q 447 -153 470 -109 q 377 -224 424 -196 q 256 -252 330 -252 q 153 -232 202 -252 q 72 -176 103 -212 q 41 -91 41 -140 l 195 -91 q 211 -123 194 -115 q 256 -132 228 -132 q 307 -111 296 -132 q 318 -62 318 -90 q 301 -10 318 -29 q 245 9 283 9 q 196 -1 212 9 q 172 -16 179 -10 z "},"₆":{"ha":521,"x_min":43,"x_max":487,"o":"m 366 304 l 393 304 l 393 182 l 385 182 q 294 173 338 182 q 223 129 250 163 q 195 22 195 95 l 195 -60 q 203 -102 195 -85 q 226 -125 210 -118 q 267 -133 242 -133 q 301 -123 286 -133 q 326 -98 317 -114 q 334 -63 334 -82 q 315 -17 334 -30 q 265 -4 296 -4 q 222 -12 240 -4 q 196 -31 205 -20 q 188 -48 187 -41 l 149 -39 q 165 30 146 -6 q 222 90 184 65 q 317 114 260 114 q 409 92 371 114 q 467 30 447 70 q 487 -65 487 -11 q 459 -161 487 -119 q 382 -227 431 -203 q 272 -252 334 -252 q 157 -230 210 -252 q 74 -159 105 -208 q 43 -31 43 -111 l 43 3 q 72 146 43 88 q 148 239 100 204 q 252 289 195 273 q 366 304 309 304 z "},"₇":{"ha":521,"x_min":33,"x_max":472,"o":"m 472 291 l 472 208 l 252 -244 l 92 -244 l 312 172 l 33 172 l 33 291 l 472 291 z "},"₈":{"ha":521,"x_min":46,"x_max":475,"o":"m 475 -96 q 447 -183 475 -148 q 372 -235 420 -218 q 261 -252 323 -252 q 151 -235 200 -252 q 74 -183 102 -218 q 46 -96 46 -148 q 75 -13 46 -46 q 152 39 103 21 q 260 56 200 56 q 370 39 321 56 q 447 -13 418 21 q 475 -96 475 -46 m 323 -80 q 315 -52 323 -63 q 292 -36 307 -41 q 260 -31 278 -31 q 229 -36 243 -31 q 207 -52 215 -41 q 199 -80 199 -63 q 207 -108 199 -96 q 229 -126 215 -120 q 261 -132 243 -132 q 293 -126 279 -132 q 315 -108 307 -120 q 323 -80 323 -96 m 463 146 q 437 71 463 102 q 366 22 411 39 q 261 5 321 5 q 157 22 203 5 q 84 71 111 39 q 58 146 58 102 q 84 231 58 197 q 156 282 111 264 q 260 299 202 299 q 365 282 319 299 q 437 231 411 264 q 463 146 463 197 m 310 136 q 305 160 310 151 q 289 175 300 170 q 260 180 277 180 q 223 169 235 180 q 211 136 211 157 q 216 111 211 122 q 233 94 222 100 q 261 88 244 88 q 298 101 287 88 q 310 136 310 115 z "},"₉":{"ha":521,"x_min":44,"x_max":473,"o":"m 149 -136 l 157 -136 q 241 -128 205 -136 q 299 -92 278 -121 q 321 -1 321 -64 l 321 110 q 314 151 321 136 q 294 173 307 166 q 259 180 280 180 q 226 169 240 180 q 205 140 212 158 q 197 100 197 122 q 205 63 197 78 q 229 42 213 49 q 267 35 244 35 q 305 42 291 35 q 325 59 319 50 q 330 73 331 68 l 377 67 q 357 -3 379 30 q 298 -55 334 -35 q 224 -75 262 -75 q 130 -56 170 -75 q 66 3 89 -37 q 44 103 44 42 q 73 201 44 157 q 150 272 101 245 q 259 299 198 299 q 363 278 315 299 q 443 208 412 256 q 473 79 473 160 l 473 40 q 447 -107 473 -50 q 377 -197 421 -165 q 276 -241 332 -229 q 159 -254 220 -254 l 149 -254 l 149 -136 z "},"₊":{"ha":562,"x_min":54,"x_max":507,"o":"m 507 70 l 507 -58 l 54 -58 l 54 70 l 507 70 m 351 246 l 351 -235 l 210 -235 l 210 246 l 351 246 z "},"₋":{"ha":506,"x_min":54,"x_max":452,"o":"m 452 70 l 452 -58 l 54 -58 l 54 70 l 452 70 z "},"₌":{"ha":506,"x_min":54,"x_max":452,"o":"m 452 -39 l 452 -167 l 54 -167 l 54 -39 l 452 -39 m 452 178 l 452 50 l 54 50 l 54 178 l 452 178 z "},"₍":{"ha":370,"x_min":54,"x_max":315,"o":"m 54 5 l 54 16 q 83 195 54 118 q 156 320 111 271 q 248 388 200 370 l 315 296 q 268 236 290 271 q 233 149 246 201 q 220 17 220 97 l 220 5 q 234 -125 220 -73 q 270 -212 248 -178 q 315 -268 292 -245 l 248 -359 q 177 -315 212 -346 q 115 -238 143 -285 q 71 -131 87 -192 q 54 5 54 -69 z "},"₎":{"ha":370,"x_min":54,"x_max":315,"o":"m 315 23 l 315 12 q 287 -166 315 -89 q 214 -292 258 -243 q 122 -359 170 -341 l 54 -268 q 100 -210 78 -245 q 136 -122 122 -176 q 151 12 151 -68 l 151 24 q 137 153 151 102 q 102 238 123 204 q 54 296 80 271 l 122 388 q 192 344 158 374 q 254 267 227 313 q 299 159 282 220 q 315 23 315 98 z "},"₤":{"ha":834,"x_min":72,"x_max":800,"o":"m 798 0 l 72 0 l 72 183 l 797 183 l 798 0 m 408 705 l 425 304 q 393 192 425 236 q 276 116 360 148 l 142 183 q 171 204 163 189 q 181 241 180 219 q 183 289 183 264 l 171 705 q 209 864 171 798 q 316 965 247 930 q 479 1000 385 1000 q 655 964 583 1000 q 763 863 726 928 q 800 711 800 798 l 577 711 q 565 774 577 751 q 531 807 552 798 q 484 817 510 817 q 444 805 461 817 q 417 768 427 793 q 408 705 408 743 m 587 616 l 587 502 l 74 502 l 74 616 l 587 616 m 587 433 l 587 317 l 74 317 l 74 433 l 587 433 z "},"₦":{"ha":1143,"x_min":28,"x_max":1116,"o":"m 1116 680 l 1116 572 l 28 572 l 28 680 l 1116 680 m 1116 456 l 1116 348 l 28 348 l 28 456 l 1116 456 m 983 987 l 983 0 l 747 0 l 397 614 l 397 0 l 159 0 l 159 987 l 397 987 l 746 373 l 746 987 l 983 987 z "},"₧":{"ha":1224,"x_min":88,"x_max":1158,"o":"m 373 338 l 243 338 l 243 532 l 373 532 q 452 551 421 532 q 497 603 482 571 q 511 669 511 634 q 497 730 511 701 q 452 776 482 758 q 373 794 421 794 l 332 794 l 332 0 l 88 0 l 88 987 l 373 987 q 581 946 496 987 q 711 833 667 905 q 756 670 756 761 q 711 499 756 574 q 581 381 667 425 q 373 338 496 338 m 1147 734 l 1147 575 l 705 575 l 705 734 l 1147 734 m 798 916 l 1027 916 l 1027 239 q 1034 194 1027 210 q 1057 172 1040 178 q 1101 165 1073 165 q 1133 166 1120 165 q 1158 170 1146 168 l 1158 6 q 1097 -8 1128 -3 q 1029 -14 1065 -14 q 904 9 956 -14 q 825 82 852 33 q 798 211 798 132 l 798 916 z "},"₨":{"ha":1526,"x_min":75,"x_max":1484,"o":"m 75 987 l 464 987 q 662 954 578 987 q 792 853 746 920 q 838 689 838 787 q 811 547 838 604 q 738 453 785 490 q 628 393 690 416 l 550 349 l 224 349 l 222 532 l 464 532 q 539 549 509 532 q 584 595 569 565 q 600 667 600 625 q 584 741 600 710 q 538 787 568 771 q 464 804 508 804 l 313 804 l 313 0 l 75 0 l 75 987 m 616 0 l 397 437 l 650 438 l 871 10 l 871 0 l 616 0 m 1263 206 q 1250 239 1263 225 q 1206 265 1238 253 q 1119 289 1175 277 q 1018 319 1065 300 q 936 366 971 338 q 881 430 901 393 q 861 515 861 467 q 881 604 861 562 q 940 678 901 646 q 1035 729 979 710 q 1163 747 1091 747 q 1334 717 1262 747 q 1445 633 1406 687 q 1484 509 1484 579 l 1255 509 q 1246 556 1255 536 q 1217 586 1237 576 q 1162 597 1196 597 q 1119 588 1139 597 q 1088 564 1100 579 q 1077 527 1077 548 q 1084 500 1077 512 q 1106 478 1091 488 q 1144 461 1121 469 q 1200 447 1167 453 q 1338 408 1274 433 q 1443 337 1402 383 q 1483 213 1483 291 q 1461 123 1483 164 q 1396 51 1438 82 q 1295 3 1354 20 q 1162 -14 1236 -14 q 985 24 1057 -14 q 875 119 912 62 q 838 235 838 176 l 1051 235 q 1068 180 1053 201 q 1109 148 1083 158 q 1168 138 1135 138 q 1220 146 1200 138 q 1252 171 1241 155 q 1263 206 1263 186 z "},"₩":{"ha":1175,"x_min":28,"x_max":1147,"o":"m 1147 829 l 1147 721 l 28 721 l 28 829 l 1147 829 m 1147 646 l 1147 538 l 28 538 l 28 646 l 1147 646 m 397 0 l 361 90 l 484 987 l 602 987 l 664 911 l 527 0 l 397 0 m 335 987 l 451 83 l 432 0 l 281 0 l 98 987 l 335 987 m 737 0 l 720 87 l 835 987 l 1071 987 l 888 0 l 737 0 m 684 987 l 810 84 l 772 0 l 643 0 l 502 912 l 567 987 l 684 987 z "},"₪":{"ha":1278,"x_min":66,"x_max":1212,"o":"m 66 734 l 637 734 q 770 716 718 734 q 852 664 822 699 q 894 576 882 629 q 906 454 906 524 l 906 251 l 677 251 l 677 454 q 668 511 677 490 q 644 542 660 532 q 607 555 629 552 q 561 557 586 557 l 295 557 l 295 0 l 66 0 l 66 734 m 745 0 l 372 0 l 372 484 l 601 484 l 601 176 l 867 176 q 926 182 900 176 q 967 209 952 187 q 983 280 983 231 l 983 734 l 1212 734 l 1212 280 q 1170 158 1212 210 q 1059 70 1128 105 q 908 17 990 35 q 745 0 826 0 z "},"€":{"ha":805,"x_min":58,"x_max":754,"o":"m 606 170 q 668 174 638 170 q 725 190 698 179 l 754 7 q 668 -7 713 -2 q 576 -13 623 -13 q 414 11 488 -13 q 285 81 340 34 q 200 198 231 128 q 170 361 170 268 l 170 598 q 201 772 170 697 q 289 898 232 847 q 424 975 346 949 q 597 1000 503 1000 q 676 995 637 1000 q 754 979 716 989 l 725 796 q 671 811 701 806 q 612 817 641 817 q 526 805 564 817 q 462 768 488 793 q 422 701 436 742 q 409 600 409 659 l 409 361 q 423 266 409 303 q 464 208 437 229 q 526 178 490 186 q 606 170 562 170 m 620 644 l 620 536 l 58 536 l 58 644 l 620 644 m 620 453 l 620 345 l 58 345 l 58 453 l 620 453 z "},"₱":{"ha":1046,"x_min":28,"x_max":1017,"o":"m 1017 781 l 1017 672 l 28 672 l 28 781 l 1017 781 m 1017 634 l 1017 526 l 28 526 l 28 634 l 1017 634 m 526 335 l 281 335 l 281 519 l 526 519 q 608 536 576 519 q 653 583 639 553 q 668 651 668 613 q 653 726 668 692 q 608 782 639 761 q 526 804 576 804 l 370 804 l 370 0 l 132 0 l 132 987 l 526 987 q 731 944 645 987 q 863 825 817 901 q 909 652 909 749 q 863 486 909 557 q 731 375 817 414 q 526 335 645 335 z "},"₹":{"ha":736,"x_min":27,"x_max":709,"o":"m 708 736 l 671 594 l 27 594 l 64 736 l 708 736 m 358 0 l 47 372 l 46 503 l 203 503 q 281 524 250 503 q 326 579 311 544 q 341 656 341 614 q 328 732 341 699 q 284 785 315 766 q 203 804 254 804 l 27 804 l 71 987 l 203 987 q 410 950 326 987 q 535 844 493 913 q 578 676 578 774 q 553 525 578 589 q 475 418 528 461 q 338 349 422 374 l 614 10 l 614 0 l 358 0 m 709 987 l 672 845 l 132 845 l 170 987 l 709 987 z "},"₺":{"ha":846,"x_min":28,"x_max":798,"o":"m 368 987 l 368 0 l 131 0 l 131 987 l 368 987 m 557 516 l 798 516 l 798 473 q 765 270 798 360 q 675 117 733 180 q 537 20 616 54 q 364 -14 458 -14 q 232 -9 290 -14 q 131 0 174 -5 l 364 172 q 447 192 411 172 q 508 249 484 211 q 545 342 532 286 q 557 473 557 399 l 557 516 m 479 907 l 479 756 l 28 629 l 28 780 l 479 907 m 479 683 l 479 532 l 28 406 l 28 556 l 479 683 z "},"₼":{"ha":964,"x_min":38,"x_max":926,"o":"m 926 0 l 697 0 l 697 111 q 687 220 697 171 q 657 306 677 269 q 611 369 638 343 q 552 407 585 394 q 481 420 519 420 q 394 399 433 420 q 326 340 355 379 q 282 243 298 300 q 267 111 267 186 l 267 0 l 38 0 l 38 110 q 72 313 38 223 q 165 466 105 403 q 306 563 225 529 q 481 596 387 596 q 624 574 557 596 q 746 512 691 553 q 842 411 802 471 q 904 276 882 352 q 926 110 926 200 l 926 0 m 597 734 l 597 0 l 368 0 l 368 734 l 597 734 z "},"₽":{"ha":1008,"x_min":43,"x_max":955,"o":"m 570 335 l 43 335 l 43 519 l 562 519 q 653 536 620 519 q 700 585 686 554 q 714 654 714 616 q 698 729 714 696 q 650 783 682 763 q 570 803 618 803 l 416 803 l 416 0 l 178 0 l 178 987 l 570 987 q 774 944 688 987 q 908 827 861 901 q 955 656 955 752 q 906 484 955 555 q 771 373 858 412 q 570 335 685 335 m 628 298 l 628 115 l 43 115 l 43 298 l 628 298 z "},"℅":{"ha":1017,"x_min":60,"x_max":970,"o":"m 326 724 l 472 724 q 450 635 472 677 q 382 568 427 594 q 267 543 336 543 q 152 570 199 543 q 83 644 106 598 q 60 745 60 690 l 60 798 q 83 900 60 854 q 152 974 106 946 q 266 1002 198 1002 q 381 976 336 1002 q 450 908 427 950 q 472 819 472 867 l 326 819 q 311 859 326 840 q 266 878 296 878 q 233 867 245 878 q 213 838 220 856 q 207 798 207 819 l 207 745 q 213 707 207 725 q 233 677 220 688 q 267 666 247 666 q 311 685 297 666 q 326 724 326 705 m 530 190 l 530 242 q 555 344 530 298 q 629 418 580 390 q 751 446 678 446 q 874 418 825 446 q 946 344 922 390 q 970 242 970 298 l 970 190 q 946 88 970 134 q 874 14 922 42 q 752 -14 826 -14 q 629 14 679 -14 q 555 88 580 42 q 530 190 530 134 m 677 242 l 677 190 q 688 151 677 169 q 715 121 698 132 q 752 110 732 110 q 799 121 783 110 q 819 151 814 132 q 824 190 824 169 l 824 242 q 816 281 824 263 q 791 311 808 300 q 751 322 775 322 q 710 311 726 322 q 686 281 694 300 q 677 242 677 263 m 793 846 l 311 74 l 205 127 l 687 899 l 793 846 z "},"ℓ":{"ha":699,"x_min":5,"x_max":659,"o":"m 514 197 l 514 -14 q 341 7 414 -14 q 221 70 269 29 q 150 166 173 110 q 126 292 126 223 l 126 674 q 146 812 126 751 q 202 916 165 873 q 291 980 239 958 q 407 1002 342 1002 q 508 985 462 1002 q 588 937 554 968 q 641 860 622 905 q 659 759 659 815 l 659 730 q 631 618 659 677 q 549 502 604 559 q 416 398 495 445 q 234 325 337 352 q 5 297 131 297 l 5 424 q 212 451 125 424 q 353 523 298 478 q 434 622 408 568 q 460 729 460 676 l 460 759 q 457 782 460 771 q 447 800 453 792 q 432 813 440 808 q 415 818 424 818 q 397 812 406 818 q 383 793 389 806 q 374 762 377 781 q 370 717 370 743 l 370 349 q 377 284 370 313 q 401 237 385 256 q 446 208 418 218 q 514 197 473 197 z "},"№":{"ha":1398,"x_min":76,"x_max":1331,"o":"m 1291 385 l 1291 285 l 895 285 l 895 385 l 1291 385 m 861 712 l 861 751 q 889 877 861 821 q 971 965 918 932 q 1095 998 1023 998 q 1221 965 1168 998 q 1302 877 1274 932 q 1331 751 1331 821 l 1331 712 q 1302 586 1331 642 q 1221 498 1274 530 q 1097 465 1169 465 q 971 498 1024 465 q 889 586 918 530 q 861 712 861 642 m 979 751 l 979 712 q 992 638 979 672 q 1031 585 1005 605 q 1097 564 1057 564 q 1161 585 1135 564 q 1199 638 1187 605 q 1212 712 1212 672 l 1212 751 q 1199 824 1212 790 q 1160 878 1186 857 q 1095 898 1135 898 q 1031 878 1057 898 q 992 824 1005 857 q 979 751 979 790 m 790 987 l 790 0 l 538 0 l 307 601 l 307 0 l 76 0 l 76 987 l 328 987 l 559 387 l 559 987 l 790 987 z "}}}
